<?xml version="1.0" encoding="UTF-8" standalone="no"?>
<svg
   xmlns:dc="http://purl.org/dc/elements/1.1/"
   xmlns:cc="http://creativecommons.org/ns#"
   xmlns:rdf="http://www.w3.org/1999/02/22-rdf-syntax-ns#"
   xmlns:svg="http://www.w3.org/2000/svg"
   xmlns="http://www.w3.org/2000/svg"
   height="11.3"
   width="72.078461"
   id="svg3625"
   xml:space="preserve"
   viewBox="0 0 72.078461 11.3"
   y="0px"
   x="0px"
   version="1.1"><metadata
     id="metadata3631"><rdf:RDF><cc:Work
         rdf:about=""><dc:format>image/svg+xml</dc:format><dc:type
           rdf:resource="http://purl.org/dc/dcmitype/StillImage" /><dc:title></dc:title></cc:Work></rdf:RDF></metadata><defs
     id="defs3629" /><g
     style="fill:#ffffff"
     transform="translate(-13.86077,-43.9)"
     id="g3603"><path
       style="fill:#ffffff"
       id="path3601"
       d="m 25.9,48.1 c -0.1,-0.2 -0.3,-0.3 -0.5,-0.3 h -3.8 l -1.2,-3.6 c -0.1,-0.4 -0.8,-0.4 -1,0 l -1.2,3.6 h -3.8 c -0.2,0 -0.4,0.1 -0.5,0.3 -0.1,0.2 0,0.4 0.2,0.6 l 3.1,2.2 -1.2,3.6 c -0.1,0.2 0,0.4 0.2,0.6 0.2,0.1 0.4,0.1 0.6,0 l 3.1,-2.2 3.1,2.2 c 0.1,0.1 0.2,0.1 0.3,0.1 0.1,0 0.2,0 0.3,-0.1 0.2,-0.1 0.3,-0.3 0.2,-0.6 l -1.2,-3.6 3.1,-2.2 c 0.2,-0.2 0.3,-0.4 0.2,-0.6 z" /></g><g
     style="fill:#ffffff"
     transform="translate(-13.86077,-43.9)"
     id="g3607"><path
       style="fill:#ffffff"
       id="path3605"
       d="m 40.9,48.1 c -0.1,-0.2 -0.3,-0.3 -0.5,-0.3 h -3.8 l -1.2,-3.6 c -0.1,-0.4 -0.8,-0.4 -1,0 l -1.2,3.6 h -3.8 c -0.2,0 -0.4,0.1 -0.5,0.3 -0.1,0.2 0,0.4 0.2,0.6 l 3.1,2.2 -1.2,3.6 c -0.1,0.2 0,0.4 0.2,0.6 0.2,0.1 0.4,0.1 0.6,0 l 3.1,-2.2 3.1,2.2 c 0.1,0.1 0.2,0.1 0.3,0.1 0.1,0 0.2,0 0.3,-0.1 0.2,-0.1 0.3,-0.3 0.2,-0.6 l -1.2,-3.6 3.1,-2.2 c 0.2,-0.2 0.3,-0.4 0.2,-0.6 z" /></g><g
     style="fill:#ffffff"
     transform="translate(-13.86077,-43.9)"
     id="g3611"><path
       style="fill:#ffffff"
       id="path3609"
       d="m 55.9,48.1 c -0.1,-0.2 -0.3,-0.3 -0.5,-0.3 h -3.8 l -1.2,-3.6 c -0.1,-0.4 -0.8,-0.4 -1,0 l -1.2,3.6 h -3.8 c -0.2,0 -0.4,0.1 -0.5,0.3 -0.1,0.2 0,0.4 0.2,0.6 l 3.1,2.2 -1.2,3.6 c -0.1,0.2 0,0.4 0.2,0.6 0.2,0.1 0.4,0.1 0.6,0 l 3.1,-2.2 3.1,2.2 c 0.1,0.1 0.2,0.1 0.3,0.1 0.1,0 0.2,0 0.3,-0.1 0.2,-0.1 0.3,-0.3 0.2,-0.6 l -1.2,-3.6 3.1,-2.2 c 0.2,-0.2 0.3,-0.4 0.2,-0.6 z" /></g><g
     style="fill:#ffffff"
     transform="translate(-13.86077,-43.9)"
     id="g3615"><path
       style="fill:#ffffff"
       id="path3613"
       d="m 70.9,48.1 c -0.1,-0.2 -0.3,-0.3 -0.5,-0.3 h -3.8 l -1.2,-3.6 c -0.1,-0.4 -0.8,-0.4 -1,0 l -1.2,3.6 h -3.8 c -0.2,0 -0.4,0.1 -0.5,0.3 -0.1,0.2 0,0.4 0.2,0.6 l 3.1,2.2 -1.2,3.6 c -0.1,0.2 0,0.4 0.2,0.6 0.2,0.1 0.4,0.1 0.6,0 l 3.1,-2.2 3.1,2.2 c 0.1,0.1 0.2,0.1 0.3,0.1 0.1,0 0.2,0 0.3,-0.1 0.2,-0.1 0.3,-0.3 0.2,-0.6 l -1.2,-3.6 3.1,-2.2 c 0.2,-0.2 0.3,-0.4 0.2,-0.6 z" /></g><g
     style="fill:#ffffff"
     transform="translate(-13.86077,-43.9)"
     id="g3619"><path
       style="fill:#ffffff"
       id="path3617"
       d="m 85.9,48.1 c -0.1,-0.2 -0.3,-0.3 -0.5,-0.3 h -3.8 l -1.2,-3.6 c -0.1,-0.4 -0.8,-0.4 -1,0 l -1.2,3.6 h -3.8 c -0.2,0 -0.4,0.1 -0.5,0.3 -0.1,0.2 0,0.4 0.2,0.6 l 3.1,2.2 -1.2,3.6 c -0.1,0.2 0,0.4 0.2,0.6 0.2,0.1 0.4,0.1 0.6,0 l 3.1,-2.2 3.1,2.2 c 0.1,0.1 0.2,0.1 0.3,0.1 0.1,0 0.2,0 0.3,-0.1 0.2,-0.1 0.3,-0.3 0.2,-0.6 l -1.2,-3.6 3.1,-2.2 c 0.2,-0.2 0.3,-0.4 0.2,-0.6 z m -4.1,2.2 c -0.2,0.1 -0.3,0.4 -0.2,0.6 l 0.8,2.5 -2.1,-1.5 C 80.2,51.8 80.1,51.8 80,51.8 V 46 l 0.8,2.5 c 0.1,0.2 0.3,0.3 0.5,0.3 h 2.6 z" /></g></svg>
