<svg xmlns="http://www.w3.org/2000/svg" xmlns:xlink="http://www.w3.org/1999/xlink" version="1.1" x="0px" y="0px" viewBox="0 0 100 125" style="enable-background:new 0 0 100 100;" xml:space="preserve"><g><path d="M25.9,48.1c-0.1-0.2-0.3-0.3-0.5-0.3h-3.8l-1.2-3.6c-0.1-0.4-0.8-0.4-1,0l-1.2,3.6h-3.8c-0.2,0-0.4,0.1-0.5,0.3   c-0.1,0.2,0,0.4,0.2,0.6l3.1,2.2l-1.2,3.6c-0.1,0.2,0,0.4,0.2,0.6c0.2,0.1,0.4,0.1,0.6,0l3.1-2.2l3.1,2.2c0.1,0.1,0.2,0.1,0.3,0.1   c0.1,0,0.2,0,0.3-0.1c0.2-0.1,0.3-0.3,0.2-0.6l-1.2-3.6l3.1-2.2C25.9,48.5,26,48.3,25.9,48.1z"/></g><g><path d="M40.9,48.1c-0.1-0.2-0.3-0.3-0.5-0.3h-3.8l-1.2-3.6c-0.1-0.4-0.8-0.4-1,0l-1.2,3.6h-3.8c-0.2,0-0.4,0.1-0.5,0.3   c-0.1,0.2,0,0.4,0.2,0.6l3.1,2.2l-1.2,3.6c-0.1,0.2,0,0.4,0.2,0.6c0.2,0.1,0.4,0.1,0.6,0l3.1-2.2l3.1,2.2c0.1,0.1,0.2,0.1,0.3,0.1   c0.1,0,0.2,0,0.3-0.1c0.2-0.1,0.3-0.3,0.2-0.6l-1.2-3.6l3.1-2.2C40.9,48.5,41,48.3,40.9,48.1z"/></g><g><path d="M55.9,48.1c-0.1-0.2-0.3-0.3-0.5-0.3h-3.8l-1.2-3.6c-0.1-0.4-0.8-0.4-1,0l-1.2,3.6h-3.8c-0.2,0-0.4,0.1-0.5,0.3   c-0.1,0.2,0,0.4,0.2,0.6l3.1,2.2l-1.2,3.6c-0.1,0.2,0,0.4,0.2,0.6c0.2,0.1,0.4,0.1,0.6,0l3.1-2.2l3.1,2.2c0.1,0.1,0.2,0.1,0.3,0.1   c0.1,0,0.2,0,0.3-0.1c0.2-0.1,0.3-0.3,0.2-0.6l-1.2-3.6l3.1-2.2C55.9,48.5,56,48.3,55.9,48.1z"/></g><g><path d="M70.9,48.1c-0.1-0.2-0.3-0.3-0.5-0.3h-3.8l-1.2-3.6c-0.1-0.4-0.8-0.4-1,0l-1.2,3.6h-3.8c-0.2,0-0.4,0.1-0.5,0.3   c-0.1,0.2,0,0.4,0.2,0.6l3.1,2.2l-1.2,3.6c-0.1,0.2,0,0.4,0.2,0.6c0.2,0.1,0.4,0.1,0.6,0l3.1-2.2l3.1,2.2c0.1,0.1,0.2,0.1,0.3,0.1   c0.1,0,0.2,0,0.3-0.1c0.2-0.1,0.3-0.3,0.2-0.6l-1.2-3.6l3.1-2.2C70.9,48.5,71,48.3,70.9,48.1z"/></g><g><path d="M85.9,48.1c-0.1-0.2-0.3-0.3-0.5-0.3h-3.8l-1.2-3.6c-0.1-0.4-0.8-0.4-1,0l-1.2,3.6h-3.8c-0.2,0-0.4,0.1-0.5,0.3   c-0.1,0.2,0,0.4,0.2,0.6l3.1,2.2l-1.2,3.6c-0.1,0.2,0,0.4,0.2,0.6c0.2,0.1,0.4,0.1,0.6,0l3.1-2.2l3.1,2.2c0.1,0.1,0.2,0.1,0.3,0.1   c0.1,0,0.2,0,0.3-0.1c0.2-0.1,0.3-0.3,0.2-0.6l-1.2-3.6l3.1-2.2C85.9,48.5,86,48.3,85.9,48.1z M81.8,50.3c-0.2,0.1-0.3,0.4-0.2,0.6   l0.8,2.5l-2.1-1.5c-0.1-0.1-0.2-0.1-0.3-0.1v-5.8l0.8,2.5c0.1,0.2,0.3,0.3,0.5,0.3h2.6L81.8,50.3z"/></g><text x="0" y="115" fill="#000000" font-size="5px" font-weight="bold" font-family="'Helvetica Neue', Helvetica, Arial-Unicode, Arial, Sans-serif">Created by Shiva</text><text x="0" y="120" fill="#000000" font-size="5px" font-weight="bold" font-family="'Helvetica Neue', Helvetica, Arial-Unicode, Arial, Sans-serif">from the Noun Project</text></svg>