<svg xmlns="http://www.w3.org/2000/svg" xmlns:xlink="http://www.w3.org/1999/xlink" version="1.1" x="0px" y="0px" viewBox="0 0 48 60" enable-background="new 0 0 48 48" xml:space="preserve"><g><path d="M29.2,13.2L37,3.8c0.3-0.4,0.3-0.9,0-1.3c-0.4-0.4-1.8-1.9-2.3-2.3c-0.4-0.3-0.9-0.3-1.3,0L24,8.1l-9.4-7.8   c-0.4-0.3-0.9-0.3-1.3,0c-0.4,0.4-1.9,1.9-2.3,2.3c-0.3,0.4-0.3,0.9,0,1.3l7.8,9.4L11,22.6c-0.3,0.4-0.3,0.9,0,1.3   c0.4,0.5,1.9,1.9,2.3,2.3c0.2,0.1,0.4,0.2,0.6,0.2c0.2,0,0.5-0.1,0.6-0.2l6.4-5.3l-4.9,26c-0.1,0.5,0.3,1.1,0.8,1.2   c0.1,0,0.1,0,0.2,0c0.5,0,0.9-0.3,1-0.8l1.5-8.1h8.7l1.5,8.1c0.1,0.5,0.5,0.8,1,0.8c0.1,0,0.1,0,0.2,0c0.5-0.1,0.9-0.6,0.8-1.2   l-4.9-26l6.4,5.3c0.4,0.3,0.9,0.3,1.3,0c0.4-0.4,1.9-1.9,2.3-2.3c0.3-0.4,0.3-0.9,0-1.3L29.2,13.2z M28,37h-8l3.4-18.2l0.6-0.5   l0.6,0.5L28,37z M34,24.1l-9.4-7.8c-0.4-0.3-0.9-0.3-1.3,0L14,24.1c-0.3-0.3-0.6-0.6-0.9-0.9l7.8-9.4c0.3-0.4,0.3-0.9,0-1.3   l-7.8-9.4c0.3-0.3,0.6-0.6,0.8-0.8l9.4,7.8c0.4,0.3,0.9,0.3,1.3,0L34,2.3c0.3,0.3,0.6,0.6,0.9,0.9l-7.8,9.4c-0.3,0.4-0.3,0.9,0,1.3   l7.8,9.4C34.6,23.5,34.3,23.8,34,24.1z"/></g><text x="0" y="63" fill="#000000" font-size="5px" font-weight="bold" font-family="'Helvetica Neue', Helvetica, Arial-Unicode, Arial, Sans-serif">Created by Vectors Market</text><text x="0" y="68" fill="#000000" font-size="5px" font-weight="bold" font-family="'Helvetica Neue', Helvetica, Arial-Unicode, Arial, Sans-serif">from the Noun Project</text></svg>