<?xml version="1.0" encoding="iso-8859-1"?>
<!-- Generator: Adobe Illustrator 19.0.0, SVG Export Plug-In . SVG Version: 6.00 Build 0)  -->
<svg version="1.1" id="Capa_1" xmlns="http://www.w3.org/2000/svg" xmlns:xlink="http://www.w3.org/1999/xlink" x="0px" y="0px"
	 viewBox="0 0 512 512" style="enable-background:new 0 0 512 512;" xml:space="preserve">
<path style="fill:#AFB9D2;" d="M269.788,104v32l110.431,22.086c4.95,0.99,9.569-2.796,9.569-7.845V89.758
	c0-5.048-4.619-8.835-9.569-7.845L269.788,104z"/>
<path style="fill:#959CB5;" d="M269.788,136l75.77,15.154c2.674-9.951,4.23-20.359,4.23-31.154c0-10.794-1.557-21.203-4.23-31.154
	L269.788,104V136z"/>
<path style="fill:#C7CFE2;" d="M211.144,230.353c6.061,1.058,12.279,1.647,18.644,1.647s12.583-0.589,18.644-1.647
	c4.617-0.806,7.611-5.331,6.475-9.877l-13.488-53.954h-23.261l-13.488,53.954C203.533,225.022,206.528,229.547,211.144,230.353z"/>
<path style="fill:#AFB9D2;" d="M254.907,220.476l-13.488-53.954h-11.63V232c6.365,0,12.583-0.589,18.644-1.647
	C253.049,229.547,256.044,225.022,254.907,220.476z"/>
<path style="fill:#C7CFE2;" d="M248.432,9.647C242.372,8.589,236.154,8,229.788,8s-12.583,0.589-18.644,1.647
	c-4.617,0.806-7.611,5.331-6.475,9.877l13.488,53.954h23.261l13.488-53.954C256.044,14.978,253.049,10.453,248.432,9.647z"/>
<path style="fill:#AFB9D2;" d="M204.67,19.524l13.488,53.954h11.63V8c-6.365,0-12.583,0.589-18.644,1.647
	C206.528,10.453,203.533,14.978,204.67,19.524z"/>
<path style="fill:#C7CFE2;" d="M143.542,48.677c-3.946,4.72-7.566,9.81-10.748,15.323c-3.183,5.512-5.781,11.192-7.896,16.97
	c-1.611,4.401,0.811,9.257,5.317,10.546l53.47,15.296l11.63-20.144L155.334,48.01C151.964,44.751,146.548,45.082,143.542,48.677z"/>
<path style="fill:#AFB9D2;" d="M130.215,91.516l53.47,15.296L189.5,96.74L132.793,64c-3.183,5.512-5.781,11.192-7.896,16.97
	C123.287,85.371,125.708,90.227,130.215,91.516z"/>
<path style="fill:#C7CFE2;" d="M316.035,191.323c3.946-4.72,7.566-9.81,10.748-15.323c3.183-5.512,5.781-11.192,7.896-16.97
	c1.611-4.401-0.811-9.257-5.317-10.546l-53.47-15.296l-11.63,20.144l39.981,38.658C307.613,195.249,313.029,194.918,316.035,191.323
	z"/>
<g>
	<path style="fill:#AFB9D2;" d="M329.362,148.484l-53.47-15.296l-5.815,10.072L326.783,176c3.183-5.512,5.781-11.192,7.896-16.97
		C336.289,154.629,333.868,149.773,329.362,148.484z"/>
	<path style="fill:#AFB9D2;" d="M316.035,48.677c3.946,4.72,7.566,9.81,10.748,15.323c3.183,5.512,5.781,11.192,7.896,16.97
		c1.611,4.401-0.811,9.257-5.317,10.546l-53.47,15.296l-11.63-20.144l39.981-38.658C307.613,44.751,313.029,45.082,316.035,48.677z"
		/>
</g>
<path style="fill:#C7CFE2;" d="M329.362,91.516l-53.47,15.296l-5.815-10.072L326.783,64c3.183,5.512,5.781,11.192,7.896,16.97
	C336.289,85.371,333.868,90.227,329.362,91.516z"/>
<path style="fill:#AFB9D2;" d="M143.542,191.323c-3.946-4.72-7.566-9.81-10.748-15.323c-3.183-5.512-5.781-11.192-7.896-16.97
	c-1.611-4.401,0.811-9.257,5.317-10.546l53.47-15.296l11.63,20.144l-39.981,38.658C151.964,195.249,146.548,194.918,143.542,191.323
	z"/>
<path style="fill:#C7CFE2;" d="M130.215,148.484l53.47-15.296l5.815,10.072L132.793,176c-3.183-5.512-5.781-11.192-7.896-16.97
	C123.287,154.629,125.708,149.773,130.215,148.484z"/>
<circle style="fill:#959CB5;" cx="229.79" cy="120" r="16"/>
<path d="M245.768,112.226c-4.142,0-7.5,3.358-7.5,7.5c0,4.705-3.828,8.532-8.532,8.532s-8.532-3.827-8.532-8.532
	c0-3.037,1.637-5.871,4.271-7.395c3.585-2.074,4.811-6.662,2.737-10.248c-2.074-3.585-6.663-4.811-10.248-2.737
	c-7.254,4.196-11.76,12.005-11.76,20.379c0,12.976,10.557,23.532,23.532,23.532s23.532-10.556,23.532-23.532
	C253.268,115.584,249.91,112.226,245.768,112.226z"/>
<path d="M391.591,77.682c-3.792-2.961-8.647-3.99-13.312-2.823l-34.547,8.637c-2.668-8.45-6.128-16.388-10.311-23.633
	c-4.729-8.191-10.681-16.024-17.689-23.281c-1.382-1.431-3.277-2.254-5.267-2.289c-1.978-0.033-3.911,0.724-5.342,2.107
	l-6.256,6.049c-10.683-9.563-23.204-16.804-36.768-21.258l2.104-8.416c0.483-1.931,0.178-3.974-0.846-5.68
	c-1.024-1.706-2.685-2.935-4.616-3.417C248.951,1.238,239.191,0,229.735,0s-19.215,1.238-29.007,3.679
	c-1.931,0.481-3.591,1.71-4.616,3.417c-1.024,1.706-1.329,3.75-0.846,5.68l2.105,8.419c-13.558,4.452-26.076,11.69-36.764,21.258
	l-6.26-6.053c-1.431-1.383-3.343-2.142-5.342-2.107c-1.99,0.034-3.884,0.857-5.267,2.289c-7.01,7.259-12.961,15.091-17.689,23.281
	c-4.729,8.19-8.537,17.261-11.317,26.96c-0.548,1.913-0.314,3.965,0.651,5.705c0.965,1.74,2.583,3.025,4.496,3.573l8.353,2.39
	c-1.447,6.956-2.19,14.074-2.19,21.235c0,7.162,0.743,14.279,2.191,21.235l-8.353,2.39c-1.914,0.547-3.531,1.832-4.496,3.572
	s-1.199,3.793-0.651,5.706c2.781,9.7,6.589,18.77,11.317,26.96c4.728,8.189,10.68,16.022,17.689,23.281
	c1.382,1.431,3.277,2.255,5.267,2.289c0.043,0,0.085,0.001,0.128,0.001c1.944,0,3.813-0.755,5.213-2.108l6.258-6.051
	c10.676,9.553,23.213,16.799,36.767,21.252l-2.106,8.423c-0.483,1.931-0.178,3.974,0.846,5.68c0.959,1.597,2.48,2.768,4.254,3.307
	l-6.916,36.885h-11.812c-4.142,0-7.5,3.358-7.5,7.5s3.358,7.5,7.5,7.5h8.999L151.366,497h-25.84c-4.142,0-7.5,3.358-7.5,7.5
	s3.358,7.5,7.5,7.5h208.419c4.142,0,7.5-3.358,7.5-7.5s-3.358-7.5-7.5-7.5h-25.84l-39.272-209.452h8.999c4.142,0,7.5-3.358,7.5-7.5
	s-3.358-7.5-7.5-7.5H266.02l-6.916-36.885c1.774-0.539,3.295-1.71,4.254-3.307c1.024-1.706,1.329-3.749,0.846-5.68l-2.105-8.421
	c13.561-4.454,26.09-11.693,36.77-21.251l6.255,6.048c1.4,1.354,3.27,2.108,5.213,2.108c0.042,0,0.085,0,0.128-0.001
	c1.99-0.034,3.884-0.857,5.267-2.289c7.009-7.258,12.96-15.091,17.689-23.281c4.183-7.246,7.643-15.183,10.311-23.633l34.547,8.637
	c1.261,0.315,2.535,0.47,3.798,0.47c3.413,0,6.746-1.132,9.514-3.293c3.792-2.961,5.967-7.419,5.967-12.23V89.912
	C397.558,85.101,395.383,80.643,391.591,77.682z M247.772,222.795c-6.11,1.101-12.151,1.657-18.037,1.657
	s-11.927-0.556-18.037-1.657l11.953-47.812c1.999,0.219,4.027,0.339,6.084,0.339s4.084-0.121,6.084-0.339L247.772,222.795z
	 M229.735,160.322c-22.385,0-40.597-18.211-40.597-40.597c0-22.385,18.211-40.597,40.597-40.597s40.597,18.212,40.597,40.597
	C270.332,142.111,252.121,160.322,229.735,160.322z M284.756,111.787l32.019-9.159c1.094,5.607,1.654,11.333,1.654,17.098
	c0,5.764-0.554,11.493-1.648,17.1l-32.026-9.161c0.373-2.594,0.576-5.243,0.576-7.939
	C285.332,117.03,285.129,114.382,284.756,111.787z M320.431,67.363c2.943,5.098,5.482,10.607,7.584,16.449l-47.392,13.557
	c-1.65-3.74-3.695-7.267-6.092-10.523l35.447-34.274C313.985,57.311,317.487,62.265,320.431,67.363z M288.05,52.908l-23.953,23.161
	c-4.143-3.269-8.758-5.959-13.729-7.953l8.081-32.323C269.309,39.508,279.366,45.321,288.05,52.908z M229.735,15
	c5.886,0,11.927,0.556,18.037,1.656l-11.953,47.813c-1.999-0.219-4.027-0.34-6.084-0.34s-4.084,0.121-6.084,0.34l-11.953-47.813
	C217.809,15.556,223.85,15,229.735,15z M201.022,35.795l8.08,32.32c-4.97,1.994-9.585,4.685-13.729,7.953l-23.959-23.166
	C180.104,45.311,190.166,39.509,201.022,35.795z M139.04,67.363c2.943-5.097,6.445-10.051,10.453-14.792l35.447,34.274
	c-2.396,3.256-4.442,6.783-6.091,10.523l-47.393-13.557C133.558,77.97,136.097,72.46,139.04,67.363z M141.042,119.726
	c0-5.763,0.555-11.492,1.649-17.099l32.024,9.161c-0.373,2.595-0.576,5.243-0.576,7.938c0,2.696,0.203,5.345,0.576,7.939
	l-32.024,9.161C141.597,131.218,141.042,125.489,141.042,119.726z M139.04,172.089c-2.943-5.098-5.482-10.607-7.584-16.448
	l47.393-13.558c1.65,3.741,3.695,7.268,6.091,10.523l-35.447,34.274C145.485,182.14,141.983,177.186,139.04,172.089z
	 M171.419,186.545l23.955-23.162c4.143,3.268,8.758,5.958,13.729,7.953l-8.083,32.332
	C190.166,199.953,180.1,194.126,171.419,186.545z M215.098,238.491c2.391,0.309,4.771,0.542,7.138,0.701v33.357h-13.523
	L215.098,238.491z M186.36,391.758h35.875V497h-55.608L186.36,391.758z M237.235,497V391.758h35.875L292.843,497H237.235z
	 M270.298,376.758h-33.063v-48.613c0-4.142-3.358-7.5-7.5-7.5s-7.5,3.358-7.5,7.5v48.613h-33.063l16.727-89.209h16.336v8.53
	c0,4.142,3.358,7.5,7.5,7.5s7.5-3.358,7.5-7.5v-8.53h16.336L270.298,376.758z M237.235,272.548v-33.357
	c2.367-0.159,4.747-0.392,7.138-0.701l6.386,34.058H237.235z M258.451,203.664l-8.082-32.328c4.97-1.994,9.585-4.685,13.729-7.953
	l23.953,23.16C279.367,194.127,269.308,199.948,258.451,203.664z M320.431,172.089c-2.943,5.098-6.445,10.052-10.453,14.792
	l-35.447-34.274c2.396-3.256,4.442-6.783,6.092-10.523l47.392,13.558C325.913,161.481,323.374,166.991,320.431,172.089z
	 M382.558,149.54c0,0.076,0,0.252-0.199,0.407c-0.198,0.155-0.369,0.113-0.443,0.094l-50.025-12.506
	c1.014-5.86,1.538-11.819,1.538-17.809c0-5.991-0.519-11.949-1.533-17.809l50.021-12.505c0.074-0.019,0.245-0.061,0.443,0.094
	c0.199,0.155,0.199,0.332,0.199,0.407v59.627H382.558z"/>
<g>
</g>
<g>
</g>
<g>
</g>
<g>
</g>
<g>
</g>
<g>
</g>
<g>
</g>
<g>
</g>
<g>
</g>
<g>
</g>
<g>
</g>
<g>
</g>
<g>
</g>
<g>
</g>
<g>
</g>
</svg>
