<svg xmlns="http://www.w3.org/2000/svg" xmlns:xlink="http://www.w3.org/1999/xlink" version="1.1" x="0px" y="0px" viewBox="0 0 100 125" style="enable-background:new 0 0 100 100;" xml:space="preserve"><path d="M81.1,35.9V20.6h-8.8l-11,12.3H49.7c0-0.1-0.1-0.2-0.1-0.2l3.3-3.3c0.7,0.4,1.5,0.6,2.3,0.6c1.3,0,2.6-0.5,3.6-1.5  l13.5-13.5l-7.2-7.2L51.6,21.2c-1.7,1.7-1.9,4.2-0.8,6.1l-3.2,3.2c-0.5-0.2-1.1-0.4-1.7-0.4s-1.2,0.1-1.7,0.4l-3.5-3.5  c0.9-1.9,0.6-4.3-0.9-5.9L26.1,7.7l-7.2,7.2l13.5,13.5c1,1,2.3,1.5,3.6,1.5c0.9,0,1.7-0.2,2.5-0.7l3.4,3.4c-0.2,0.5-0.4,1.1-0.4,1.7  s0.1,1.2,0.4,1.7l-3.4,3.4c-1.9-1.1-4.4-0.8-6.1,0.8L18.9,53.9l7.2,7.2l13.5-13.5c1.6-1.6,1.9-4,0.9-5.9l3.5-3.5c0,0,0,0,0.1,0v12.3  h-2.9l-1,4.6h-0.7c-0.8,0-1.5,0.7-1.5,1.5s0.7,1.5,1.5,1.5h0.1L37.4,68h-0.1c-0.8,0-1.5,0.7-1.5,1.5c0,0.7,0.4,1.2,1,1.4l-2.1,9.4  h-0.8c-0.8,0-1.5,0.7-1.5,1.5s0.7,1.5,1.5,1.5H34l-1.6,7.1c-0.2,0.8,0.3,1.6,1.1,1.8c0.8,0.2,1.6-0.3,1.8-1.1l1.7-7.8h17.1l1.7,7.8  c0.2,0.7,0.8,1.2,1.5,1.2c0.1,0,0.2,0,0.3,0c0.8-0.2,1.3-1,1.1-1.8l-1.6-7.1h0.2c0.8,0,1.5-0.7,1.5-1.5s-0.7-1.5-1.5-1.5h-0.8  L54.4,71c0.6-0.2,1.1-0.8,1.1-1.4c0-0.8-0.7-1.5-1.5-1.5h-0.2l-2.2-9.8h0.2c0.8,0,1.5-0.7,1.5-1.5s-0.7-1.5-1.5-1.5h-0.8l-1-4.6  h-2.8V38.4c0.1,0,0.3-0.1,0.4-0.2l3.2,3.2c-1.1,1.9-0.8,4.4,0.8,6.1l13.5,13.5l7.2-7.2L58.8,40.4c-1.6-1.6-4-1.9-5.9-0.9l-3.3-3.3  c0-0.1,0.1-0.2,0.1-0.2H81.1z M53.7,23.3l11.4-11.4l3,3L56.7,26.3c-0.8,0.8-2,0.8-2.8,0.1c0,0,0,0,0,0c0,0-0.1,0-0.1-0.1  c-0.4-0.4-0.6-0.9-0.6-1.5C53.1,24.2,53.3,23.7,53.7,23.3z M34.5,26.3L23.1,14.9l3-3l11.4,11.4c0.4,0.4,0.6,0.9,0.6,1.5  c0,0.5-0.2,1-0.5,1.3c0,0,0,0-0.1,0c0,0,0,0.1-0.1,0.1C36.7,27.1,35.3,27.1,34.5,26.3z M37.5,45.5L26.1,56.9l-3-3l11.4-11.4  c0.8-0.8,2.2-0.8,3,0c0,0,0,0.1,0.1,0.1c0,0,0,0,0.1,0c0.3,0.4,0.5,0.8,0.5,1.3C38.1,44.5,37.9,45.1,37.5,45.5z M37.7,80.3l2.1-9.3  h11.6l2.1,9.3H37.7z M50.7,68H40.4l2.2-9.8h5.9L50.7,68z M47.5,53.6l0.4,1.6h-4.5l0.4-1.6H47.5z M56.7,42.5l11.4,11.4l-3,3  L53.7,45.5c-0.4-0.4-0.6-0.9-0.6-1.5c0-0.6,0.2-1.1,0.6-1.5c0,0,0.1,0,0.1-0.1c0,0,0,0,0-0.1c0.4-0.3,0.8-0.5,1.3-0.5  C55.8,41.9,56.3,42.1,56.7,42.5z M44.5,34.4c0-0.7,0.6-1.2,1.2-1.2s1.2,0.6,1.2,1.2s-0.6,1.2-1.2,1.2S44.5,35.1,44.5,34.4z   M78.1,23.6v9.3H65.3l8.3-9.3H78.1z"/><text x="0" y="115" fill="#000000" font-size="5px" font-weight="bold" font-family="'Helvetica Neue', Helvetica, Arial-Unicode, Arial, Sans-serif">Created by Tomasz Pasternak</text><text x="0" y="120" fill="#000000" font-size="5px" font-weight="bold" font-family="'Helvetica Neue', Helvetica, Arial-Unicode, Arial, Sans-serif">from the Noun Project</text></svg>