<?xml version="1.0" encoding="iso-8859-1"?>
<!-- Generator: Adobe Illustrator 19.0.0, SVG Export Plug-In . SVG Version: 6.00 Build 0)  -->
<svg version="1.1" id="Capa_1" xmlns="http://www.w3.org/2000/svg" xmlns:xlink="http://www.w3.org/1999/xlink" x="0px" y="0px"
	 viewBox="0 0 512 512" style="enable-background:new 0 0 512 512;" xml:space="preserve">
<g>
	<g>
		<path d="M245.768,112.226c-4.142,0-7.5,3.358-7.5,7.5c0,4.705-3.828,8.532-8.532,8.532s-8.532-3.827-8.532-8.532
			c0-3.037,1.637-5.871,4.271-7.395c3.585-2.074,4.811-6.662,2.737-10.248c-2.074-3.585-6.663-4.811-10.248-2.737
			c-7.254,4.196-11.76,12.005-11.76,20.379c0,12.976,10.557,23.532,23.532,23.532s23.532-10.556,23.532-23.532
			C253.268,115.584,249.91,112.226,245.768,112.226z"/>
	</g>
</g>
<g>
	<g>
		<path d="M391.591,77.682c-3.792-2.961-8.647-3.99-13.312-2.823l-34.547,8.637c-2.668-8.45-6.128-16.388-10.311-23.633
			c-4.729-8.191-10.681-16.024-17.689-23.281c-1.382-1.431-3.277-2.254-5.267-2.289c-1.978-0.033-3.911,0.724-5.342,2.107
			l-6.256,6.049c-10.683-9.563-23.204-16.804-36.768-21.258l2.104-8.416c0.483-1.931,0.178-3.974-0.846-5.68
			c-1.024-1.706-2.685-2.935-4.616-3.417C248.951,1.238,239.191,0,229.735,0s-19.215,1.238-29.007,3.679
			c-1.931,0.481-3.591,1.71-4.616,3.417c-1.024,1.706-1.329,3.75-0.846,5.68l2.105,8.419c-13.558,4.452-26.076,11.69-36.764,21.258
			l-6.26-6.053c-1.431-1.383-3.343-2.142-5.342-2.107c-1.99,0.034-3.884,0.857-5.267,2.289c-7.01,7.259-12.961,15.091-17.689,23.281
			c-4.729,8.19-8.537,17.261-11.317,26.96c-0.548,1.913-0.314,3.965,0.651,5.705c0.965,1.74,2.583,3.025,4.496,3.573l8.353,2.39
			c-1.447,6.956-2.19,14.074-2.19,21.235c0,7.162,0.743,14.279,2.191,21.235l-8.353,2.39c-1.914,0.547-3.531,1.832-4.496,3.572
			c-0.965,1.74-1.199,3.793-0.651,5.706c2.781,9.7,6.589,18.77,11.317,26.96c4.728,8.189,10.68,16.022,17.689,23.281
			c1.382,1.431,3.277,2.255,5.267,2.289c0.043,0,0.085,0.001,0.128,0.001c1.944,0,3.813-0.755,5.213-2.108l6.258-6.051
			c10.676,9.553,23.213,16.799,36.767,21.252l-2.106,8.423c-0.483,1.931-0.178,3.974,0.846,5.68c0.959,1.597,2.48,2.768,4.254,3.307
			l-6.916,36.885h-11.812c-4.142,0-7.5,3.358-7.5,7.5c0,4.142,3.358,7.5,7.5,7.5h8.999L151.366,497h-25.84
			c-4.142,0-7.5,3.358-7.5,7.5c0,4.142,3.358,7.5,7.5,7.5h208.419c4.142,0,7.5-3.358,7.5-7.5c0-4.142-3.358-7.5-7.5-7.5h-25.84
			l-39.272-209.452h8.999c4.142,0,7.5-3.358,7.5-7.5c0-4.142-3.358-7.5-7.5-7.5H266.02l-6.916-36.885
			c1.774-0.539,3.295-1.71,4.254-3.307c1.024-1.706,1.329-3.749,0.846-5.68l-2.105-8.421c13.561-4.454,26.09-11.693,36.77-21.251
			l6.255,6.048c1.4,1.354,3.27,2.108,5.213,2.108c0.042,0,0.085,0,0.128-0.001c1.99-0.034,3.884-0.857,5.267-2.289
			c7.009-7.258,12.96-15.091,17.689-23.281c4.183-7.246,7.643-15.183,10.311-23.633l34.547,8.637c1.261,0.315,2.535,0.47,3.798,0.47
			c3.413,0,6.746-1.132,9.514-3.293c3.792-2.961,5.967-7.419,5.967-12.23V89.912C397.558,85.101,395.383,80.643,391.591,77.682z
			 M258.449,35.793c10.86,3.715,20.917,9.528,29.601,17.115l-23.953,23.161c-4.143-3.269-8.758-5.959-13.729-7.953L258.449,35.793z
			 M229.735,224.452c-5.886,0-11.927-0.556-18.037-1.657l11.953-47.812c1.999,0.219,4.027,0.339,6.084,0.339
			s4.084-0.121,6.084-0.339l11.953,47.812C241.662,223.896,235.621,224.452,229.735,224.452z M250.759,272.548h-13.524v-33.357
			c2.367-0.159,4.747-0.392,7.138-0.701L250.759,272.548z M222.236,239.192v33.357h-13.523l6.385-34.058
			C217.489,238.8,219.869,239.033,222.236,239.192z M229.735,160.322c-22.385,0-40.597-18.211-40.597-40.597
			c0-22.385,18.211-40.597,40.597-40.597c22.386,0,40.597,18.212,40.597,40.597C270.332,142.111,252.121,160.322,229.735,160.322z
			 M229.735,15c5.886,0,11.927,0.556,18.037,1.656l-11.953,47.813c-1.999-0.219-4.027-0.34-6.084-0.34s-4.084,0.121-6.084,0.34
			l-11.953-47.813C217.809,15.556,223.85,15,229.735,15z M201.022,35.795l8.08,32.32c-4.97,1.994-9.585,4.685-13.729,7.953
			l-23.959-23.166C180.104,45.311,190.166,39.509,201.022,35.795z M139.04,67.363c2.943-5.097,6.445-10.051,10.453-14.792
			l35.447,34.274c-2.396,3.256-4.442,6.783-6.091,10.523l-47.393-13.557C133.558,77.97,136.097,72.46,139.04,67.363z
			 M174.715,127.665l-32.024,9.161c-1.094-5.608-1.649-11.337-1.649-17.1s0.555-11.492,1.649-17.099l32.024,9.161
			c-0.373,2.595-0.576,5.243-0.576,7.938C174.139,122.422,174.342,125.071,174.715,127.665z M149.493,186.88
			c-4.008-4.74-7.51-9.694-10.453-14.791c-2.943-5.098-5.482-10.607-7.584-16.448l47.393-13.558
			c1.65,3.741,3.695,7.268,6.091,10.523L149.493,186.88z M171.419,186.545l23.955-23.162c4.143,3.268,8.758,5.958,13.729,7.953
			l-8.083,32.332C190.166,199.953,180.1,194.126,171.419,186.545z M222.235,497h-55.608l19.733-105.242h35.875V497z M292.843,497
			h-55.608V391.758h35.875L292.843,497z M270.298,376.758h-33.063v-48.613c0-4.142-3.358-7.5-7.5-7.5c-4.142,0-7.5,3.358-7.5,7.5
			v48.613h-33.063l16.727-89.209h16.336v8.53c0,4.142,3.358,7.5,7.5,7.5c4.142,0,7.5-3.358,7.5-7.5v-8.53h16.336L270.298,376.758z
			 M258.451,203.664l-8.082-32.328c4.97-1.994,9.585-4.685,13.729-7.953l23.953,23.16
			C279.367,194.127,269.308,199.948,258.451,203.664z M320.431,172.089c-2.943,5.098-6.445,10.052-10.453,14.792l-35.447-34.274
			c2.396-3.256,4.442-6.783,6.092-10.523l47.392,13.558C325.913,161.481,323.374,166.991,320.431,172.089z M284.756,111.787
			l32.019-9.159c1.094,5.607,1.654,11.333,1.654,17.098c0,5.764-0.554,11.493-1.648,17.1l-32.026-9.161
			c0.373-2.594,0.576-5.243,0.576-7.939C285.332,117.03,285.129,114.382,284.756,111.787z M280.623,97.369
			c-1.65-3.74-3.695-7.267-6.092-10.523l35.447-34.274c4.007,4.739,7.509,9.693,10.453,14.791
			c2.943,5.098,5.482,10.607,7.584,16.449L280.623,97.369z M382.559,149.54L382.559,149.54c-0.001,0.076-0.001,0.252-0.2,0.407
			c-0.198,0.155-0.369,0.113-0.443,0.094l-50.025-12.506c1.014-5.86,1.538-11.819,1.538-17.809c0-5.991-0.519-11.949-1.533-17.809
			l50.021-12.505c0.074-0.019,0.245-0.061,0.443,0.094c0.199,0.155,0.199,0.332,0.199,0.407V149.54z"/>
	</g>
</g>
<g>
</g>
<g>
</g>
<g>
</g>
<g>
</g>
<g>
</g>
<g>
</g>
<g>
</g>
<g>
</g>
<g>
</g>
<g>
</g>
<g>
</g>
<g>
</g>
<g>
</g>
<g>
</g>
<g>
</g>
</svg>
