<?xml version="1.0" encoding="utf-8"?>
<!-- Generator: Adobe Illustrator 25.3.1, SVG Export Plug-In . SVG Version: 6.00 Build 0)  -->
<svg version="1.1" id="Layer_1" xmlns="http://www.w3.org/2000/svg" xmlns:xlink="http://www.w3.org/1999/xlink" x="0px" y="0px"
	 viewBox="0 0 595.28 183.32" style="enable-background:new 0 0 595.28 183.32;" xml:space="preserve">
<style type="text/css">
	.st0{fill:#58595B;}
	.st1{fill:#BE1E2D;}
	.st2{fill:#BE1E2D;stroke:#58595B;stroke-width:0.8918;stroke-miterlimit:10;}
</style>
<path d="M145.45,36.3c-0.02-0.14,0-0.34-0.08-0.4c-0.76-0.6-1.53-1.18-2.3-1.75c-0.11-0.08-0.29-0.08-0.43-0.11
	c0,0,0.06-0.05,0.06-0.05c0.59,0.64,1.18,1.29,1.79,1.92c0.27,0.27,0.62,0.39,1.02,0.34C145.5,36.25,145.45,36.3,145.45,36.3z"/>
<path d="M100.69,33.14c-0.67,0.01-1.2,0.21-1.41,0.89l-0.05-0.04c0.74,0.1,1.23-0.17,1.4-0.9L100.69,33.14z"/>
<path d="M153.92,29.97c-0.15,0.03-0.3,0.05-0.44,0.11c-0.23,0.1-0.28,0.31-0.14,0.52c0.13,0.2,0.32,0.29,0.57,0.24
	c0,0-0.06,0.05-0.06,0.05c0-0.32,0-0.65,0-0.97L153.92,29.97z"/>
<path d="M148.72,91.72c0.31-0.01,0.48-0.16,0.48-0.47c0,0,0.05,0.04,0.05,0.04c-0.18,0-0.37,0-0.55,0c0,0,0.07-0.04,0.07-0.04
	c0,0.17,0,0.34,0,0.52L148.72,91.72z"/>
<path d="M148.28,91.72c0.04,0.17,0.08,0.35,0.31,0.3c0.06-0.02,0.08-0.19,0.12-0.29c0,0,0.05,0.05,0.05,0.05c-0.18,0-0.36,0-0.54,0
	L148.28,91.72z"/>
<path d="M89.01,94.88c-0.03,0.16,0.02,0.23,0.15,0.18c0.01,0,0-0.11-0.02-0.12c-0.05-0.02-0.11-0.01-0.17-0.02
	C88.96,94.93,89.01,94.88,89.01,94.88z"/>
<polygon points="101.1,96.31 101.07,96.2 101.16,96.26 "/>
<path d="M86.59,97.23c0.05,0.03,0.1,0.07,0.15,0.08c0.02,0.01,0.08-0.07,0.08-0.07c-0.09-0.11-0.18-0.09-0.26,0.04
	C86.55,97.29,86.59,97.23,86.59,97.23z"/>
<path d="M98.81,34.5c-0.31,0-0.46,0.15-0.47,0.45c0,0-0.04-0.05-0.04-0.05c0.35,0.03,0.48-0.14,0.47-0.45L98.81,34.5z"/>
<path d="M99.29,34.03c-0.31,0.01-0.47,0.16-0.47,0.46c0,0-0.05-0.05-0.05-0.05c0.32,0.01,0.5-0.12,0.47-0.45L99.29,34.03z"/>
<path d="M110,55.24c-0.09-0.2-0.18-0.43-0.46-0.4c-0.26,0.03-0.34,0.25-0.38,0.47c-0.01,0.07-0.02,0.15-0.04,0.22
	c-0.02,0.07-0.05,0.14-0.07,0.21c0,0-0.05-0.07-0.05-0.07c0.35-0.16,0.69-0.32,1.04-0.48L110,55.24z"/>
<path d="M98.37,52.48c-0.19,0-0.37,0-0.56,0.01C98.13,52.91,98.14,52.91,98.37,52.48z"/>
<path d="M94.16,50.23c-0.18,0-0.36,0-0.54,0c0.03,0.31,0.27,0.42,0.53,0.51C94.15,50.57,94.15,50.4,94.16,50.23z"/>
<path d="M102.49,82.76l0.04-0.04c0,0-0.06,0.1-0.06,0.1C102.47,82.83,102.49,82.76,102.49,82.76z"/>
<polygon points="100.22,84.5 100.27,84.61 100.16,84.55 "/>
<path d="M138.51,45.35c0-0.33-0.01-0.66-0.01-0.99c-0.13,0.07-0.27,0.13-0.38,0.22c-0.2,0.17-0.2,0.36,0.01,0.55
	C138.23,45.22,138.38,45.27,138.51,45.35z"/>
<path d="M140.37,43.08c0-0.33,0-0.65,0-0.98c-0.06,0.04-0.13,0.06-0.18,0.11C139.74,42.64,139.76,42.73,140.37,43.08z"/>
<path d="M143.17,85.41c-0.18,0-0.35,0-0.53,0c0,0.07,0.02,0.15,0,0.21c-0.15,0.46,0.14,0.63,0.52,0.75
	C143.16,86.05,143.17,85.73,143.17,85.41z"/>
<path d="M141.37,84.62c-0.05-0.02-0.15-0.06-0.15-0.05c-0.07,0.13-0.03,0.13,0.1-0.02C141.32,84.56,141.37,84.62,141.37,84.62z"/>
<g>
	<path class="st0" d="M96.46,89.01c0.98,1.27,2.35,2.15,3.56,3.18c0.59,0.5,1.3,0.81,2.09,0.9c0,0-0.07,0.05-0.07,0.05
		c-0.08-0.12-0.14-0.28-0.25-0.36c-0.94-0.64-1.86-1.3-2.7-2.06c-0.55-0.5-1.2-0.91-1.83-1.32c-0.24-0.16-0.55-0.23-0.83-0.33
		L96.46,89.01z"/>
	<path class="st1" d="M128.23,54.3c-0.17-0.02-0.37-0.12-0.49-0.06c-0.39,0.19-0.63,0.06-0.91-0.2c-0.21-0.2-0.46-0.13-0.55,0.11
		c-0.08,0.21-0.12,0.43-0.21,0.64c-0.04,0.08-0.16,0.16-0.25,0.17c-0.1,0.01-0.25-0.04-0.3-0.11c-0.11-0.19-0.17-0.41-0.27-0.61
		c-0.04-0.08-0.17-0.19-0.24-0.18c-0.21,0.04-0.21,0.22-0.2,0.39c0,0.06,0.02,0.11,0.02,0.17c-0.01,0.09-0.01,0.18-0.01,0.27
		c0.01,0,0.02,0,0.02,0c0-0.1,0-0.21,0-0.31c-0.29,0.03-0.59,0.03-0.88,0.1c-0.22,0.05-0.44,0.17-0.5,0.43
		c-0.07,0.34-0.14,0.67-0.23,1c-0.11,0.4-0.26,0.46-0.82,0.42c-0.11-0.01-0.23,0-0.41,0c-0.05,0.19-0.09,0.41-0.19,0.61
		c-0.07,0.14-0.19,0.34-0.33,0.37c-0.52,0.11-1.02,0.25-1.52,0.43c-0.07,0.02-0.23-0.08-0.28-0.16c-0.09-0.14-0.17-0.31-0.17-0.48
		c-0.02-0.34,0.02-0.68,0.03-1.02c0.01-0.33-0.3-0.5-0.63-0.34c-0.1,0.05-0.18,0.15-0.28,0.21c-0.21,0.12-0.48,0-0.54-0.23
		c-0.04-0.16-0.1-0.33-0.1-0.5c0-0.23,0.05-0.46,0.06-0.68c0.01-0.18-0.08-0.32-0.26-0.4c-0.15-0.06-0.37,0.04-0.43,0.2
		c-0.08,0.21-0.14,0.44-0.21,0.65c-0.05,0.13-0.35,0.12-0.46,0.02c-0.23-0.22-0.24-0.51-0.28-0.79c-0.07-0.45-0.17-0.52-0.54-0.29
		c-0.23,0.14-0.41,0.15-0.65,0.04c-0.54-0.24-0.55-0.23-0.91,0.29c0,0,0.08-0.06,0.08-0.06l-0.05,0c-0.06,0-0.12,0.01-0.18,0
		c-1.06-0.2-1.09-0.21-1.25,0.76c-0.07,0.44-0.33,0.56-0.69,0.62l0.03-0.05c-0.19,0.28-0.34,0.62-0.79,0.37l0.04,0.06
		c-0.48,0.07-0.74,0.32-0.73,0.8c0.01,0.38-0.32,0.4-0.62,0.54c0.02,0.55,0.03,1.12,0.07,1.68c0.05,0.85,0.16,1.7,0.02,2.56
		c-0.04,0.23,0,0.48,0.2,0.63c0.42,0.33,0.46,0.76,0.46,1.23c0,0.16,0.06,0.37,0.18,0.45c0.35,0.26,0.43,0.69,0.69,0.97
		c0.38,0.41,0.51,1.04,1.12,1.26c0.32,0.41,0.64,0.82,0.98,1.25c0.15-0.16,0.29-0.34,0.46-0.48c0.04-0.04,0.27,0.03,0.28,0.08
		c0.06,0.28,0.09,0.56,0.11,0.84c0.02,0.33,0.24,0.5,0.49,0.66c0.31,0.2,0.51-0.16,0.81-0.16c0.1,0.26,0.2,0.52,0.3,0.78
		c0.37-0.19,0.52-0.21,0.57-0.04c0.19,0.57,0.51,1.01,1.18,1.08c0.22,0.02,0.27,0.19,0.37,0.33c0.1,0.13,0.23,0.25,0.36,0.36
		c0.21,0.16,0.45,0.11,0.56-0.11c0.27-0.52,0.27-0.52,0.9-0.42c0-0.12-0.23-0.23-0.01-0.34c0,0.11,0.01,0.22,0.01,0.32
		c-0.29,0.65-0.29,0.66,0.44,1.05c0.09-0.34,0.17-0.67,0.28-0.98c0.03-0.08,0.19-0.16,0.28-0.16c0.07,0,0.17,0.13,0.2,0.22
		c0.06,0.22,0.06,0.45,0.12,0.67c0.04,0.14,0.16,0.14,0.29,0.1c0.33-0.11,0.39-0.38,0.49-0.65c0.1-0.28,0.22-0.28,0.53-0.06
		c0.09,0.06,0.18,0.12,0.29,0.18c0.21-0.19,0.43-0.39,0.65-0.58c0.13-0.12,0.27-0.23,0.46-0.18c0.32,0.09,0.58-0.05,0.83-0.21
		c0.29-0.19,0.22-0.5,0.27-0.78c0.04-0.24,0.11-0.26,0.46-0.09c0.19,0.09,0.35,0.06,0.47-0.06c0.53-0.53,1.07-1.05,1.63-1.56
		c0.12-0.11,0.25-0.27,0.27-0.43c0.06-0.39,0.19-0.65,0.65-0.63c0.39-0.42,0.86-0.79,0.84-1.43c-0.01-0.4-0.01-0.8,0-1.2
		c0.01-0.21,0.07-0.42,0.12-0.66c0.45,0.39,0.2,0.92,0.45,1.31c0.02,0.03,0.09,0.06,0.14,0.06c0.05,0,0.14-0.03,0.15-0.06
		c0.15-0.77,0.77-1.42,0.64-2.27c-0.05-0.29,0.14-0.55,0.37-0.75c0.16-0.13,0.21-0.3,0.17-0.46c-0.12-0.45-0.1-0.88,0.01-1.34
		c0.13-0.58-0.06-1.12-0.41-1.62c-0.29-0.42-0.7-0.8-0.65-1.38c0.01-0.17-0.07-0.32-0.27-0.39c-0.17-0.05-0.34-0.1-0.49-0.18
		c-0.21-0.11-0.4-0.25-0.65-0.41c-0.02-0.3-0.04-0.63-0.07-1.01c-0.33-0.08-0.66-0.16-0.99-0.23
		C128.22,54.28,128.22,54.29,128.23,54.3z M119.47,67.13c0.07,0,0.15-0.01,0.22-0.01c0.07,0.26,0.14,0.52,0.19,0.79
		c0.01,0.04-0.06,0.13-0.07,0.13c-0.09-0.03-0.25-0.05-0.26-0.11C119.52,67.66,119.5,67.39,119.47,67.13z M118.11,65.08
		c0.02,0,0.04,0,0.06,0c0.01,0.16,0.02,0.33,0.03,0.49c0,0.05-0.02,0.11-0.03,0.16c-0.03-0.08-0.08-0.16-0.09-0.25
		C118.07,65.36,118.1,65.22,118.11,65.08z M126.38,66.77c-0.04,0.13-0.14,0.2-0.25,0.14c-0.08-0.05-0.13-0.18-0.13-0.27
		c0-0.13,0.13-0.2,0.24-0.13C126.32,66.55,126.34,66.68,126.38,66.77z M113.59,55.73c-0.05-0.03-0.13-0.06-0.13-0.09
		c-0.02-0.11-0.04-0.24,0.01-0.33c0.06-0.12,0.21-0.1,0.26,0.03c0.04,0.09,0.02,0.22,0,0.32C113.73,55.69,113.64,55.71,113.59,55.73
		z M124.15,62.91c0.03,0.01,0.09,0.01,0.1,0.02c0.05,0.17,0,0.23-0.09,0.14C124.12,63.04,124.15,62.96,124.15,62.91z M115.33,62.2
		c0.01,0.05,0.04,0.1,0.03,0.15c-0.02,0.17-0.08,0.18-0.14,0.02c-0.02-0.04-0.01-0.1,0.01-0.15
		C115.23,62.2,115.29,62.21,115.33,62.2z M117.33,62.08c0.02-0.09,0.03-0.18,0.05-0.27c0.03,0.02,0.1,0.04,0.1,0.07
		c0,0.09-0.03,0.18-0.04,0.27C117.4,62.12,117.36,62.1,117.33,62.08z M122.73,61.14c0.02,0.04,0.06,0.08,0.07,0.13
		c0.01,0.05-0.02,0.1-0.03,0.15c-0.03-0.04-0.07-0.08-0.07-0.13C122.69,61.24,122.72,61.19,122.73,61.14z M120.86,58.94
		c-0.01-0.13,0.05-0.21,0.16-0.19c0.04,0.01,0.09,0.08,0.09,0.11c-0.01,0.09-0.05,0.18-0.08,0.27c-0.04-0.02-0.1-0.02-0.13-0.05
		C120.87,59.05,120.87,58.99,120.86,58.94z M118.78,68.73l0.04-0.13l0.07,0.1L118.78,68.73z M120.95,68.41l0.03-0.12l0.06,0.09
		L120.95,68.41z M123.06,68.41c0-0.04-0.02-0.11,0-0.13c0.09-0.08,0.16-0.04,0.17,0.08c0,0.03-0.04,0.09-0.07,0.1
		C123.14,68.47,123.09,68.43,123.06,68.41z M117.33,67.34l0.1-0.08l0,0.15L117.33,67.34z M115.92,66.04c0-0.05-0.02-0.11,0-0.16
		c0-0.01,0.08-0.01,0.13-0.01c0,0.05,0.02,0.11,0.01,0.16C116.05,66.04,115.97,66.03,115.92,66.04z M120.34,65.98l-0.11-0.03
		l0.07-0.11L120.34,65.98z M129.95,58.7l-0.06,0.06l0-0.11L129.95,58.7z M118.82,63.46l0.07,0.13l-0.11,0.02L118.82,63.46z
		 M121.38,60.39l-0.03,0.11l-0.05-0.08L121.38,60.39z"/>
	<g>
		<path class="st0" d="M51.1,70.97c-0.01,0-0.03,0.01-0.04,0.01C51.16,71,51.22,70.99,51.1,70.97z"/>
		<path class="st0" d="M51.1,70.97C51.31,70.93,50.89,70.92,51.1,70.97L51.1,70.97z"/>
		<path class="st0" d="M36.21,48.4c0.15-0.07-0.83-0.05-1.08-0.01C35.5,48.58,35.83,48.58,36.21,48.4z"/>
		<path class="st0" d="M101.15,96.1c0.02-0.02,0.04-0.04,0.06-0.05c0,0,0,0,0,0L101.15,96.1z"/>
		<path class="st0" d="M100.27,84.29c-0.02,0.01-0.03,0.02-0.05,0.02c0,0.01,0,0.02,0,0.03L100.27,84.29z"/>
		<path class="st0" d="M102.1,92.93c0.02-0.02,0.05-0.03,0.07-0.05c0,0,0,0,0-0.01L102.1,92.93z"/>
		<path class="st0" d="M96.52,88.8c-0.02,0-0.03,0.01-0.05,0.01c0,0.02,0.01,0.03,0.01,0.05L96.52,88.8z"/>
		<path class="st0" d="M114.1,110.62l10.81,0.1c-0.02-0.14-0.04-0.28-0.06-0.43l-9.82-0.02c-0.01,0.06-0.03,0.11-0.04,0.17
			C114.69,110.49,114.38,110.53,114.1,110.62z"/>
		<path class="st0" d="M153.97,29.76C153.97,29.76,153.97,29.75,153.97,29.76c-0.02-0.02-0.05-0.04-0.07-0.05L153.97,29.76z"/>
		<path class="st0" d="M115.44,107.81c0.44-0.59-0.01-1.36,0.37-1.94c0.5-0.75,0.24-1.26-0.42-1.71c-0.18-0.12-0.19-0.24-0.02-0.33
			c0.07-0.01,0.14-0.04,0.21-0.04c0.15-0.01,0.31,0.02,0.46,0c0.3-0.04,0.52-0.4,0.42-0.68c-0.05-0.14-0.1-0.29-0.2-0.39
			c-0.33-0.36-0.27-0.62,0.12-0.9c0.17-0.12,0.36-0.41,0.32-0.57c-0.16-0.68,0.33-1.31,0.13-1.98c-0.08-0.28-0.24-0.55,0.12-0.87
			c2.25-0.01,4.56-0.02,6.87-0.01l-0.08-0.71c-1.73,0.02-3.45,0.05-5.18,0.05c-0.57,0-1.06-0.48-1.03-1
			c0.03-0.66-0.01-1.36,0.19-1.97c0.14-0.44,0.35-0.85,0.17-1.27c-0.25-0.58,0.51-0.7,0.48-1.15c-0.01-0.22,0.01-0.46-0.08-0.65
			c-0.14-0.28-0.25-0.54-0.03-0.82c0.41-0.51,0.3-1.08,0.31-1.67c0-0.41,0.3-0.82,0.13-1.29c-0.23-0.62,0.53-0.85,0.63-1.35
			c0.04-0.22,0.03-0.45,0.08-0.66c0.13-0.59-0.25-1.14-0.09-1.74c0.05-0.19-0.1-0.42-0.13-0.64c-0.02-0.13-0.03-0.31,0.04-0.4
			c0.56-0.64,1.11-1.26,2.14-1.04c0.2,0.04,0.4,0.12,0.6,0.23l-0.11-0.97c-0.31,0.05-0.62,0.09-0.93,0.14
			c0-0.03-0.01-0.06-0.01-0.09c-0.47,0-0.94,0.05-1.4-0.01c-0.38-0.05-0.73-0.25-1.1-0.35c-0.29-0.07-0.6-0.1-0.9-0.13
			c-0.3-0.03-0.62-0.01-0.91-0.07c-2.36-0.55-4.56-1.44-6.59-2.75c-0.52-0.34-1.02-0.68-1.42-1.14c-0.94-1.09-1.9-2.18-2.83-3.28
			c-0.44-0.52-0.82-1.08-1.09-1.72c-0.65-1.53-1.32-3.04-2.01-4.55c-0.29-0.63-0.43-1.27-0.43-1.96c0-0.6,0.02-1.22-0.16-1.78
			c-0.42-1.27-0.31-2.52-0.01-3.78c0.26-1.09,0.63-2.16,0.85-3.26c0.2-0.98,0.6-1.85,1.21-2.64c0.74-0.97,1.32-2.03,1.84-3.12
			c0.33-0.69,0.69-1.33,1.51-1.62c0.25-0.09,0.42-0.42,0.62-0.64c0.2-0.23,0.35-0.53,0.59-0.68c1.1-0.69,1.99-1.7,3.37-1.95
			c0.22-0.04,0.43-0.18,0.63-0.29c1.29-0.75,2.82-0.81,4.17-1.38c0.13-0.05,0.32-0.04,0.46,0c0.56,0.15,1.08-0.01,1.6-0.17
			c1.45-0.44,2.89-0.38,4.36-0.07c1.05,0.23,2.07,0.57,3.17,0.63c0.91,0.05,1.83,0.35,2.68,0.7c1.07,0.44,2.08,1.01,3.08,1.59
			c0.66,0.38,1.29,0.85,1.86,1.35c0.4,0.35,0.63,0.86,1.02,1.22c0.44,0.42,0.98,0.73,1.44,1.13c0.29,0.25,0.55,0.54,0.76,0.85
			c0.91,1.41,1.66,2.89,2.08,4.51c0.4,1.52,0.7,3.07,1.15,4.58c0.22,0.74,0.5,1.49,0.21,2.19c-0.3,0.72-0.07,1.53-0.48,2.19
			c-0.63,1-0.9,2.1-1.18,3.21l1.28,0.22c0.08-0.25,0.16-0.5,0.23-0.75c0.56-0.21,1.08,0,1.6,0.05c0.22,0.02,0.48,0.1,0.67,0.03
			c0.39-0.15,0.65-0.2,1,0.14c0.28,0.27,0.75,0.01,1.11,0.06c0.44,0.05,0.85,0.3,1.28,0.38c0.2,0.04,0.44-0.1,0.67-0.15
			c0.26-0.06,0.38,0.11,0.56,0.25c0.59,0.45,0.78,0.4,1.56-0.25c0.73,1.08,0.84,1.11,1.91,0.5c0.78,0.48,1.52,1.08,2.56,0.66
			c0.1-0.04,0.32,0.04,0.4,0.14c0.53,0.63,1.1,0.34,1.67,0.08c0.37,0.35,0.74,0.69,1.12,1.04c-0.03,0.22-0.08,0.44-0.11,0.65
			l0.76,0.13c0.12-0.49,0.39-0.71,0.89-0.78c0.3-0.04,0.58-0.17,0.87-0.26c0.14-0.04,0.3-0.17,0.4-0.13
			c0.48,0.18,0.83,0.79,1.43,0.54c0.56-0.24,0.87,0.11,1.25,0.32c0.29,0.16,0.57,0.17,0.87,0.01c0.13-0.07,0.39-0.13,0.42-0.09
			c0.6,0.83,1.56,0.45,2.34,0.64c0.75,0.18,1.5,0.29,2.22,0.58c0.63,0.26,1.34,0.32,2.02,0.46c0.19,0.04,0.63-0.34,0.66-0.55
			c0.03-0.22,0.08-0.44,0.08-0.67c0.01-3.3,0.01-6.59,0.01-9.89c0-2.17-0.01-4.35-0.02-6.52c0-0.3-0.02-0.6-0.03-0.9
			c-0.02-0.27-0.34-0.55-0.65-0.51c-0.6,0.08-1.16,0.26-1.8,0.12c-0.35-0.08-0.71,0.23-0.83,0.65c-0.05,0.19-0.12,0.37-0.18,0.59
			c-0.52-0.41-0.94-0.87-1.67-0.62c-0.2,0.07-0.47,0.06-0.68,0c-0.89-0.27-1.3,0.09-1.43,0.92c-0.02,0.14-0.24,0.15-0.35,0.03
			c-0.1-0.11-0.14-0.27-0.24-0.38c-0.27-0.3-0.72-0.37-1.02-0.12c-0.23,0.19-0.42,0.43-0.62,0.64c-0.97-0.59-1.12-0.57-1.87,0.29
			c-0.27-0.2-0.27-0.76-0.84-0.57c-0.44,0.15-0.75-0.02-0.92-0.42c-0.14-0.34-0.24-0.71-0.39-1.05c-0.04-0.09-0.17-0.15-0.28-0.23
			c-0.13-0.92-0.21-1.85-0.43-2.75c-0.15-0.63-0.49-1.23-0.81-1.8c-0.32-0.58-0.23-1.08,0.15-1.56c0.15,0.01,0.3,0.02,0.45,0.04
			c0.33,0.05,0.61-0.03,0.79-0.32c0.11-0.18,0.13-0.5,0.43-0.45c0.59,0.11,1.04-0.21,1.53-0.41c0.5-0.2,0.65-0.6,0.55-1.1
			c-0.01-0.06,0.06-0.14,0.12-0.26c0.19,0.06,0.39,0.11,0.59,0.18c1.02,0.36,1.51,0.2,2.1-0.7c0.08-0.12,0.17-0.22,0.26-0.34
			c0.3,0.04,0.6,0.08,0.91,0.12c0.92-0.4,1.84-0.79,2.76-1.19c0.28-0.12,0.4-0.49,0.26-0.76c-0.1-0.2-0.19-0.41-0.33-0.58
			c-0.84-1.07-1.69-2.14-2.55-3.21c-0.86-1.07-1.64-2.18-2.36-3.34c-1-1.61-2.25-3.05-3.28-4.64c-0.61-0.94-1.5-1.71-2.27-2.56
			c-0.2-0.22-0.58-0.14-0.76,0.14c-0.26,0.41-0.14,1.07-0.85,1.22c-0.11,0.02-0.15,0.38-0.21,0.59c0.29,0.18,0.59,0.36,0.88,0.54
			c-0.25,0.28-0.6,0.33-0.95,0.39l0.06-0.05c-0.31,0.32-0.62,0.26-1.02,0.1c-0.51-0.22-0.73,0.03-0.7,0.7c0,0-0.09,0.1-0.09,0.1
			l0.03-0.15c-0.59,0.26-0.95,0.72-1.23,1.26c0.03,0,0.05-0.01,0.08-0.01c0.01,0.02,0.01,0.04,0.02,0.06
			c-0.19-0.07-0.39-0.2-0.58-0.2c-0.38,0-0.48,0.19-0.47,0.71c-0.03,0-0.04,0-0.06,0c0.01-0.02,0.01-0.04,0.02-0.07
			c-0.03,0.02-0.06,0.05-0.09,0.07c-0.02,0-0.03,0.01-0.03,0.02c-0.48,0.33-0.88,0.75-1.23,1.2c-0.01,0-0.01,0-0.02-0.01
			c0,0.01,0,0.02,0.01,0.02c-0.02,0.02-0.03,0.04-0.05,0.06c0.02-0.01,0.04-0.02,0.06-0.03c0.01,0.02,0.02,0.05,0.02,0.07
			c-0.43,0.11-0.67,0.54-1.16,0.6c-0.37,0.05-0.71,0.26-0.94,0.58c-0.24,0.34-0.65,0.26-0.98,0.36c0,0.13-0.01,0.26,0,0.4
			c0.01,0.46-0.06,0.87-0.54,1.11c-0.65,0.32-0.9,0.94-1.2,1.5c-0.13-0.01-0.31-0.07-0.36-0.02c-0.33,0.36-0.63,0.75-0.93,1.14
			c0.01,0,0.16-0.05,0.16-0.05l-0.11,0.06c-0.14,0.04-0.37,0.04-0.42,0.14c-0.15,0.26-0.22,0.51-0.59,0.61
			c-0.52,0.15-0.99,0.43-1.22,0.96c0.19,0.09,0.39,0.15,0.56,0.27c0.1,0.07,0.19,0.24,0.17,0.35c-0.01,0.08-0.2,0.15-0.32,0.19
			c-0.13,0.04-0.28,0.05-0.42,0.07c-0.05,0.67-0.1,0.71-0.5,0.45c-0.06-0.04-0.11-0.1-0.17-0.14c-0.35-0.21-0.6-0.2-0.75,0.08
			c-0.17,0.32-0.29,0.67-0.42,1c0.15-0.03,0.29-0.08,0.41-0.16c0.01,0.01,0.01,0.01,0.02,0.02c-0.02,0.01-0.04,0.02-0.07,0.03
			c0.16,0.43-0.17,0.7-0.36,1.02c-0.14,0.22-0.37,0.28-0.59,0.18c-0.57-0.25-1.03-0.2-1.39,0.35c-0.32,0.49-0.67,0.95-1,1.42
			c-0.29,0.03-0.59,0.04-0.87,0.09c-0.47,0.08-0.91,0.05-1.29-0.25c-0.18-0.14-0.35-0.28-0.54-0.41c-0.26-0.18-0.43-0.4-0.46-0.71
			c-0.03-0.3,0.04-0.56,0.21-0.8c0.3-0.25,0.4-0.53,0.2-0.9c-0.07-0.12-0.09-0.27-0.13-0.4c0,0-0.17,0-0.17,0l0.11-0.03
			c0.39,0.09,0.71,0.01,0.89-0.37c0.15-0.31,0.3-0.61,0.45-0.91c0.24-0.17,0.54-0.3,0.67-0.52c0.32-0.56,0.89-1.09,0.46-1.85
			c-0.03-0.06,0.09-0.26,0.19-0.32c0.77-0.48,0.95-1.32,1.35-2.03c0.14-0.25,0.16-0.56,0.23-0.85c0.09-0.41,0.6-0.42,0.78-0.76
			c0.33-0.58,0.74-1.13,0.63-1.85c-0.02-0.12,0.05-0.29,0.14-0.38c0.53-0.53,0.95-1.18,1.76-1.37c0.7,0.16,1.23,0.61,1.77,1.01
			c0.22,0.16,0.45,0.26,0.71,0.29c-0.7-0.73-1.4-1.45-2.15-2.22c-0.13-0.6,0.28-1.23,0.12-1.88c0.38-0.11,0.61-0.39,0.71-0.74
			c0.13-0.46,0.37-0.74,0.8-1c0.44-0.27,0.41-0.68,0.1-1.32c-0.12-0.25-0.01-0.34,0.24-0.43c0.83-0.33,0.85-0.41,0.64-1.32
			c0,0,0.08-0.08,0.08-0.08l-0.03,0.14c0.21-0.05,0.42-0.1,0.62-0.17c0.24-0.08,0.26-0.27,0.05-0.48c-0.08-0.08-0.19-0.13-0.29-0.18
			c0.02-0.02,0.04-0.04,0.06-0.06c0.02-0.01,0.03-0.02,0.02-0.02c0.22-0.25,0.46-0.48,0.63-0.76c0.32-0.5,0.58-1.01,1.1-1.4
			c0.5-0.38,0.38-1.07-0.14-1.32c-1.45-0.71-2.88-1.47-4.38-2.06c-1.43-0.56-2.95-0.92-4.42-1.37c-1.03-0.32-2.05-0.66-3.09-0.97
			c-1.4-0.42-2.81-0.82-4.23-1.21c-0.21-0.06-0.46-0.01-0.69,0.01c-0.34,0.03-0.62,0.24-0.69,0.52c-0.15,0.57-0.23,1.17-0.28,1.76
			c-0.01,0.19,0.16,0.41,0.28,0.59c0.38,0.6,0.39,0.6-0.28,0.75c-0.35,0.08-0.51,0.3-0.41,0.62c0.04,0.14,0.11,0.28,0.17,0.42
			c0.06,0.14,0.11,0.28,0.16,0.42c-0.41,0.24-0.81,0.5-0.68,1.04c0.11,0.47,0.03,0.86-0.26,1.25c-0.19,0.26-0.06,0.57,0.04,0.86
			c0.11,0.29,0.33,0.42,0.6,0.5c-0.17,0.13-0.34,0.26-0.51,0.39c-0.32,0.24-0.52,0.55-0.52,0.95c0,0.37,0,0.74-0.21,1.07
			c-0.17,0.26-0.37,0.52-0.69,0.54c-2.45,0.15-4.91,0.16-7.43,0.04c-0.03-0.54-0.01-0.97-0.09-1.38c-0.07-0.35-0.31-0.68-0.09-1.06
			c-0.16-0.79-0.43-1.56-0.44-2.37c-0.58-0.58-0.29-1.21-0.13-1.84c0.06-0.26-0.14-0.46-0.54-0.6c-0.14-0.05-0.28-0.09-0.47-0.16
			c0.14-0.17,0.3-0.31,0.4-0.48c0.1-0.19,0.17-0.41,0.21-0.62c0.08-0.38-0.36-0.65-0.23-1.05c0.09-0.28,0.16-0.57,0.21-0.86
			c0.04-0.24-0.31-0.57-0.61-0.52c-0.17,0.02-0.32,0.13-0.48,0.22c0.24-0.36,0.37-0.76,0.59-1.24c-1.17,0.12-2.13,0.22-3.1,0.54
			c-2.27,0.74-4.59,1.34-6.88,2.01c-1.04,0.3-2.07,0.61-3.1,0.95c-0.67,0.22-1.33,0.39-2.04,0.38c-1.03-0.01-1.96,0.37-2.86,0.82
			c-0.49,0.25-0.65,0.7-0.36,1.1c0.22,0.3,0.51,0.56,0.72,0.87c0.29,0.44,0.8,0.31,1.19,0.49c-0.41,0.28-0.68,0.62-0.63,1.13
			c0.01,0.14,0.08,0.39,0.15,0.4c0.58,0.06,0.6,0.6,0.9,0.89c0.14,0.14,0.4,0.17,0.53,0.23c-0.06,0.3-0.17,0.58-0.15,0.85
			c0.03,0.29,0.19,0.56,0.3,0.84c0.25,0.62,0.64,1.17,0.69,1.87c0.02,0.29,0.26,0.59,0.58,0.63c0.51,0.08,0.5,0.48,0.67,0.79
			c0.05,0.09,0.2,0.13,0.33,0.18c-0.12,0.56-0.23,1.12-0.34,1.66c-0.48,0.3-0.93,0.57-1.36,0.87c-0.23,0.16-0.39,0.39-0.42,0.68
			c0.7-0.06,1.24-0.49,1.86-0.74c0.4-0.16,0.74-0.06,1.03,0.25c0.36,0.39,0.39,1.01,0.96,1.23c0.13,0,0.25,0.01,0.37,0.01
			c-0.13,0-0.26,0.01-0.39,0.01c0.11,0.96,0.29,1.89,1.11,2.6c0.21-0.03,0.44-0.09,0.66-0.09c0.12,0,0.24,0.08,0.35,0.14
			c0.02,0.01,0,0.13-0.03,0.19c-0.04,0.06-0.1,0.11-0.16,0.16c-0.23,0.25-0.28,0.54-0.16,0.83c0.17,0.41,0.05,0.91,0.45,1.24
			c0.05,0.04,0.14,0.06,0.21,0.07c0.22,0.04,0.44,0.07,0.66,0.1c-0.13,0.52-0.29,0.96,0.01,1.51c0.35,0.63,0.98,1.15,0.94,1.99
			c-0.01,0.22,0.38,0.43,0.52,0.69c0.17,0.31,0.24,0.68,0.41,0.99c0.04,0.08,0.24,0.09,0.38,0.13c0.09,0.27,0.18,0.54,0.26,0.82
			c0.21,0.7,0.01,1.1-0.66,1.46c-0.57,0.3-1.14,0.48-1.78,0.26c-0.62-0.65-1.08-1.44-2.03-1.78c-0.4-0.15-0.82-0.52-1-0.89
			c-0.59-1.26-1.93-1.93-2.55-3.16c-0.12-0.24-0.44-0.42-0.7-0.58c-0.33-0.2-0.69-0.34-1.03-0.51c0.05,0.13,0.09,0.26,0.14,0.39
			c0.07,0.2,0.01,0.27-0.17,0.19c-0.01-0.01,0.04-0.12,0.04-0.19c0-0.12-0.01-0.25-0.02-0.37c0-0.56-0.66-0.75-0.75-1.27
			c-0.02-0.13-0.13-0.27-0.24-0.36c-0.16-0.13-0.35-0.22-0.53-0.33c-0.17-0.24-0.31-0.51-0.53-0.7c-0.23-0.19-0.54-0.29-0.8-0.44
			c-0.23-0.14-0.3-0.59-0.11-0.79c0.2-0.22,0.47-0.38,0.65-0.61c0.11-0.15,0.14-0.35,0.2-0.54c-0.62,0.03-1.04,0.45-1.47,0.74
			c-0.43,0.02-0.55-0.27-0.74-0.47c-1.12-1.16-1.12-1.16-2.64-1.95c-0.02,0.01-0.02,0.03-0.04,0.04c-0.01,0-0.02-0.01-0.03-0.01
			c0.03-0.06,0.08-0.18,0.08-0.18c-0.48-0.2-0.54-0.88-1.12-0.95c-0.13-0.33-0.22-0.7-0.43-0.98c-0.36-0.47-0.87-0.85-1.2-1.33
			c-0.3-0.44-0.66-0.8-1.04-1.18c-0.37-0.37-0.65-0.84-0.93-1.28c-0.44-0.69-1.25-0.5-1.57-0.1c-0.91,1.11-1.83,2.22-2.72,3.35
			c-0.89,1.13-1.76,2.28-2.63,3.42c-1.33,1.74-2.65,3.5-3.98,5.24c-0.41,0.54-0.86,1.05-1.25,1.61c-0.1,0.14-0.01,0.41-0.01,0.64
			c0.72-0.19,1.15-0.85,1.89-0.87c-0.1-0.36,0.02-0.68,0.14-1c-0.04,0.33-0.09,0.67-0.13,1c-0.64,0.38-0.79,1.03-0.94,1.66
			c-0.02,0.09,0.14,0.26,0.26,0.32c0.11,0.06,0.32,0.1,0.42,0.04c0.32-0.19,0.61-0.43,0.92-0.65c0,0,0.11,0.01,0.11,0.01l-0.16,0.04
			c0.06,0.52,0.11,1.03,0.68,1.31c0.41,0.2,0.78,0.46,1.17,0.7c0.36,0.23,0.71,0.18,1.09,0.04c0.25-0.09,0.4,0.03,0.41,0.32
			c0,0.14,0.06,0.37,0.14,0.39c0.66,0.18,1.13,0.78,1.86,0.76c0.22-0.01,0.56-0.16,0.64-0.07c0.24,0.28,0.48,0.48,0.83,0.64
			c0.3,0.13,0.14,0.68,0.57,0.85c0.25,0.1,0.44,0.35,0.65,0.54c-0.01,0.29,0.06,0.62-0.06,0.87c-0.67,1.36-1.17,2.75-1.34,4.26
			c-0.07,0.65-0.38,1.27-0.58,1.89c-0.12,0-0.21,0.02-0.27,0c-0.69-0.29-1.19-0.17-1.47,0.57c-0.09,0.25-0.32,0.22-0.41-0.07
			c-0.1-0.29-0.21-0.55-0.5-0.71c-0.37-0.21-0.73-0.13-0.95,0.26c-0.07,0.13-0.13,0.27-0.21,0.44c-0.21-0.32-0.38-0.65-0.61-0.93
			c-0.34-0.41-0.78-0.35-1.09,0.1c-0.07,0.11-0.17,0.2-0.25,0.3c-0.04-0.06-0.09-0.12-0.13-0.18c-0.45-0.74-0.72-0.83-1.43-0.37
			c-0.15,0.09-0.23,0.23-0.37,0.09c-0.1-0.1-0.16-0.25-0.23-0.37c-0.21-0.34-0.57-0.59-0.94-0.59c-0.51,0.01-0.41,0.52-0.52,0.85
			c-0.02,0.06-0.1,0.16-0.12,0.15c-0.12-0.05-0.3-0.1-0.34-0.2c-0.11-0.27-0.16-0.57-0.22-0.83c-0.82-0.17-1.57-0.33-2.32-0.48
			c-0.39-0.08-0.81,0.22-0.82,0.59c-0.03,1.5-0.05,3-0.06,4.5c0,0.37,0.02,0.75,0.01,1.12c-0.01,0.43-0.28,0.66-0.67,0.81
			c-0.73,0.29-1.5,0.36-2.23,0.13c-0.57-0.18-1.06-0.14-1.54,0.16c-0.23,0.14-0.44,0.06-0.64-0.05c-0.27-0.16-0.56-0.3-0.88-0.21
			c-1.66,0.48-3.16,0.04-4.62-0.71c-0.2-0.1-0.41-0.2-0.61-0.32c-0.05-0.03-0.08-0.14-0.07-0.2c0.02-0.19,0.15-0.24,0.35-0.18
			c0.14,0.04,0.31,0.04,0.46,0.03c0.19-0.02,0.34-0.19,0.23-0.31c-0.82-0.9-1.45-1.9-1.93-3c-0.11-0.25-0.39-0.48-0.66-0.6
			c-0.76-0.36-1.55-0.67-2.27-0.97c-0.67,0.22-1.22,0.47-1.85,0.08c-0.45-0.27-1-0.4-1.45-0.57c0,0-0.01,0-0.01,0
			c0.01-0.02,0.02-0.03,0.01,0c-0.63-0.72-1.81-0.88-2.83-0.87c-0.37,0.01-0.79-0.07-1.1-0.25c-0.89-0.5-1.93-0.56-2.85-0.95
			c-0.27-0.12-0.62-0.19-0.9-0.14c-0.65,0.13-1.22-0.03-1.79-0.28c-0.14-0.06-0.3-0.11-0.45-0.1c-0.44,0.04-0.86,0.33-1.33,0.05
			c-0.39-0.23-0.84-0.55-1.26-0.55c-0.58,0-1.13,0.33-1.78,0.01c-0.67-0.34-1.35-0.78-2.19-0.55c-0.65-0.24-1.3-0.49-1.95-0.71
			c-0.04-0.01-0.01-0.02,0.05-0.03c-0.01,0-0.01,0-0.02-0.01c-0.27-0.15-0.55-0.29-0.84-0.38c-0.21-0.06-0.5-0.12-0.67-0.02
			c-0.54,0.3-1.03,0.23-1.54-0.03c-0.34-0.18-0.69-0.34-1.04-0.5c-0.26-0.12-0.7-0.03-0.84,0.18c-0.17,0.28-0.21,0.61,0.01,0.84
			c0.28,0.28,0.54,0.51,0.36,0.95c-0.05,0.12-0.06,0.37,0.01,0.42c0.62,0.41,0.26,1.12,0.53,1.57c0.3,0.5-0.14,1.15,0.45,1.48
			c-0.02,0.28-0.05,0.57-0.08,0.88c0.4,0.68,0.52,0.18,1.01,0.76c0.04,0.05-0.97,0.03,0.2,0.41c-0.14,0.04,0.39,0.45,0.26,0.42
			c-0.37-0.07-0.73-0.2-1.1-0.27c-0.08-0.01-0.28,0.25-0.27,0.26c0.54,0.6,0.45,0.6,0.46,1.37c0.01,0.33-0.68,1.23-0.43,1.4
			c0.16,0.11,0.35,0.2,0.52,0.29c-0.02,0.01-0.03,0.03-0.05,0.04c-0.04,0-0.05,0.02-0.04,0.04c-0.36,0.33-0.66,0.67-0.45,1.24
			c0.15,0.42,0.13,0.91,0.34,1.3c0.21,0.39,0.09,0.66,0.01,1.02c-0.07,0.31-0.11,0.55-0.4,0.7c-0.06,0.03-0.14,0.11-0.14,0.17
			c-0.03,0.58-0.17,1.18,0.26,1.7c0.08,0.1,0.1,0.25,0.15,0.37c-0.46,0.01,0.69,0.35,0.59,0.73c-0.11,0.41,0.14,0.67,0.47,0.88
			c-0.46,0.18-0.95,0.33-0.98,0.97c-0.01,0.21,0.4,0.78,0.33,0.99c-0.18,0.52-0.02,0.75,0.25,1.24c0.21,0.39,0.66,0.48,0.18,0.62
			c-0.61,0.17-0.12,0.21,0.1,0.76c0.08,0.21-0.18,0.24-0.16,0.45c0.02,0.2,0.36,0.56,0.3,0.77c0,0-0.06-0.01-0.13-0.03
			c-0.09-0.03-0.17-0.05-0.25-0.05c0,0,0,0,0,0l0,0c-0.24-0.02-0.43,0.06-0.49,0.26c-0.07,0.21-0.15,0.42-0.16,0.63
			c-0.01,0.56,0.05,1.13-0.11,1.68c-0.13,0.05-0.27,0.09-0.4,0.16c-0.23,0.13-0.31,0.38-0.19,0.54c0.43,0.56,0.95,0.94,1.74,0.75
			c0.22-0.05,0.47-0.11,0.67-0.04c0.6,0.2,0.72-0.33,1.03-0.56c0,0.01,0.01,0.01,0.01,0.01c0.29-0.09,0.59-0.16,0.87-0.26
			c0.14-0.05,0.31-0.21,0.4-0.18c0.71,0.3,1.31-0.28,1.99-0.2c0.19,0.02,0.23-0.16,0.13-0.34c-0.04-0.07-0.08-0.1-0.13-0.13
			c0.08-0.02,0.17-0.03,0.25-0.06c0.15-0.05-0.05-0.05-0.38-0.02c-0.01-0.01-0.04-0.02-0.09-0.03c0,0.01,0,0.02,0,0.03
			c-0.43,0.03-1.03,0.1-1.42,0.14c0.33-0.08,0.65-0.24,0.98-0.26c0.76-0.06,1.55,0.12,2.24-0.37c0.7,0.03,1.3-0.34,1.95-0.29
			c0.03-0.37,0.04-0.59,0.06-0.82c0.14,0,0.28-0.02,0.41,0c0.37,0.07,0.76,0.48,1.07,0.24c0.34-0.26,0.68-0.26,1.03-0.35
			c0.1-0.02,0.14-0.24,0.23-0.35c0.09-0.1,0.27-0.24,0.33-0.22c0.6,0.28,1.18,0.17,1.79,0.05c0.21-0.04,0.44,0.08,0.67,0.11
			c0.04,0.01,0.14-0.09,0.14-0.1c-0.07-0.12-0.13-0.25-0.23-0.35c-0.02-0.02-0.06-0.03-0.11-0.03c0.19-0.06,0.38-0.14,0.57-0.13
			c1,0.06,1.85-0.06,2.96-0.35c0.34-0.09,0.01,0.01,0.34-0.09c0.28-0.08-0.49-0.17-0.18-0.21c0.21-0.03,0.4-0.15,0.6-0.21
			c-0.16-0.02-0.42-0.1-0.26-0.22c0.21-0.16,0.57-0.14,0.79-0.3c0.14-0.1,0.17-0.36,0.23-0.55c0.35,0.1,0.69,0.23,1.04,0.3
			c0.24,0.05,0.43-0.08,0.42-0.35c0-0.2,0.09-0.28,0.29-0.24c0.36,0.07,0.72,0.16,1.09,0.18c0.16,0.01,0.21-0.17,0.15-0.34
			c0,0,0.1-0.06,0.1-0.06l-0.05,0.12c0.35-0.08,0.79,0.08,1.05-0.27c0.21-0.28,0.49-0.35,0.78-0.23c0.65,0.27,1.32,0.19,2.01,0.14
			c0.23-0.26,0.47-0.54,0.71-0.82c0,0-0.12,0.08-0.12,0.08l0.08-0.1c0.72,0.19,0.96,0.16,1.15-0.29c0.15-0.34,0.21-0.69,0.65-0.81
			c0.05-0.01,0.09-0.3,0.03-0.36c-0.25-0.28-0.67-0.38-0.8-0.78c0.29-0.22,0.54,0.01,0.81,0.07c0.4,0.09,0.61,0,0.78-0.29
			c0.04-0.07,0.1-0.12,0.11-0.19c0.21-0.77,0.66-1.34,1.47-1.6c0.2-0.07,0.42-0.45,0.55-0.29c0.41,0.49,0.83-0.23,1.24,0.1
			c0.68,0.54,1.29,0.35,1.76-0.33c0.04-0.06,0.12-0.1,0.21-0.17c0.13,0.16,0.25,0.33,0.39,0.49c0.22,0.24,0.52,0.32,0.84,0.29
			c0.15-0.02,0.31-0.07,0.43-0.15c0.48-0.34,1.08,0.14,1.55-0.2c0.39,0.21,0.78,0.42,1.2,0.65c0.07,0.21,0.17,0.42,0.19,0.63
			c0.09,0.89,0.03,1.77,0.27,2.67c0.21,0.78,0.09,1.64,0.12,2.46c0.01,0.38,0.27,0.5,0.62,0.28c0.06-0.04,0.11-0.11,0.16-0.16
			c0.23-0.2,0.3-0.09,0.44,0.13c0.34,0.53,0.93,0.59,1.32,0.16c0.15-0.16,0.21-0.39,0.32-0.6c0.13,0.08,0.24,0.14,0.34,0.21
			c0.67,0.43,0.97,0.36,1.46-0.34c0.04-0.06,0.1-0.12,0.15-0.18c0.07,0.12,0.12,0.24,0.2,0.35c0.46,0.62,1.03,0.6,1.44-0.04
			c0.08-0.12,0.13-0.27,0.2-0.4c0.37,0.32,0.8,0.56,1.24,0.23c0.49-0.37,0.9-0.33,1.43-0.09c0.38,0.17,0.76,0.03,0.94-0.4
			c0.1-0.24,0.23-0.34,0.42-0.09c0.26,0.35,0.58,0.38,1.01,0.3c0.72-0.14,0.75-0.07,0.95,0.59c0.28,0.93,0.45,1.88,0.81,2.79
			c0.21,0.53,0.42,1.04,0.88,1.41c-0.12,0.69,0.34,1.28,0.39,1.85c-0.22,0.55-0.67,0.74-1.02,1.02c-0.33,0.28-0.41,0.57-0.35,0.98
			c0.04,0.28-0.18,0.37-0.48,0.24c-0.21-0.09-0.4-0.26-0.61-0.3c-0.36-0.07-0.74-0.14-0.99,0.3c-0.18,0.31-0.49,0.55-0.72,0.84
			c-0.17,0.21-0.38,0.23-0.6,0.15c-0.39-0.14-0.76-0.08-1.11,0.12c-0.27,0.15-0.55,0.29-0.79,0.48c-0.31,0.25-0.64,0.35-1.04,0.42
			c-0.98,0.17-1.87,0.68-2.88,0.8c-0.07,0.01-0.13,0.08-0.19,0.12c-0.23,0.12-0.42,0.59-0.3,0.78c1.33,2.02,2.65,4.04,4.01,6.04
			c0.29,0.42,0.73,0.75,1.1,1.12l0,0c0.13,0.75,0.81,1.24,1.02,1.96c1.38,1.84,2.77,3.69,4.16,5.52c0.08,0.11,0.25,0.15,0.38,0.23
			l-0.04,0.06c0.14-0.16,0.26-0.35,0.44-0.46c0.34-0.23,1.79-1.59,2.02-1.95l-0.05,0.04c0.12-0.22,0.09-0.41-0.08-0.58
			c0.12,0,0.25-0.01,0.37-0.01c1.05,0.07,1.05,0.07,1.18-0.97c0.02-0.14,0.07-0.27,0.1-0.41c0.41,0.3,0.45,0.28,0.74-0.19
			c0.03-0.04,0.07-0.08,0.1-0.11c0.06-0.03,0.12-0.08,0.19-0.1c0.45-0.09,0.24-0.72,0.67-0.8c0.38-0.07,0.45-0.35,0.56-0.63
			c0.06-0.13,0.16-0.25,0.25-0.37c-0.01-0.02-0.02-0.03-0.03-0.04c0.02,0,0.03,0,0.05,0c0.1,0.1,0.21,0.3,0.29,0.29
			c0.37-0.05,0.74-0.17,0.87-0.56c0.07-0.21,0.1-0.44,0.35-0.49c0.62-0.11,0.75-0.93,1.46-0.9c0.13,0.01,0.26-0.03,0.4-0.05
			c-0.12-0.4-0.24-0.8-0.36-1.2c0.11,0.06,0.21,0.12,0.32,0.14c0.22,0.03,0.48,0.09,0.66,0.01c0.77-0.37,1.38-0.94,1.75-1.71
			c0.12-0.24,0.02-0.42-0.24-0.51c0-0.01,0.01-0.01,0.01-0.02c0.01,0.01,0.01,0.03,0.03,0.04c0.13-0.08,0.24-0.2,0.38-0.24
			c0.4-0.09,0.64-0.27,0.71-0.7c0.02-0.12,0.3-0.2,0.49-0.3c0.03-0.26,0.06-0.52,0.09-0.78c1.01,0.28,1.02,0.26,1.83-0.81
			c0.08-0.1,0.26-0.12,0.4-0.18l-0.02,0.07c0.22-0.23,0.15-0.67,0.65-0.71c0.35-0.03,0.32-0.34,0.34-0.6
			c0.36-0.24,0.83-0.27,1.13-0.66c0.31-0.4,0.87-0.61,0.95-1.19c0.82-0.14,0.99-0.8,1.22-1.41c0.35-0.15,0.72-0.27,0.99-0.54l0,0
			c0.42,0.18,0.85,0.33,1.24,0.56c0.25,0.15,0.45,0.39,0.65,0.61c0.1,0.11,0.22,0.28,0.19,0.38c-0.22,0.68-0.02,1.47-0.59,2.05
			c-0.15,0.15-0.32,0.29-0.48,0.44c-0.46,0.43-0.68,1-0.78,1.57c-0.06,0.3,0.23,0.66,0.41,1.09c-0.47,0.13-0.98,0.19-1.33,0.65
			c-0.41,0.54-0.46,1.06-0.3,1.66c0,0,0,0,0,0c-0.22,0.16-0.44,0.33-0.66,0.49c-0.12,0.09-0.3,0.13-0.38,0.24
			c-0.08,0.11-0.13,0.29-0.1,0.41c0.09,0.29,0.2,0.48-0.24,0.63c-0.68,0.24-0.59,0.98-0.85,1.49c-0.2,0.41,0.13,0.69,0.31,1
			c0.01,0.02-0.15,0.19-0.26,0.22c-0.35,0.1-0.67-0.4-1.05-0.06c-0.07,0.36-0.14,0.72-0.22,1.13c-0.39,0.25-0.8,0.53-1.22,0.8
			c0.06,0.28,0.13,0.55,0.18,0.83c0.02,0.13,0.05,0.36-0.01,0.38c-0.74,0.36-0.55,1.15-0.88,1.69c-0.06,0.1-0.16,0.18-0.25,0.26
			c0.04,0.14,0.06,0.29,0.12,0.42c0.12,0.25,0.04,0.37-0.23,0.45c-0.76,0.23-0.77,0.25-0.37,0.84c0.04,0.06,0.11,0.1,0.16,0.17
			c0.23,0.34,0.12,0.53-0.33,0.56c-0.22,0.02-0.45,0-0.63,0c-0.14,0.17-0.26,0.28-0.34,0.41c-0.23,0.39-0.41,0.82-0.69,1.17
			c-0.34,0.44-0.11,1.06-0.48,1.43c-0.31,0.32-0.78,0.45-1.02,0.89c-0.21,0.39-0.55,0.72-0.82,1.09c-0.22,0.29-0.1,0.77,0.26,0.97
			c0.34,0.19,0.68,0.37,1.04,0.51c1.88,0.71,3.76,1.4,5.65,2.09c0.58,0.21,1.15,0.48,1.75,0.6c1.47,0.28,2.74,1.04,4.12,1.54
			c0.48,0.17,0.68,0.6,0.69,1.08l4.93,0.01C115.25,109.43,115.68,108.68,115.44,107.81z M160.95,41.89
			c-0.06-0.01-0.12-0.08-0.17-0.14c-0.2-0.26-0.09-0.53-0.02-0.79c-0.01,0.28,0.15,0.49,0.33,0.69
			C161.25,41.84,161.18,41.94,160.95,41.89z M160.76,40.94c-0.02,0-0.04-0.01-0.06-0.01c0.02-0.01,0.04-0.01,0.06-0.02
			C160.76,40.92,160.76,40.93,160.76,40.94z M159.81,40.73c0,0,0,0.01,0,0.01c-0.02,0-0.04-0.01-0.06-0.01
			C159.78,40.73,159.79,40.73,159.81,40.73z M157.97,42.3c-0.29,0.03-0.29-0.13-0.27-0.31c0.11,0.04,0.21,0.08,0.31,0.13
			C158.03,42.14,158,42.3,157.97,42.3z M157.58,41.76c0.02,0.04,0.03,0.09,0.05,0.13C157.47,41.86,157.45,41.82,157.58,41.76z
			 M155.81,47.29c-0.05,0.02-0.1,0.03-0.15,0.02c-0.04-0.01-0.1-0.13-0.09-0.14C155.68,47.08,155.76,47.12,155.81,47.29z
			 M154.95,30.17l-0.06,0.08c-0.01,0.01-0.02,0.01-0.02,0.02C154.88,30.25,154.95,30.17,154.95,30.17z M150.16,37.46
			c0.01,0.04-0.05,0.09-0.08,0.13c-0.05-0.03-0.1-0.07-0.14-0.1c0-0.06-0.03-0.15,0-0.18C150.04,37.23,150.13,37.29,150.16,37.46z
			 M148.63,50.76c0.13-0.02,0.16,0.05,0.14,0.17c-0.05-0.01-0.1-0.02-0.14-0.04C148.6,50.88,148.62,50.76,148.63,50.76z
			 M145.49,46.43l0.01,0.1c-0.01,0-0.02-0.01-0.02-0.01L145.49,46.43z M145.37,40.33l-0.1,0.07l-0.02-0.11L145.37,40.33z
			 M144.26,38.93c-0.14,0.05-0.29,0.1-0.43,0.15c0.11-0.07,0.21-0.14,0.32-0.2C144.17,38.87,144.22,38.91,144.26,38.93z
			 M140.65,53.88C140.65,53.88,140.65,53.88,140.65,53.88c-0.11,0.04-0.21,0.06-0.31,0.09C140.44,53.94,140.54,53.91,140.65,53.88z
			 M140.67,53.93c0.08,0.19,0.14,0.39,0.25,0.54c0.16,0.21,0.47,0.23,0.61,0.07c0.2-0.22,0.38-0.46,0.56-0.69
			c0,0-0.14,0.08-0.14,0.08l0.1-0.1c0.31,0.2,0.65,0.12,0.84-0.09c0.36-0.42,0.71-0.66,1.3-0.43c0.2,0.08,0.44-0.1,0.51-0.33
			c0.06-0.19,0.08-0.39,0.12-0.6c0.2,0.04,0.34,0.07,0.48,0.11c0.62,0.15,1.01,0.04,1.26-0.56c0.14-0.32,0.24-0.44,0.58-0.51
			c0.29-0.06,0.56-0.17,0.88-0.09c0.32,0.07,0.52-0.15,0.73-0.33c0.26-0.14,0.52-0.29,0.79-0.42c0.27-0.13,0.52-0.25,0.67-0.54
			c0.24-0.47,0.66,0,1-0.12c0.58-0.19,1.11-0.45,1.56-0.85c0.07-0.06,0.01-0.26,0.02-0.39c0.03,0.02,0.03,0.01,0.05,0.02
			c-0.01,0.02-0.01,0.04-0.02,0.06c0.52,0.07,1.04,0.18,1.56,0.18c0.46,0,0.7,0.22,0.87,0.56c0.19,0.39,0.37,0.8,0.5,1.22
			c0.2,0.62,0.37,1.26,0.54,1.89c0.09,0.34,0.3,0.6,0.56,0.83c-0.38,0.38-0.19,0.82-0.12,1.25c0.05,0.34-0.1,0.55-0.41,0.71
			c-0.2,0.1-0.39,0.24-0.54,0.39c-0.12,0.12-0.25,0.18-0.37,0.04c-0.4-0.47-0.84-0.33-1.21-0.04c-0.33,0.26-0.65,0.21-1.03,0.23
			c-0.52,0.03-1.02,0.14-1.57,0.11c-0.57-0.03-1.11,0.52-1.74,0.14c-0.27,0.13-0.55,0.25-0.81,0.41c-0.22,0.14-0.16,0.53-0.52,0.57
			c-0.42-0.73-0.58-0.79-1.19-0.38c-0.25,0.17-0.46,0.38-0.69,0.57c-0.07-0.09-0.11-0.15-0.17-0.2c-0.71-0.62-1.26-0.48-1.48,0.36
			c-0.04,0.16,0.07,0.42-0.25,0.43c-0.05-0.07-0.12-0.12-0.13-0.18c-0.11-0.45-0.44-0.61-0.86-0.55c-0.21,0.03-0.39,0.2-0.6,0.28
			c-0.11,0.05-0.33,0.12-0.35,0.09c-0.5-0.65-1.33-0.23-1.92-0.56c-0.19-0.42-0.38-0.83-0.58-1.27
			C140.42,55.2,140.55,54.56,140.67,53.93z M136.45,47.3c0.02,0.06,0,0.15-0.03,0.21c-0.02,0.04-0.13,0.09-0.15,0.07
			c-0.24-0.15-0.47-0.32-0.7-0.48C136.24,46.92,136.3,46.94,136.45,47.3z M143.48,24.04c0,0.01,0,0.03-0.01,0.04
			c-0.02-0.01-0.04-0.02-0.05-0.03C143.45,24.05,143.46,24.05,143.48,24.04z M140.46,29.64c-0.13,0.03-0.27,0.1-0.29-0.15
			C140.27,29.54,140.36,29.59,140.46,29.64z M132.5,45.01c-0.04,0.02-0.08,0.04-0.12,0.03c-0.06,0-0.11-0.06-0.17-0.1
			C132.31,44.96,132.4,44.98,132.5,45.01z M127.08,23.69c-0.02,0.01-0.04,0.01-0.05,0.02c0-0.01,0-0.02,0-0.04
			C127.05,23.68,127.06,23.68,127.08,23.69z M127.03,25.87l-0.13,0.07l-0.02-0.12L127.03,25.87z M117.87,32.08
			c0.58-0.43,0.76-0.92,0.25-1.52c-0.2-0.24-0.03-0.41,0.08-0.59c0.22-0.34,0.26-0.7,0.12-1.07c-0.08-0.21-0.21-0.4-0.28-0.61
			c-0.09-0.27,0.15-0.67,0.4-0.71c0.31-0.04,0.61-0.11,0.92-0.11c1.71-0.01,3.42,0,5.13,0.02c0.23,0,0.45,0.08,0.68,0.13
			c0.24,0.63,0.47,1.25,0.71,1.86c-0.22,0.06-0.52,0.05-0.64,0.18c-0.2,0.21-0.36,0.51-0.41,0.8c-0.05,0.3,0.21,0.51,0.47,0.7
			c0.24,0.18,0.21,0.21-0.14,0.34c-0.14,0.05-0.37,0.08-0.4,0.17c-0.07,0.2-0.06,0.43-0.03,0.65c0.04,0.35,0.53,0.52,0.44,0.93
			c-0.08,0.05-0.14,0.11-0.21,0.12c-0.42,0.06-0.75,0.21-0.73,0.69c0.02,0.45,0.07,0.9,0.15,1.34c0.07,0.37-0.16,0.53-0.4,0.73
			c-0.43,0.35-0.47,0.77-0.13,1.18c0.27,0.33,0.05,0.5-0.13,0.75c-0.31,0.44,0.01,1.01-0.35,1.49c-0.31,0.42-0.31,0.98-0.34,1.51
			c-0.03,0.51-0.23,1.01-0.36,1.51c-0.07,0.25-0.37,0.46-0.71,0.49c-0.08,0.01-0.15,0.02-0.23,0.02c-0.66,0.03-1.19-0.08-1.49-0.78
			c-0.18-0.42-0.38-0.79-0.31-1.26c0.03-0.21,0.01-0.54-0.12-0.64c-0.56-0.4-0.34-0.89-0.31-1.39c0.02-0.35-0.31-0.75-0.21-1.05
			c0.19-0.58-0.05-1.01-0.21-1.51c-0.15-0.49,0.04-1.06-0.3-1.52c-0.24-0.33-0.26-0.66-0.19-1.06c0.07-0.43,0.02-0.87,0.02-1.3
			c-0.32-0.09-0.6-0.18-0.9-0.27C117.78,32.2,117.81,32.12,117.87,32.08z M115.25,16.01c0.02-0.03,0.01-0.04,0.02-0.06
			c0.02,0.01,0.03,0.01,0.05,0.02C115.3,15.98,115.27,15.99,115.25,16.01z M103.47,29.63c-0.01,0.03-0.12,0.04-0.19,0.04
			c-0.09,0-0.19-0.02-0.28-0.03c0.09-0.07,0.17-0.14,0.27-0.18C103.45,29.39,103.54,29.47,103.47,29.63z M32.13,58.44
			c0-0.01,0-0.02,0.01-0.03c0.02,0.01,0.04,0.02,0.05,0.03C32.16,58.44,32.15,58.44,32.13,58.44z M33.24,65.52l-0.05,0.13
			c-0.01,0-0.02,0-0.03,0L33.24,65.52z M33.28,65.66c0.17-0.04,0.35-0.08,0.52-0.1c0.2-0.03,0.34,0.05,0.44,0.2
			C33.92,65.73,33.6,65.7,33.28,65.66z M34.47,75.74c-0.03,0-0.09-0.09-0.08-0.1c0.07-0.09,0.14-0.05,0.19,0.07
			C34.53,75.73,34.5,75.75,34.47,75.74z M34.72,56.19l0.05-0.14l0.09,0.12L34.72,56.19z M35.13,72.94
			c-0.03-0.01-0.04-0.09-0.05-0.14c0.06-0.02,0.12-0.03,0.19-0.05c0.01,0.05,0.03,0.11,0.04,0.16
			C35.24,72.92,35.18,72.95,35.13,72.94z M37.63,74.62C37.63,74.62,37.63,74.62,37.63,74.62c-0.02,0.02-0.03,0.01-0.04,0.02
			C37.6,74.63,37.61,74.62,37.63,74.62z M41.5,57.52c-0.04-0.02-0.05-0.13-0.03-0.19c0.03-0.13,0.09-0.25,0.11-0.35
			c-0.67,0.27-0.76,0.27-1.12-0.11c0.38,0.03,0.76,0.07,1.14,0.1c0.03,0.13,0.06,0.25,0.1,0.38C41.76,57.54,41.69,57.6,41.5,57.52z
			 M53.54,56.37l-0.01,0.08c0,0,0,0,0,0L53.54,56.37z M51.93,52.7c-0.06-0.04-0.12-0.08-0.18-0.12c0.01,0,0.02,0,0.02,0
			C51.8,52.59,51.86,52.63,51.93,52.7z M53.11,53.75c0,0,0-0.01,0-0.02C53.17,53.78,53.18,53.81,53.11,53.75z M53.91,56.65
			c-0.09-0.04-0.17-0.09-0.26-0.14c0.1,0,0.21-0.01,0.31-0.01C53.94,56.55,53.93,56.6,53.91,56.65z M79.51,85.19
			c0.05,0.12,0.08,0.26,0.11,0.39c-0.09-0.19-0.18-0.38-0.27-0.57C79.42,85.06,79.48,85.12,79.51,85.19z M77.33,82.82
			c-0.16-0.14-0.28-0.35-0.35-0.55c-0.03-0.09,0.09-0.29,0.19-0.35c0.1-0.07,0.36-0.08,0.4-0.03c0.38,0.55,0.74,1.11,1.07,1.69
			c0.16,0.28-0.01,0.56-0.16,0.81C78.23,83.78,77.83,83.27,77.33,82.82z M78.49,84.41c0.01,0.01,0.02,0.01,0.02,0.02
			c-0.01,0-0.01,0-0.02,0C78.5,84.42,78.49,84.41,78.49,84.41z M79.73,85.79C79.73,85.79,79.73,85.79,79.73,85.79
			c0.01,0.02,0.02,0.04,0.03,0.05C79.75,85.83,79.74,85.81,79.73,85.79z M80.86,82.09c-0.06-0.12-0.11-0.23-0.17-0.35
			C80.8,81.83,80.86,81.94,80.86,82.09z M80.55,81.43c0,0.04,0,0.07,0,0.11C80.42,81.48,80.42,81.44,80.55,81.43z M80.93,82.23
			c-0.01-0.02-0.02-0.04-0.03-0.05l0.14-0.04L80.93,82.23z M106.1,77.17c-0.03,0.14-0.05,0.28-0.08,0.42
			c-0.02-0.27-0.05-0.55-0.07-0.82C106.08,76.87,106.13,77,106.1,77.17z M105.11,76.29c0.01,0,0.02,0.01,0.03,0.01
			c-0.02,0-0.03-0.01-0.05,0C105.09,76.3,105.1,76.29,105.11,76.29z M102.95,77.5c-0.19-0.06-0.29-0.19-0.33-0.37
			C102.81,77.2,102.93,77.31,102.95,77.5z M101.8,76.76c-0.07-0.2-0.13-0.4-0.2-0.6c-0.03-0.1-0.06-0.21-0.08-0.32
			c0.07,0.02,0.16,0.02,0.19,0.07c0.08,0.12,0.16,0.25,0.18,0.38c0.01,0.14-0.05,0.29-0.08,0.42c0.03,0.01,0.05,0.03,0.08,0.04
			C101.86,76.76,101.83,76.75,101.8,76.76z M92.29,35.2c0.04-0.04,0.15-0.06,0.2-0.03c0.15,0.08,0.18,0.22,0.05,0.34
			c-0.1,0.08-0.25,0.12-0.38,0.16c-0.02,0.01-0.08-0.09-0.12-0.15C92.12,35.41,92.2,35.29,92.29,35.2z M91.82,48.53
			c-0.01,0-0.02-0.01-0.03-0.01c0.01-0.02,0.03-0.03,0.04-0.04C91.82,48.51,91.83,48.51,91.82,48.53z M90.34,46.09
			c0.21,0,0.26,0.07,0.13,0.19c-0.03,0.02-0.12-0.02-0.19-0.04C90.3,46.19,90.32,46.14,90.34,46.09z M87.81,46.84
			c-0.02,0.01-0.03,0.03-0.05,0.04c0-0.01,0-0.01,0-0.02C87.78,46.86,87.8,46.85,87.81,46.84z M87.03,43.95c-0.01,0-0.01,0-0.02,0
			c0.01-0.01,0.03-0.03,0.04-0.04C87.05,43.92,87.04,43.94,87.03,43.95z M86.64,43.21c0,0-0.01,0.01-0.01,0.01
			C86.63,43.22,86.63,43.21,86.64,43.21C86.64,43.21,86.64,43.21,86.64,43.21z M86.23,43.7c0.11-0.15,0.23-0.28,0.35-0.42
			c-0.03,0.32-0.05,0.65-0.08,0.96c-0.03-0.03-0.05-0.07-0.11-0.09C86.16,44.06,86.07,43.92,86.23,43.7z M86.19,53.46
			c0.18-0.88,0.43-1.74,0.59-2.62c0.11-0.6,0.33-1.15,0.58-1.69c0.37-0.8,0.9-1.39,1.87-1.56c0.39,0.66,1.09,0.97,1.82,1.21
			c0.27,0.09,0.52-0.04,0.72-0.24c0.03,0.2,0.06,0.39,0.1,0.59c0.05,0.22,0.15,0.41,0.44,0.3c0.33-0.12,0.51-0.02,0.65,0.3
			c0.14,0.33,0.47,0.24,0.75,0.22c0.23,0.23,0.27,0.26,0.39,0.08c-0.02,0.03-0.03,0.05-0.03,0.08c0.03,0.13,0.09,0.26,0.14,0.39
			c0.21,0.06,0.42,0.19,0.62,0.16c0.2-0.03,0.38-0.22,0.58-0.31c0.23-0.11,0.43,0.06,0.38,0.31c-0.04,0.21-0.14,0.42-0.16,0.63
			c-0.05,0.4,0.3,0.64,0.75,0.52c0.14-0.04,0.26-0.15,0.4-0.2c0.25-0.09,0.4-0.01,0.44,0.26c0.06,0.41,0.41,0.33,0.68,0.37
			c0.18,0.16,0.36,0.24,0.49-0.05c0.18,0.34,0.4,0.67,0.85,0.59c0.39-0.07,0.51,0.19,0.75,0.36c0.13,0.1,0.42,0,0.64-0.01l0.13-0.01
			l-0.18,0.04c0.08,0.2,0.13,0.42,0.24,0.6c0.06,0.09,0.23,0.11,0.35,0.17c0,0.02,0,0.02,0,0.04c-0.02,0-0.04,0-0.07,0
			c0.15,0.16,0.28,0.37,0.46,0.49c0.66,0.44,0.82,1.06,0.68,1.77c-0.04,0.19-0.22,0.38-0.38,0.51c-0.1,0.08-0.3,0.1-0.45,0.08
			c-0.83-0.07-1.3,0.28-1.45,1.07c-0.01,0.04-0.12,0.09-0.18,0.1c-0.06,0-0.14-0.05-0.17-0.1c-0.04-0.06-0.04-0.14-0.06-0.21
			c-0.24-0.93-0.25-0.93-1.25-0.68c-0.15,0.04-0.3,0.11-0.44,0.08c-0.14-0.02-0.28-0.12-0.38-0.22c-0.15-0.15-0.27-0.16-0.38,0.02
			c-0.11,0.18-0.21,0.36-0.34,0.58c-0.11-0.16-0.19-0.26-0.24-0.37c-0.07-0.13-0.07-0.33-0.18-0.4c-0.24-0.17-0.52-0.36-0.8-0.4
			c-0.39-0.05-0.46,0.3-0.51,0.59c-0.03,0.18-0.13,0.27-0.27,0.22c-0.06-0.02-0.11-0.1-0.14-0.16c-0.1-0.2-0.15-0.42-0.28-0.6
			c-0.17-0.24-0.6-0.31-0.85-0.15c-0.18,0.12-0.32,0.44-0.48,0.44c-0.37,0-0.25-0.45-0.46-0.63c-0.17-0.15-0.36-0.36-0.56-0.37
			c-0.67-0.06-1.35-0.01-2.01-0.18c-0.12-0.03-0.29,0.08-0.42,0.15c-0.19,0.12-0.3,0.37-0.57,0.31c-0.26-0.06-0.24-0.32-0.33-0.51
			c-0.16-0.32-0.43-0.44-0.74-0.39c-0.15,0.03-0.3,0.07-0.44,0.12c-0.29,0.11-0.56,0.23-0.84-0.03c-0.23-0.21-0.41-0.45-0.43-0.76
			C86.18,54.05,86.14,53.74,86.19,53.46z M86.99,66.93c0.01,0.05-0.04,0.11-0.07,0.17c-0.06-0.01-0.15-0.01-0.17-0.04
			c-0.03-0.05-0.04-0.14-0.01-0.19C86.84,66.71,86.95,66.74,86.99,66.93z M87.12,93.15c-0.06-0.03-0.16-0.04-0.18-0.08
			c-0.02-0.04,0.03-0.12,0.04-0.18c0.06,0.03,0.14,0.06,0.18,0.11C87.18,93.02,87.14,93.09,87.12,93.15z M88.2,92.43
			c0.25,0.08,0.49,0.17,0.74,0.25c0,0.01,0,0.02,0,0.03c0-0.01,0-0.01,0-0.02C88.63,92.71,88.36,92.68,88.2,92.43z M89.28,78.64
			c-0.19-0.12-0.17-0.23,0.01-0.23c0.04,0,0.06,0.13,0.12,0.18c0.06,0.06,0.13,0.11,0.19,0.17C89.48,78.72,89.37,78.7,89.28,78.64z
			 M89.66,78.85c0-0.01,0.01-0.02,0.01-0.03c0.02,0.01,0.03,0.03,0.05,0.04C89.68,78.85,89.68,78.85,89.66,78.85z M89.53,76.45
			c-0.04-0.03-0.06-0.1-0.08-0.16c0.04-0.03,0.09-0.06,0.12-0.05c0.11,0.03,0.22,0.1,0.32,0.17c0.02,0.01-0.03,0.11-0.04,0.17
			C89.74,76.53,89.62,76.51,89.53,76.45z M90.51,92.75c0-0.02-0.01-0.04-0.01-0.06c0.03,0.02,0.05,0.03,0.08,0.05
			C90.54,92.74,90.53,92.75,90.51,92.75z M90.64,91.11c0.02,0.24,0.03,0.48,0.05,0.72C90.6,91.6,90.57,91.36,90.64,91.11z
			 M92.09,89.75c0.06,0.1,0.11,0.19,0.17,0.29C92.08,90.03,91.92,90.01,92.09,89.75z M95.75,87.31c-0.02-0.01,0.02-0.15,0.03-0.15
			c0.22,0.01,0.21,0.15,0.22,0.28C95.92,87.4,95.83,87.36,95.75,87.31z M96.19,75.94c0.03,0,0.06,0,0.09,0
			c-0.03,0.01-0.06,0.01-0.09,0.02C96.2,75.95,96.19,75.95,96.19,75.94z M96.68,75.08c0.05-0.03,0.09-0.07,0.14-0.1
			c-0.04,0.04-0.08,0.08-0.12,0.12C96.69,75.09,96.68,75.08,96.68,75.08z M98.31,82.76c-0.05-0.03-0.13-0.04-0.16-0.08
			c-0.02-0.03,0.02-0.1,0.04-0.15c0.05,0.03,0.12,0.05,0.15,0.09C98.37,82.65,98.33,82.71,98.31,82.76z M97.76,76.42
			c-0.16-0.15-0.31-0.31-0.47-0.47c-0.03-0.01-0.05-0.01-0.08-0.01c0.03,0,0.07,0,0.1,0c-0.2-0.27-0.41-0.55-0.61-0.83
			c0.21-0.05,0.41-0.09,0.6-0.14c0.3,0.36,0.56,0.71,0.87,1.01c0.14,0.14,0.37,0.21,0.54,0.32c-0.12,0.06-0.25,0.12-0.36,0.19
			C98.13,76.63,97.93,76.59,97.76,76.42z M98.71,76.36c0,0.18-0.02,0.37,0.01,0.55c0.05,0.24,0.07,0.48-0.02,0.7
			C98.32,77.18,98.51,76.77,98.71,76.36z M98.77,77.66c0.22-0.04,0.41,0.04,0.57,0.19C99.1,77.92,98.93,77.79,98.77,77.66z
			 M99.39,77.9C99.39,77.9,99.39,77.9,99.39,77.9C99.39,77.9,99.39,77.9,99.39,77.9C99.39,77.9,99.39,77.9,99.39,77.9z M99.44,83.08
			c0.01,0,0.01,0.01,0.02,0.01c-0.01,0-0.02,0-0.04,0C99.43,83.09,99.44,83.08,99.44,83.08z M99.77,70.78
			c-0.73-0.14-1.16,0.19-1.48,0.79c-0.17,0.31-0.46,0.56-0.64,0.78c-0.33-0.02-0.56-0.05-0.79-0.04c-0.18,0.01-0.23,0.14-0.18,0.32
			c-0.02,0-0.03-0.01-0.05-0.01c0-0.02,0-0.03,0-0.05c-0.23,0.02-0.46,0-0.67,0.07c-0.47,0.15-0.81,0.41-0.76,0.96
			c0.01,0.06-0.03,0.17-0.07,0.19c-0.12,0.05-0.32,0.13-0.37,0.08c-0.27-0.26-0.48-0.6-0.93-0.53c-0.45,0.07-0.52,0.45-0.71,0.78
			c-0.17,0.3-0.5,0.52-0.79,0.74c-0.08,0.07-0.31,0.09-0.38,0.03c-0.24-0.22-0.43-0.42-0.65,0c-0.76,0.29-1.42,0.69-1.87,1.36
			c-0.31-0.23-0.61-0.39-1.04-0.24c-0.31,0.11-0.6-0.01-0.76-0.31c-0.21-0.39-0.38-0.8-0.61-1.18c-0.05-0.08-0.18-0.12-0.3-0.17
			c-0.03-0.28-0.03-0.56-0.1-0.83c-0.22-0.87-0.46-1.74-0.72-2.6c-0.14-0.44-0.18-0.88-0.12-1.33c0.06-0.4,0.57-0.83,0.99-0.78
			c0.23,0.03,0.44,0.15,0.67,0.17c0.4,0.05,0.78-0.03,1-0.41c0.23-0.41,0.44-0.18,0.73-0.04c0.47,0.22,0.9,0.1,1.19-0.35
			c0.08-0.12,0.18-0.23,0.28-0.35c0.07,0.12,0.13,0.24,0.2,0.34c0.42,0.62,0.95,0.63,1.45,0.01c0.08-0.1,0.16-0.21,0.24-0.31
			c0.08,0.04,0.16,0.05,0.21,0.1c0.3,0.31,0.66,0.38,1.05,0.24c0.35-0.12,0.38-0.44,0.46-0.73c0.02-0.07,0.08-0.12,0.13-0.18
			c0.1,0.1,0.19,0.19,0.29,0.29c0.5,0.46,0.86,0.47,1.34-0.02c0.16-0.16,0.28-0.37,0.48-0.12c0.22,0.27,0.46,0.39,0.79,0.27
			c0.29-0.11,0.54-0.27,0.66-0.59c0.09-0.23-0.06-0.56,0.31-0.73c0.08,0.22,0.13,0.43,0.22,0.63c0.16,0.34,0.42,0.44,0.76,0.29
			c0.28-0.12,0.55-0.27,0.84-0.41c0.52,0.13,1.04,0.26,1.55,0.39c0.32,0.53,0.8,1.07,0.62,1.65c-0.21,0.66,0.03,1.15,0.24,1.71
			c0.03,0.09-0.1,0.24-0.18,0.35c-0.01,0.02-0.16-0.03-0.21-0.08c-0.15-0.17-0.28-0.35-0.43-0.52c-0.35-0.41-0.52-0.45-0.9-0.07
			C100.48,70.66,100.19,70.86,99.77,70.78z M101.21,78.12c0.18,0.07,0.36,0.14,0.54,0.21C101.54,78.35,101.36,78.27,101.21,78.12z
			 M101.86,78.49c0.14,0.4,0.07,0.81,0.04,1.23c0,0,0,0-0.01,0C101.89,79.3,101.88,78.9,101.86,78.49z M102.13,80.16
			c0,0-0.07,0.13-0.07,0.13l0.04-0.08c0.04-0.2,0.01-0.36-0.18-0.47c0.95,0.02,1.08,0.18,0.83,1.03c0.02,0.01,0.03,0.03,0.05,0.04
			c-0.01,0-0.02,0-0.03,0C102.68,80.48,102.44,80.28,102.13,80.16z M104.64,75.15l-0.02-0.12l0.14,0.04L104.64,75.15z M104.99,78.63
			c-0.03-0.01-0.05-0.04-0.07-0.06c0.06,0.01,0.13,0.02,0.19,0.03C105.07,78.61,105.02,78.64,104.99,78.63z M106.03,77.7
			C106.03,77.7,106.03,77.7,106.03,77.7c0.25,0.05,0.52,0.06,0.69,0.26C106.49,77.88,106.26,77.79,106.03,77.7z M106.91,86.77
			c-0.12-0.05-0.12-0.13-0.06-0.22c0.04,0.03,0.09,0.07,0.12,0.11C106.98,86.68,106.92,86.78,106.91,86.77z"/>
		<path class="st0" d="M142.75,33.78c-0.05,0-0.09-0.02-0.13-0.03c0.02,0.02,0.05,0.05,0.07,0.07L142.75,33.78z"/>
		<path class="st0" d="M100.74,32.93c0-0.02,0.01-0.04,0.01-0.06c-0.02,0-0.04,0.01-0.06,0.01L100.74,32.93z"/>
		<path class="st0" d="M98.35,34.68c-0.01,0.02-0.01,0.04-0.02,0.06c0.02,0,0.04-0.01,0.06-0.01L98.35,34.68z"/>
		<path class="st0" d="M145.5,36.09c0.02-0.01,0.03-0.01,0.05-0.01c0-0.01,0-0.03,0-0.04L145.5,36.09z"/>
	</g>
</g>
<g>
	<path class="st2" d="M162.8,82.31c0,4.3-2.4,7.02-7.21,8.15l1.47,0.59c3.05,1.21,5.06,2.81,6.04,4.81
		c0.74,1.52,1.11,3.11,1.11,4.75c0,3.71-1.34,6.6-4.02,8.65c-2.68,2.05-6.42,3.08-11.23,3.08c-1.52,0-3.13-0.06-4.81-0.18
		l-4.16-0.29c-1.09-0.08-2.29-0.12-3.58-0.12c-0.94,0-2.31,0.1-4.1,0.29c-1.8,0.2-3.09,0.29-3.87,0.29h-0.47
		c-1.25,0-2.26-0.39-3.02-1.17c-0.76-0.78-1.14-1.82-1.14-3.11c0-1.09,0.3-2.01,0.91-2.76c0.61-0.74,1.36-1.11,2.26-1.11
		c0.35,0,0.83,0.07,1.44,0.21c0.61,0.14,1.06,0.21,1.38,0.21c1.06,0,1.58-1.33,1.58-3.99V84.36c0-2.62-0.53-3.93-1.58-3.93
		c-0.31,0-0.77,0.07-1.38,0.21c-0.61,0.14-1.08,0.21-1.44,0.21c-0.9,0-1.65-0.37-2.26-1.11c-0.61-0.74-0.91-1.66-0.91-2.76
		c0-1.29,0.38-2.33,1.14-3.14c0.76-0.8,1.77-1.2,3.02-1.2c0.08,0,0.16,0,0.23,0c0.12,0.04,0.2,0.06,0.23,0.06l4.16,0.41
		c1.17,0.12,2.74,0.18,4.69,0.18c1.52,0,2.74-0.04,3.64-0.12l3.99-0.35c0.9-0.08,2.21-0.12,3.93-0.12c2.58,0,4.91,0.27,6.98,0.82
		c2.07,0.55,3.75,1.63,5.04,3.25C162.15,78.39,162.8,80.24,162.8,82.31z M141.45,86.24c0,0.78,0.16,1.27,0.47,1.47
		c0.2,0.16,0.68,0.23,1.47,0.23h1.82c2.03,0,3.64-0.37,4.84-1.11c1.19-0.74,1.79-1.74,1.79-2.99c0-2.62-2.03-3.93-6.1-3.93
		c-1.49,0-2.5,0.12-3.05,0.35c-0.82,0.39-1.23,1.23-1.23,2.52V86.24z M153.24,100.19c0-1.6-0.72-2.89-2.17-3.87
		c-1.45-0.98-3.36-1.47-5.75-1.47h-1.76c-0.86,0-1.43,0.13-1.7,0.38c-0.27,0.25-0.41,0.73-0.41,1.44v4.28
		c0,1.49,0.43,2.51,1.29,3.08c0.86,0.57,2.42,0.85,4.69,0.85c1.72,0,3.12-0.43,4.19-1.29C152.7,102.74,153.24,101.6,153.24,100.19z"
		/>
	<path class="st0" d="M203.08,89.52c-1.13,0.78-2.91,1.45-5.34,1.99c2.81,0.47,4.81,1.3,5.98,2.49c1.17,1.19,1.76,2.96,1.76,5.31
		c0,0.7-0.02,1.39-0.06,2.05v0.7c0,1.6,0.47,2.4,1.41,2.4c0.23,0,0.6-0.05,1.08-0.15c0.49-0.1,0.85-0.15,1.08-0.15
		c0.86,0,1.55,0.36,2.08,1.08c0.53,0.72,0.79,1.67,0.79,2.84c0,1.29-0.38,2.32-1.14,3.08s-1.77,1.14-3.02,1.14
		c-0.43,0-1.1-0.05-1.99-0.15c-0.9-0.1-1.56-0.15-1.99-0.15c-0.47,0-1.16,0.05-2.08,0.15c-0.92,0.1-1.61,0.15-2.08,0.15
		c-1.45,0-2.61-0.6-3.49-1.79c-0.88-1.19-1.32-2.77-1.32-4.72c0-0.2,0.02-0.33,0.06-0.41l0.12-3.4v-0.41c0-2.03-0.52-3.44-1.55-4.22
		c-1.04-0.78-2.9-1.17-5.6-1.17c-1.09,0-1.78,0.29-2.05,0.88c-0.2,0.39-0.29,1.11-0.29,2.17v1.35c0,2.66,0.49,3.99,1.47,3.99
		c0.27,0,0.69-0.07,1.26-0.21c0.57-0.14,1.01-0.21,1.32-0.21c0.82,0,1.51,0.37,2.08,1.11c0.57,0.74,0.85,1.66,0.85,2.76
		c0,2.85-1.37,4.28-4.1,4.28c-0.94,0-2.21-0.1-3.81-0.29c-1.6-0.2-2.99-0.29-4.16-0.29c-1.25,0-2.7,0.1-4.34,0.29
		s-3.03,0.29-4.16,0.29c-2.85,0-4.28-1.43-4.28-4.28c0-1.09,0.3-2.01,0.91-2.76c0.61-0.74,1.36-1.11,2.26-1.11
		c0.35,0,0.84,0.07,1.47,0.21c0.62,0.14,1.07,0.21,1.35,0.21c1.06,0,1.58-1.33,1.58-3.99V84.36c0-1.25-0.04-2.05-0.12-2.4
		c-0.2-1.02-0.68-1.52-1.47-1.52c-0.31,0-0.77,0.07-1.38,0.21c-0.61,0.14-1.08,0.21-1.44,0.21c-0.9,0-1.65-0.37-2.26-1.11
		c-0.61-0.74-0.91-1.66-0.91-2.76c0-1.25,0.38-2.29,1.14-3.11s1.75-1.23,2.96-1.23c0.23,0,0.41,0.02,0.53,0.06l4.16,0.41
		c1.17,0.12,2.42,0.18,3.75,0.18c2.31,0,5.22-0.12,8.74-0.35c2.35-0.16,4.08-0.23,5.22-0.23c3.71,0,6.65,0.93,8.82,2.79
		c2.17,1.86,3.25,4.39,3.25,7.59C206.13,86,205.11,88.15,203.08,89.52z M189.77,80.49c-1.56,0-2.58,0.1-3.05,0.29
		c-0.86,0.39-1.29,1.23-1.29,2.52v3.52c0,0.9,0.15,1.49,0.44,1.76c0.29,0.27,0.85,0.41,1.67,0.41c5.08,0,7.62-1.5,7.62-4.52
		C195.16,81.82,193.36,80.49,189.77,80.49z"/>
	<path class="st0" d="M241.6,99.9h-7.8c-2.23,0-3.34,1.33-3.34,3.99c0,0.63,0.33,0.94,1,0.94c0.2,0,0.49-0.03,0.88-0.09
		c0.39-0.06,0.68-0.09,0.88-0.09c1.45,0,2.17,1.15,2.17,3.46c0,1.25-0.33,2.27-1,3.05c-0.67,0.78-1.54,1.17-2.64,1.17
		c-0.55,0-1.76-0.14-3.64-0.41c-0.82-0.12-1.97-0.18-3.46-0.18c-1.6,0-2.85,0.06-3.75,0.18c-2.07,0.27-3.3,0.41-3.69,0.41
		c-1.21,0-2.2-0.37-2.96-1.11c-0.76-0.74-1.14-1.72-1.14-2.93c0-2.74,1.04-4.1,3.11-4.1c0.23,0,0.61,0.03,1.11,0.09
		c0.51,0.06,0.88,0.09,1.11,0.09c0.74,0,1.35-0.41,1.82-1.23c0.12-0.23,0.39-0.96,0.82-2.17l8.09-23.04
		c0.94-2.62,1.99-4.26,3.17-4.93c0.86-0.43,2.76-0.65,5.69-0.65c3.28,0,5.35,0.21,6.22,0.62c0.86,0.41,1.56,1.55,2.11,3.43
		l7.51,24.98c0.59,1.99,1.27,2.99,2.05,2.99c0.23,0,0.65-0.06,1.23-0.18h0.65c2.19,0,3.28,1.29,3.28,3.87
		c0,1.29-0.39,2.33-1.17,3.11c-0.78,0.78-1.8,1.17-3.05,1.17c-0.55,0-1.27-0.06-2.17-0.18c-1.09-0.19-1.82-0.29-2.17-0.29
		c-0.86-0.08-1.97-0.12-3.34-0.12c-1.49,0-2.48,0.04-2.99,0.12c-1.99,0.31-3.25,0.47-3.75,0.47c-1.06,0-1.93-0.4-2.61-1.2
		c-0.68-0.8-1.03-1.81-1.03-3.02c0-2.31,0.74-3.46,2.23-3.46c0.2,0,0.49,0.03,0.88,0.09c0.39,0.06,0.68,0.09,0.88,0.09
		c0.74,0,1.11-0.41,1.11-1.23c0-1.06-0.22-1.94-0.65-2.64C242.81,100.25,242.27,99.9,241.6,99.9z M240.72,90.93l-2.81-12.02
		l-3.64,12.49c-0.04,0.12-0.06,0.25-0.06,0.41c0,0.47,0.49,0.7,1.47,0.7h3.64c1.02,0,1.52-0.27,1.52-0.82
		C240.84,91.73,240.8,91.48,240.72,90.93z"/>
	<path class="st0" d="M279.54,83.78v6.33l8.5-7.86c1.37-1.25,2.05-2.17,2.05-2.76c0-0.31-0.08-0.55-0.23-0.7
		c-0.16-0.16-0.41-0.33-0.76-0.53c-0.74-0.55-1.11-1.27-1.11-2.17c0-1.02,0.35-1.84,1.06-2.46c0.7-0.62,1.62-0.94,2.76-0.94
		c0.74,0,1.83,0.1,3.25,0.29c1.43,0.2,2.51,0.29,3.25,0.29c0.82,0,1.95-0.12,3.4-0.35c0.98-0.16,1.82-0.23,2.52-0.23
		c1.29,0,2.32,0.36,3.08,1.08c0.76,0.72,1.14,1.71,1.14,2.96c0,1.13-0.3,2.1-0.91,2.9c-0.61,0.8-1.32,1.2-2.14,1.2
		c-0.27,0-0.66-0.07-1.14-0.21c-0.49-0.14-0.87-0.21-1.14-0.21c-0.47,0-1.13,0.33-1.99,1l-1.06,0.82l-5.69,4.98
		c-1.17,1.02-1.76,1.74-1.76,2.17c0,0.23,0.21,0.72,0.65,1.47l1.52,2.7l4.16,7.09c1.52,2.62,2.74,3.93,3.64,3.93
		c0.23,0,0.63-0.07,1.2-0.21c0.57-0.14,1.01-0.21,1.32-0.21c2.11,0,3.17,1.29,3.17,3.87c0,1.29-0.39,2.33-1.17,3.11
		c-0.78,0.78-1.82,1.17-3.11,1.17c-0.74,0-1.62-0.08-2.64-0.23c-1.52-0.23-2.89-0.35-4.1-0.35c-0.7,0-1.75,0.1-3.14,0.29
		c-1.39,0.2-2.43,0.29-3.14,0.29c-1.02,0-1.88-0.31-2.58-0.94c-0.7-0.62-1.06-1.41-1.06-2.35c0-0.9,0.55-1.8,1.64-2.7
		c0.51-0.39,0.76-0.82,0.76-1.29c0-0.43-0.31-1.19-0.94-2.29l-3.11-5.39c-0.7-1.25-1.19-1.88-1.47-1.88c-0.23,0-0.45,0.1-0.65,0.29
		L283,96.38l-3.46,2.87v1.99c0,1.33,0,2.01,0,2.05c0.12,0.82,0.51,1.23,1.17,1.23c0.04,0,0.14-0.02,0.29-0.06c0.16,0,0.27,0,0.35,0
		c0.12-0.04,0.29-0.06,0.53-0.06c1.72,0,2.58,1.21,2.58,3.64c0,1.29-0.35,2.33-1.06,3.11c-0.7,0.78-1.66,1.17-2.87,1.17
		c-0.55,0-1.35-0.08-2.4-0.23c-1.21-0.16-2.03-0.25-2.46-0.29c-0.59-0.04-1.27-0.06-2.05-0.06c-0.9,0-2.2,0.1-3.9,0.29
		c-1.7,0.2-2.98,0.29-3.84,0.29c-1.25,0-2.27-0.39-3.05-1.17c-0.78-0.78-1.17-1.82-1.17-3.11c0-1.13,0.3-2.06,0.91-2.79
		c0.61-0.72,1.38-1.08,2.32-1.08c0.31,0,0.77,0.07,1.38,0.21c0.61,0.14,1.06,0.21,1.38,0.21c1.06,0,1.58-1.33,1.58-3.99V84.36
		c0-1.25-0.04-2.05-0.12-2.4c-0.2-1.02-0.68-1.52-1.47-1.52c-0.31,0-0.77,0.07-1.38,0.21c-0.61,0.14-1.08,0.21-1.44,0.21
		c-0.9,0-1.65-0.37-2.26-1.11c-0.61-0.74-0.91-1.66-0.91-2.76c0-1.33,0.38-2.37,1.14-3.14s1.79-1.14,3.08-1.14
		c0.86,0,2.18,0.1,3.96,0.29c1.78,0.2,3.14,0.29,4.08,0.29c0.74,0,1.86-0.1,3.34-0.29c1.48-0.2,2.6-0.29,3.34-0.29
		c1.17,0,2.11,0.39,2.81,1.17c0.7,0.78,1.06,1.84,1.06,3.17c0,2.35-0.86,3.52-2.58,3.52h-0.53c-0.16-0.04-0.39-0.06-0.7-0.06
		c-0.63,0-1,0.41-1.11,1.23C279.54,81.76,279.54,82.45,279.54,83.78z"/>
	<path class="st0" d="M315.66,104.59c1.06,0,1.58-1.33,1.58-3.99V84.36c0-2.62-0.53-3.93-1.58-3.93c-0.31,0-0.77,0.07-1.38,0.21
		c-0.61,0.14-1.08,0.21-1.44,0.21c-0.9,0-1.65-0.37-2.26-1.11c-0.61-0.74-0.91-1.66-0.91-2.76c0-1.29,0.39-2.33,1.17-3.11
		c0.78-0.78,1.8-1.17,3.05-1.17c0.66,0,2.03,0.12,4.1,0.35c1.37,0.16,2.68,0.23,3.93,0.23c0.47,0,1.56-0.06,3.28-0.18l4.28-0.29
		c1.13-0.08,2.25-0.12,3.34-0.12c7.07,0,12.14,2.99,15.19,8.97c1.72,3.36,2.58,6.98,2.58,10.85c0,3.87-0.82,7.43-2.46,10.67
		c-1.64,3.25-3.83,5.63-6.57,7.15c-2.42,1.33-5.32,1.99-8.68,1.99c-1.33,0-2.46-0.04-3.4-0.12l-4.28-0.35
		c-0.94-0.08-2.03-0.12-3.28-0.12c-1.56,0-2.87,0.06-3.93,0.18l-2.35,0.23c-0.9,0.12-1.49,0.18-1.76,0.18
		c-1.25,0-2.27-0.39-3.05-1.17c-0.78-0.78-1.17-1.82-1.17-3.11c0-1.09,0.3-2.01,0.91-2.76c0.61-0.74,1.36-1.11,2.26-1.11
		c0.35,0,0.84,0.07,1.47,0.21C314.93,104.52,315.38,104.59,315.66,104.59z M330.9,80.2c-1.33,0-2.22,0.21-2.67,0.62
		c-0.45,0.41-0.67,1.22-0.67,2.43v18.47c0,1.21,0.22,2.03,0.67,2.46c0.45,0.43,1.34,0.65,2.67,0.65c2.15,0,4.08-0.88,5.8-2.64
		c1.99-2.07,2.99-5.14,2.99-9.21c0-4.57-1-7.95-2.99-10.14c-0.9-0.98-1.88-1.68-2.93-2.11C332.88,80.37,331.92,80.2,330.9,80.2z"/>
	<path class="st0" d="M379.34,99.9h-7.8c-2.23,0-3.34,1.33-3.34,3.99c0,0.63,0.33,0.94,1,0.94c0.2,0,0.49-0.03,0.88-0.09
		c0.39-0.06,0.68-0.09,0.88-0.09c1.45,0,2.17,1.15,2.17,3.46c0,1.25-0.33,2.27-1,3.05c-0.67,0.78-1.54,1.17-2.64,1.17
		c-0.55,0-1.76-0.14-3.64-0.41c-0.82-0.12-1.97-0.18-3.46-0.18c-1.6,0-2.85,0.06-3.75,0.18c-2.07,0.27-3.3,0.41-3.69,0.41
		c-1.21,0-2.2-0.37-2.96-1.11c-0.76-0.74-1.14-1.72-1.14-2.93c0-2.74,1.04-4.1,3.11-4.1c0.23,0,0.61,0.03,1.11,0.09
		c0.51,0.06,0.88,0.09,1.11,0.09c0.74,0,1.35-0.41,1.82-1.23c0.12-0.23,0.39-0.96,0.82-2.17l8.09-23.04
		c0.94-2.62,1.99-4.26,3.17-4.93c0.86-0.43,2.76-0.65,5.69-0.65c3.28,0,5.35,0.21,6.22,0.62c0.86,0.41,1.56,1.55,2.11,3.43
		l7.51,24.98c0.59,1.99,1.27,2.99,2.05,2.99c0.23,0,0.65-0.06,1.23-0.18h0.65c2.19,0,3.28,1.29,3.28,3.87
		c0,1.29-0.39,2.33-1.17,3.11c-0.78,0.78-1.8,1.17-3.05,1.17c-0.55,0-1.27-0.06-2.17-0.18c-1.09-0.19-1.82-0.29-2.17-0.29
		c-0.86-0.08-1.97-0.12-3.34-0.12c-1.49,0-2.48,0.04-2.99,0.12c-1.99,0.31-3.25,0.47-3.75,0.47c-1.06,0-1.93-0.4-2.61-1.2
		c-0.68-0.8-1.03-1.81-1.03-3.02c0-2.31,0.74-3.46,2.23-3.46c0.2,0,0.49,0.03,0.88,0.09c0.39,0.06,0.68,0.09,0.88,0.09
		c0.74,0,1.11-0.41,1.11-1.23c0-1.06-0.22-1.94-0.65-2.64C380.55,100.25,380,99.9,379.34,99.9z M378.46,90.93l-2.81-12.02
		l-3.64,12.49c-0.04,0.12-0.06,0.25-0.06,0.41c0,0.47,0.49,0.7,1.47,0.7h3.64c1.02,0,1.52-0.27,1.52-0.82
		C378.57,91.73,378.53,91.48,378.46,90.93z"/>
	<path class="st0" d="M417.27,83.78v6.33l8.5-7.86c1.37-1.25,2.05-2.17,2.05-2.76c0-0.31-0.08-0.55-0.23-0.7
		c-0.16-0.16-0.41-0.33-0.76-0.53c-0.74-0.55-1.11-1.27-1.11-2.17c0-1.02,0.35-1.84,1.06-2.46c0.7-0.62,1.62-0.94,2.76-0.94
		c0.74,0,1.83,0.1,3.25,0.29c1.43,0.2,2.51,0.29,3.25,0.29c0.82,0,1.95-0.12,3.4-0.35c0.98-0.16,1.82-0.23,2.52-0.23
		c1.29,0,2.32,0.36,3.08,1.08c0.76,0.72,1.14,1.71,1.14,2.96c0,1.13-0.3,2.1-0.91,2.9c-0.61,0.8-1.32,1.2-2.14,1.2
		c-0.27,0-0.66-0.07-1.14-0.21c-0.49-0.14-0.87-0.21-1.14-0.21c-0.47,0-1.13,0.33-1.99,1l-1.06,0.82l-5.69,4.98
		c-1.17,1.02-1.76,1.74-1.76,2.17c0,0.23,0.21,0.72,0.65,1.47l1.52,2.7l4.16,7.09c1.52,2.62,2.74,3.93,3.64,3.93
		c0.23,0,0.63-0.07,1.2-0.21c0.57-0.14,1.01-0.21,1.32-0.21c2.11,0,3.17,1.29,3.17,3.87c0,1.29-0.39,2.33-1.17,3.11
		c-0.78,0.78-1.82,1.17-3.11,1.17c-0.74,0-1.62-0.08-2.64-0.23c-1.52-0.23-2.89-0.35-4.1-0.35c-0.7,0-1.75,0.1-3.14,0.29
		c-1.39,0.2-2.43,0.29-3.14,0.29c-1.02,0-1.88-0.31-2.58-0.94c-0.7-0.62-1.06-1.41-1.06-2.35c0-0.9,0.55-1.8,1.64-2.7
		c0.51-0.39,0.76-0.82,0.76-1.29c0-0.43-0.31-1.19-0.94-2.29l-3.11-5.39c-0.7-1.25-1.19-1.88-1.47-1.88c-0.23,0-0.45,0.1-0.65,0.29
		l-0.59,0.59l-3.46,2.87v1.99c0,1.33,0,2.01,0,2.05c0.12,0.82,0.51,1.23,1.17,1.23c0.04,0,0.14-0.02,0.29-0.06c0.16,0,0.27,0,0.35,0
		c0.12-0.04,0.29-0.06,0.53-0.06c1.72,0,2.58,1.21,2.58,3.64c0,1.29-0.35,2.33-1.06,3.11c-0.7,0.78-1.66,1.17-2.87,1.17
		c-0.55,0-1.35-0.08-2.4-0.23c-1.21-0.16-2.03-0.25-2.46-0.29c-0.59-0.04-1.27-0.06-2.05-0.06c-0.9,0-2.2,0.1-3.9,0.29
		c-1.7,0.2-2.98,0.29-3.84,0.29c-1.25,0-2.27-0.39-3.05-1.17c-0.78-0.78-1.17-1.82-1.17-3.11c0-1.13,0.3-2.06,0.91-2.79
		c0.61-0.72,1.38-1.08,2.32-1.08c0.31,0,0.77,0.07,1.38,0.21c0.61,0.14,1.06,0.21,1.38,0.21c1.06,0,1.58-1.33,1.58-3.99V84.36
		c0-1.25-0.04-2.05-0.12-2.4c-0.2-1.02-0.68-1.52-1.47-1.52c-0.31,0-0.77,0.07-1.38,0.21c-0.61,0.14-1.08,0.21-1.44,0.21
		c-0.9,0-1.65-0.37-2.26-1.11c-0.61-0.74-0.91-1.66-0.91-2.76c0-1.33,0.38-2.37,1.14-3.14s1.79-1.14,3.08-1.14
		c0.86,0,2.18,0.1,3.96,0.29c1.78,0.2,3.14,0.29,4.08,0.29c0.74,0,1.86-0.1,3.34-0.29c1.48-0.2,2.6-0.29,3.34-0.29
		c1.17,0,2.11,0.39,2.81,1.17c0.7,0.78,1.06,1.84,1.06,3.17c0,2.35-0.86,3.52-2.58,3.52h-0.53c-0.16-0.04-0.39-0.06-0.7-0.06
		c-0.63,0-1,0.41-1.11,1.23C417.27,81.76,417.27,82.45,417.27,83.78z"/>
	<path class="st0" d="M465.29,83.78v6.33l8.5-7.86c1.37-1.25,2.05-2.17,2.05-2.76c0-0.31-0.08-0.55-0.23-0.7
		c-0.16-0.16-0.41-0.33-0.76-0.53c-0.74-0.55-1.11-1.27-1.11-2.17c0-1.02,0.35-1.84,1.06-2.46c0.7-0.62,1.62-0.94,2.76-0.94
		c0.74,0,1.83,0.1,3.25,0.29c1.43,0.2,2.51,0.29,3.25,0.29c0.82,0,1.95-0.12,3.4-0.35c0.98-0.16,1.82-0.23,2.52-0.23
		c1.29,0,2.32,0.36,3.08,1.08c0.76,0.72,1.14,1.71,1.14,2.96c0,1.13-0.3,2.1-0.91,2.9c-0.61,0.8-1.32,1.2-2.14,1.2
		c-0.27,0-0.66-0.07-1.14-0.21c-0.49-0.14-0.87-0.21-1.14-0.21c-0.47,0-1.13,0.33-1.99,1l-1.06,0.82l-5.69,4.98
		c-1.17,1.02-1.76,1.74-1.76,2.17c0,0.23,0.21,0.72,0.65,1.47l1.52,2.7l4.16,7.09c1.52,2.62,2.74,3.93,3.64,3.93
		c0.23,0,0.63-0.07,1.2-0.21c0.57-0.14,1.01-0.21,1.32-0.21c2.11,0,3.17,1.29,3.17,3.87c0,1.29-0.39,2.33-1.17,3.11
		c-0.78,0.78-1.82,1.17-3.11,1.17c-0.74,0-1.62-0.08-2.64-0.23c-1.52-0.23-2.89-0.35-4.1-0.35c-0.7,0-1.75,0.1-3.14,0.29
		c-1.39,0.2-2.43,0.29-3.14,0.29c-1.02,0-1.88-0.31-2.58-0.94c-0.7-0.62-1.06-1.41-1.06-2.35c0-0.9,0.55-1.8,1.64-2.7
		c0.51-0.39,0.76-0.82,0.76-1.29c0-0.43-0.31-1.19-0.94-2.29l-3.11-5.39c-0.7-1.25-1.19-1.88-1.47-1.88c-0.23,0-0.45,0.1-0.65,0.29
		l-0.59,0.59l-3.46,2.87v1.99c0,1.33,0,2.01,0,2.05c0.12,0.82,0.51,1.23,1.17,1.23c0.04,0,0.14-0.02,0.29-0.06c0.16,0,0.27,0,0.35,0
		c0.12-0.04,0.29-0.06,0.53-0.06c1.72,0,2.58,1.21,2.58,3.64c0,1.29-0.35,2.33-1.06,3.11c-0.7,0.78-1.66,1.17-2.87,1.17
		c-0.55,0-1.35-0.08-2.4-0.23c-1.21-0.16-2.03-0.25-2.46-0.29c-0.59-0.04-1.27-0.06-2.05-0.06c-0.9,0-2.2,0.1-3.9,0.29
		c-1.7,0.2-2.98,0.29-3.84,0.29c-1.25,0-2.27-0.39-3.05-1.17c-0.78-0.78-1.17-1.82-1.17-3.11c0-1.13,0.3-2.06,0.91-2.79
		c0.61-0.72,1.38-1.08,2.32-1.08c0.31,0,0.77,0.07,1.38,0.21c0.61,0.14,1.06,0.21,1.38,0.21c1.06,0,1.58-1.33,1.58-3.99V84.36
		c0-1.25-0.04-2.05-0.12-2.4c-0.2-1.02-0.68-1.52-1.47-1.52c-0.31,0-0.77,0.07-1.38,0.21c-0.61,0.14-1.08,0.21-1.44,0.21
		c-0.9,0-1.65-0.37-2.26-1.11c-0.61-0.74-0.91-1.66-0.91-2.76c0-1.33,0.38-2.37,1.14-3.14s1.79-1.14,3.08-1.14
		c0.86,0,2.18,0.1,3.96,0.29c1.78,0.2,3.14,0.29,4.08,0.29c0.74,0,1.86-0.1,3.34-0.29c1.48-0.2,2.6-0.29,3.34-0.29
		c1.17,0,2.11,0.39,2.81,1.17c0.7,0.78,1.06,1.84,1.06,3.17c0,2.35-0.86,3.52-2.58,3.52h-0.53c-0.16-0.04-0.39-0.06-0.7-0.06
		c-0.63,0-1,0.41-1.11,1.23C465.29,81.76,465.29,82.45,465.29,83.78z"/>
	<path class="st0" d="M501.41,104.59c0.78,0,1.27-0.51,1.47-1.52c0.08-0.39,0.12-1.21,0.12-2.46V84.36c0-1.25-0.04-2.05-0.12-2.4
		c-0.2-1.02-0.68-1.52-1.47-1.52c-0.31,0-0.77,0.07-1.38,0.21c-0.61,0.14-1.08,0.21-1.44,0.21c-0.9,0-1.65-0.37-2.26-1.11
		c-0.61-0.74-0.91-1.66-0.91-2.76c0-1.33,0.38-2.37,1.14-3.14s1.79-1.14,3.08-1.14c0.59,0,1.95,0.12,4.1,0.35
		c1.45,0.16,2.85,0.23,4.22,0.23c1.09,0,2.67-0.1,4.72-0.29c2.05-0.2,3.41-0.29,4.08-0.29c2.85,0,4.28,1.43,4.28,4.28
		c0,1.1-0.3,2.01-0.91,2.76c-0.61,0.74-1.36,1.11-2.26,1.11c-0.31,0-0.78-0.07-1.41-0.21c-0.63-0.14-1.1-0.21-1.41-0.21
		c-1.06,0-1.58,1.31-1.58,3.93v16.24c0,2.66,0.53,3.99,1.58,3.99c0.31,0,0.78-0.07,1.41-0.21c0.62-0.14,1.09-0.21,1.41-0.21
		c0.9,0,1.65,0.37,2.26,1.11c0.61,0.74,0.91,1.66,0.91,2.76c0,1.25-0.38,2.29-1.14,3.11c-0.76,0.82-1.73,1.23-2.9,1.23
		c-0.23,0-0.41-0.02-0.53-0.06l-3.69-0.47c-0.94-0.12-1.97-0.18-3.11-0.18c-1.76,0-3.6,0.1-5.51,0.29
		c-2.31,0.23-3.81,0.35-4.51,0.35c-1.25,0-2.27-0.39-3.05-1.17c-0.78-0.78-1.17-1.82-1.17-3.11c0-1.13,0.3-2.06,0.91-2.79
		c0.61-0.72,1.38-1.08,2.32-1.08c0.31,0,0.77,0.07,1.38,0.21C500.64,104.52,501.1,104.59,501.41,104.59z"/>
	<path class="st0" d="M544.51,80.08c-1.29,0-2.15,0.12-2.58,0.35c-0.59,0.35-0.88,1.13-0.88,2.35v3.28c0,0.67,0.09,1.16,0.26,1.5
		c0.18,0.33,0.64,0.5,1.38,0.5c1.72,0,2.58-0.62,2.58-1.88v-0.76c-0.04-0.23-0.06-0.53-0.06-0.88c0-1.64,0.96-2.46,2.87-2.46
		c1.99,0,2.99,1,2.99,2.99c0,0.55-0.04,1.15-0.12,1.82c-0.16,1.29-0.23,2.48-0.23,3.58c0,1.02,0.08,2.31,0.23,3.87
		c0.16,1.56,0.23,2.66,0.23,3.28c0,2.31-1.04,3.46-3.11,3.46c-1.96,0-2.93-1-2.93-2.99v-0.29c0-0.2,0.04-0.66,0.12-1.41
		c0-0.94-0.84-1.41-2.52-1.41c-1.13,0-1.7,0.63-1.7,1.88v4.4c0,1.37,0.24,2.3,0.73,2.79c0.49,0.49,1.4,0.73,2.73,0.73h3.4
		c2.5,0,4.25-0.21,5.25-0.65c1-0.43,1.5-1.19,1.5-2.29c0-0.55-0.06-1.2-0.18-1.96c-0.12-0.76-0.18-1.4-0.18-1.91
		c0-1.45,0.41-2.58,1.23-3.4s1.94-1.23,3.34-1.23c2.85,0,4.28,1.56,4.28,4.69c0,1.02-0.06,2.09-0.18,3.23
		c-0.2,1.88-0.29,3.05-0.29,3.52c0,0.43,0.1,1.27,0.29,2.52c0.12,0.74,0.18,1.51,0.18,2.29c0,1.84-1.15,2.76-3.46,2.76
		c-0.74,0-1.97-0.06-3.69-0.18c-2.85-0.19-7.41-0.33-13.66-0.41h-5.22c-1.96,0-3.58,0.06-4.87,0.18l-4.46,0.41
		c-0.04,0-0.12,0.02-0.23,0.06c-0.12,0-0.22,0-0.29,0c-1.21,0-2.2-0.41-2.96-1.23c-0.76-0.82-1.14-1.86-1.14-3.11
		c0-1.09,0.3-2.01,0.91-2.76c0.61-0.74,1.38-1.11,2.32-1.11c0.31,0,0.78,0.07,1.41,0.21c0.62,0.14,1.07,0.21,1.35,0.21
		c1.06,0,1.58-1.33,1.58-3.99V84.36c0-2.62-0.53-3.93-1.58-3.93c-0.23,0-0.7,0.08-1.41,0.23c-0.51,0.12-0.96,0.18-1.35,0.18
		c-0.9,0-1.66-0.37-2.29-1.11c-0.63-0.74-0.94-1.66-0.94-2.76c0-2.85,1.43-4.28,4.28-4.28c0.66,0,2.01,0.08,4.05,0.23
		c3.05,0.23,6,0.35,8.85,0.35c0.27,0,2.62-0.06,7.04-0.18c3.21-0.08,5.32-0.16,6.33-0.23c1.68-0.12,3.44-0.18,5.28-0.18
		c2.19,0,3.28,0.96,3.28,2.87c0,0.63-0.07,1.54-0.21,2.76c-0.14,1.21-0.21,2.13-0.21,2.76c0,0.63,0.09,1.52,0.26,2.67
		c0.18,1.15,0.26,2.02,0.26,2.61c0,1.13-0.42,2.09-1.26,2.87c-0.84,0.78-1.89,1.17-3.14,1.17c-2.93,0-4.4-1.5-4.4-4.51
		c0-0.51,0.09-1.21,0.26-2.11c0.18-0.9,0.26-1.56,0.26-1.99c0-0.86-0.45-1.39-1.35-1.58c-0.31-0.08-1.13-0.12-2.46-0.12H544.51z"/>
</g>
<g>
	<g>
		<path class="st1" d="M408.79,133.87c0.12,0.55-0.1,1.13-0.67,1.75c-1.07,0.65-1.98,1.17-2.72,1.56c-0.2,0.1-0.45,0.15-0.75,0.15
			c-0.5,0-0.78-0.1-0.86-0.3c0.05-0.15,0.52-0.5,1.42-1.04c0.07-0.05,0.18-0.12,0.32-0.2c0.14-0.09,0.23-0.14,0.28-0.17
			c0.6-0.52,0.88-0.94,0.86-1.27c-0.07-0.2-0.34-0.3-0.78-0.3c-0.2,0-0.33,0.01-0.41,0.04c-2.14,0-4.82,1.52-8.05,4.55
			c-1.96,1.84-3.06,3.43-3.28,4.77c-0.1,0.3-0.16,0.51-0.19,0.63c-0.07,0.2-0.06,0.41,0.04,0.63c0.05,0.3,0.27,0.45,0.67,0.45
			c1.09,0,2.6-0.75,4.51-2.24c0.42-0.32,0.89-0.71,1.42-1.16c2.11-1.79,3.82-2.68,5.14-2.68c0.6,0,0.94,0.22,1.04,0.67
			c0.1,0.42-0.21,1.23-0.93,2.42c-0.15,0.25-0.52,0.79-1.12,1.64l-0.15,0.15l-1.23,1.68c1.14-0.62,1.81-0.93,2.01-0.93
			c0.22,0,0.34,0.07,0.34,0.22c0,0.1-0.04,0.21-0.11,0.34c-0.12,0.35-0.36,0.61-0.71,0.78l-1.42,0.71c-0.3,0.15-0.82,0.45-1.56,0.89
			c-4.4,6.08-7.92,10.69-10.58,13.82c-3.75,4.4-6.48,6.59-8.2,6.59c-0.65,0-1.04-0.25-1.19-0.75c-0.15-0.57,0.06-1.48,0.63-2.72
			c3.03-6.48,9.02-12.29,17.96-17.44c0.4-0.52,0.87-1.2,1.42-2.05l0.82-1.23c0.35-0.52,0.88-1.29,1.6-2.31
			c0.22-0.32,0.31-0.58,0.26-0.78c-0.02-0.1-0.09-0.15-0.19-0.15c-0.15,0-0.4,0.12-0.75,0.37c-0.62,0.47-1.54,1.18-2.76,2.12
			c-2.56,1.91-4.87,2.99-6.93,3.24c-1.17,0.12-1.84-0.17-2.01-0.89c-0.07-0.3-0.04-0.78,0.11-1.45c0.07-0.35,0.21-0.76,0.41-1.23
			c0.77-1.89,2.31-3.79,4.62-5.7c2.71-2.24,5.37-3.56,7.97-3.99c0.62-0.1,1.14-0.15,1.56-0.15c0.3,0,0.51,0.01,0.63,0.04
			c0.47,0.1,0.77,0.17,0.89,0.22C408.52,133.35,408.72,133.57,408.79,133.87z M392.47,157.9c1.59-2.04,3.7-4.84,6.33-8.42
			c-2.86,1.89-5.4,3.96-7.64,6.22c-2.56,2.58-4.36,4.63-5.4,6.15c-0.57,0.82-1.03,1.65-1.38,2.5c-0.27,0.65-0.37,1.12-0.3,1.42
			c0.07,0.2,0.21,0.3,0.41,0.3C385.59,166.06,388.25,163.34,392.47,157.9z"/>
		<path class="st1" d="M425.63,138.15c0.27-0.3,0.61-0.45,1.01-0.45c0.3,0,0.46,0.07,0.48,0.22c0.05,0.17-0.06,0.4-0.34,0.67
			c-1.56,1.56-3.29,3.07-5.18,4.51c-2.71,2.06-4.74,3.09-6.11,3.09c-0.52,0-0.84-0.21-0.97-0.63c-0.25-0.92,0.4-2.6,1.94-5.03
			c0.25-0.45,0.65-1.09,1.19-1.94l-4.36,3.91c-1.07,0.92-1.78,1.52-2.12,1.79c-1.37,1.02-2.47,1.53-3.32,1.53
			c-0.72,0-1.14-0.27-1.27-0.82c-0.15-0.62,0.14-1.63,0.86-3.02c0.22-0.42,0.75-1.23,1.56-2.42c1.19-1.71,2.14-3.02,2.83-3.91
			l0.71-0.89c0.12-0.15,0.25-0.32,0.37-0.52c-0.99,0.4-2.1,0.72-3.32,0.97c-0.25,0.05-0.4,0.03-0.45-0.07
			c-0.07-0.2,0.19-0.53,0.78-0.99c0.4-0.27,1.23-0.64,2.5-1.1c1.17-0.44,2.02-0.7,2.57-0.77c0.5-0.07,0.78-0.04,0.86,0.11
			c0.05,0.15-0.01,0.35-0.19,0.59c-0.25,0.37-0.62,0.87-1.12,1.49c-0.2,0.27-0.47,0.66-0.82,1.15c-3.68,4.88-5.42,7.68-5.22,8.39
			c0.05,0.07,0.1,0.11,0.15,0.11c0.17,0,0.65-0.24,1.42-0.71c2.16-1.34,4.15-2.89,5.96-4.66l5.4-5.25c0.27-0.27,0.73-0.41,1.38-0.41
			c0.32,0,0.52,0.07,0.6,0.22c-0.05,0.15-0.11,0.3-0.19,0.45c-0.82,1.04-2.01,2.65-3.58,4.81c-2.29,3.4-3.35,5.39-3.2,5.96
			c0,0.1,0.06,0.15,0.19,0.15c0.02-0.02,0.1-0.05,0.22-0.07C419.93,143.23,422.85,141.09,425.63,138.15z"/>
		<path class="st1" d="M440.35,136.55c0.27-0.27,0.71-0.41,1.3-0.41c0.2,0,0.31,0.05,0.33,0.15c0,0.12-0.05,0.24-0.15,0.34
			c-1.27,1.29-2.72,2.55-4.36,3.76l-4.66,3.43c-1.09,0.8-2.22,1.62-3.39,2.46c-1.74,1.14-3.3,1.76-4.69,1.86
			c-1.52,0.12-2.37-0.31-2.57-1.3c-0.25-1.17,0.31-2.45,1.68-3.84c0.97-0.97,2.15-1.85,3.54-2.65c-0.84,0.05-1.63-0.06-2.35-0.34
			c-0.5-0.17-0.79-0.46-0.89-0.86c-0.15-0.57,0.3-1.35,1.34-2.35c1.56-1.47,3.86-2.67,6.89-3.61c1.42-0.45,2.68-0.68,3.8-0.71
			c1.09-0.02,1.68,0.15,1.75,0.52c0.07,0.45-0.27,0.97-1.04,1.56c-0.99,0.77-1.78,1.15-2.35,1.15c-0.37,0-0.57-0.09-0.6-0.26
			c-0.05-0.2,0.16-0.42,0.63-0.67c0.94-0.52,1.4-0.83,1.38-0.93c0-0.12-0.17-0.17-0.52-0.15c-1.02,0.1-2.31,0.46-3.88,1.08
			c-3.85,1.52-5.66,2.82-5.44,3.91c0.05,0.2,0.2,0.32,0.45,0.37c0.42,0.1,1.07,0.1,1.94,0c1.07-0.12,1.95-0.29,2.65-0.48
			c0.1-0.02,0.25-0.04,0.45-0.04c0.22,0,0.37,0.07,0.45,0.22c0.05,0.27-0.29,0.6-1.01,0.97c-0.52,0.25-1.02,0.49-1.49,0.73
			c-0.47,0.24-1.18,0.69-2.12,1.36c-2.06,1.47-3.2,2.78-3.43,3.95c0,0.75,0.29,1.12,0.86,1.12c1.37,0,4.06-1.44,8.08-4.32
			C436.07,140.33,438.54,138.32,440.35,136.55z"/>
		<path class="st1" d="M450.56,128.32c0.22-0.02,0.38,0.02,0.48,0.13s0.1,0.24,0,0.39c-0.67,1.52-1.66,2.65-2.98,3.39l-1.04,0.6
			l-1.45,5.07c-0.4,1.39-0.67,2.31-0.82,2.76c-0.02,0.17-0.09,0.43-0.19,0.78c-0.17,0.42-0.46,1.03-0.86,1.83
			c-1.27,2.04-3.13,3.02-5.59,2.94c-1.02-0.02-1.6-0.31-1.75-0.86c-0.2-0.79,0.62-1.94,2.46-3.43c0.27-0.22,0.6-0.34,0.97-0.34
			c0.25,0,0.4,0.06,0.45,0.19c0.02,0.1-0.17,0.35-0.6,0.75l-0.78,0.71c-0.57,0.52-0.83,0.91-0.78,1.15c0,0.07,0.07,0.11,0.22,0.11
			c0.35,0,0.79-0.17,1.34-0.52c0.55-0.35,0.97-0.68,1.27-1.01c0.82-0.92,1.54-2.05,2.16-3.39c0.27-0.62,0.75-1.88,1.42-3.76
			l0.56-1.6l-4.92,4.17c-0.77,0.62-1.83,1.49-3.17,2.61c-0.5,0.42-0.99,0.86-1.49,1.3c-0.7,0.57-1.25,0.86-1.68,0.86
			c-0.25,0-0.38-0.06-0.41-0.19c-0.05-0.12,0.07-0.31,0.37-0.56l8.5-7.19c0.57-0.5,1.44-1.17,2.61-2.01l0.93-0.67l0.34-0.67
			C447.17,129.8,448.65,128.62,450.56,128.32z"/>
		<path class="st1" d="M479.28,122.71l0.11,0.1c0.05,0.12-0.06,0.27-0.34,0.47c-0.27,0.2-0.47,0.27-0.6,0.22
			c-3.23-0.1-6.88-0.15-10.95-0.15h-2.76c-1.24,0-2.17,0.01-2.79,0.04l-5.81,7.54c-1.09,1.44-1.86,2.47-2.31,3.12l-6,8.91
			c0.52-0.45,1.03-0.67,1.53-0.67c0.25,0,0.4,0.07,0.45,0.22c0.07,0.22-0.6,0.94-2.01,2.16c-1.19,1.02-2.1,1.53-2.72,1.53
			c-0.17,0-0.3-0.06-0.37-0.19c-0.2-0.35-0.07-0.87,0.37-1.56c2.09-3.06,4.23-6.3,6.45-9.72c0.67-0.94,1.66-2.29,2.98-4.02
			l0.82-1.08c0.97-1.27,2.57-3.35,4.81-6.26l-19.37,0.52l-0.22-0.07c-0.05-0.12,0.06-0.29,0.32-0.48c0.26-0.2,0.47-0.3,0.61-0.3
			l19.34-0.52c1.19-1.64,2.52-3.39,3.99-5.25c0.15-0.25,0.55-0.48,1.19-0.71c0.35-0.12,0.58-0.19,0.71-0.19
			c0.17,0,0.26,0.05,0.26,0.15c0.02,0.1-0.01,0.22-0.11,0.37c-0.77,1.07-2.17,2.93-4.21,5.59c0.65,0.02,1.59,0.04,2.83,0.04h2.79
			C472.3,122.51,475.98,122.58,479.28,122.71z"/>
		<path class="st1" d="M478.65,137.93c0.25-0.25,0.75-0.37,1.49-0.37c0.35,0,0.52,0.06,0.52,0.19c0.02,0.07-0.02,0.17-0.15,0.3
			c-3.11,2.83-5.86,4.98-8.27,6.45c-0.87,0.52-1.61,0.94-2.24,1.27c-2.58,1.32-4.6,1.98-6.04,1.98c-1.52,0-2.42-0.68-2.72-2.05
			c-0.02-0.22-0.06-0.52-0.11-0.89c0-1.04,0.62-2.38,1.86-4.02c0.84-1.09,2.05-2.32,3.61-3.69c2.26-1.96,4.58-3.34,6.97-4.14
			c0.82-0.27,1.5-0.41,2.05-0.41c1.19,0,1.92,0.42,2.2,1.27c0.22,0.97-0.89,2.3-3.35,3.99c-0.25,0.17-0.62,0.26-1.12,0.26
			c-0.47,0-0.75-0.06-0.82-0.19c-0.03-0.1,0.11-0.25,0.41-0.45c1.37-0.92,2.33-1.83,2.91-2.72c0.25-0.4,0.34-0.68,0.26-0.86
			c-0.07-0.37-0.58-0.42-1.53-0.15c-1.71,0.47-3.64,1.52-5.77,3.13c-3.45,2.61-5.5,5.12-6.15,7.53c-0.12,0.45-0.15,0.83-0.07,1.15
			c0.12,0.57,0.61,0.86,1.45,0.86c1.54,0,4.1-1.12,7.68-3.35C474.9,141.01,477.21,139.32,478.65,137.93z"/>
		<path class="st1" d="M492.96,137c0.94-0.62,1.66-0.93,2.16-0.93c0.1,0,0.17,0.02,0.22,0.07c0,0.07-0.07,0.19-0.22,0.33
			c-1.12,1.04-2.4,2.01-3.84,2.91c-0.87,0.52-1.75,0.98-2.65,1.36c-0.89,0.39-1.66,0.59-2.31,0.61c-0.37,0.37-0.93,0.84-1.68,1.42
			c-2.78,2.41-5.27,3.61-7.45,3.61c-1.34,0-2.16-0.55-2.46-1.64c-0.12-0.5-0.07-1.08,0.15-1.75c0.62-1.79,2.21-3.84,4.77-6.15
			c2.93-2.63,4.99-3.95,6.18-3.95c0.4,0,0.63,0.1,0.71,0.3c0.07,0.3-0.19,0.56-0.78,0.78c-1.59,0.62-3.37,1.89-5.33,3.8
			c-1.59,1.54-2.58,2.67-2.98,3.39l-0.37,0.67c-0.03,0.03-0.11,0.24-0.26,0.63c-0.4,0.97-0.55,1.63-0.45,1.98
			c0.12,0.42,0.45,0.63,0.97,0.63c0.84,0,1.99-0.41,3.43-1.23c1.32-0.75,2.31-1.48,2.98-2.2c-1.39,0.12-2.2-0.26-2.42-1.16
			c-0.15-0.57-0.07-1.2,0.22-1.9c0.37-0.92,1.18-1.89,2.42-2.91c2.06-1.69,3.81-2.53,5.25-2.53c0.89,0,1.4,0.26,1.53,0.78
			c0.27,1.27-0.65,3.12-2.76,5.55c0.57-0.07,1.55-0.46,2.94-1.15L492.96,137z M483.64,139.24c0,0.15,0.02,0.29,0.07,0.41
			c0.15,0.55,0.63,0.77,1.45,0.67c0.79-0.89,1.4-1.65,1.83-2.27l1.12-1.68c0.15-0.35,0.24-0.6,0.26-0.75
			c0.07-0.25,0.09-0.46,0.04-0.63c-0.05-0.25-0.2-0.37-0.45-0.37c-0.82,0-1.89,0.82-3.2,2.46
			C484.04,137.97,483.67,138.69,483.64,139.24z"/>
		<path class="st1" d="M523.96,122.71l0.11,0.1c0.05,0.12-0.06,0.27-0.34,0.47c-0.27,0.2-0.47,0.27-0.6,0.22
			c-3.23-0.1-6.88-0.15-10.95-0.15h-2.76c-1.24,0-2.17,0.01-2.79,0.04l-5.81,7.54c-1.09,1.44-1.86,2.47-2.31,3.12l-6,8.91
			c0.52-0.45,1.03-0.67,1.53-0.67c0.25,0,0.4,0.07,0.45,0.22c0.07,0.22-0.6,0.94-2.01,2.16c-1.19,1.02-2.1,1.53-2.72,1.53
			c-0.17,0-0.3-0.06-0.37-0.19c-0.2-0.35-0.07-0.87,0.37-1.56c2.09-3.06,4.23-6.3,6.45-9.72c0.67-0.94,1.66-2.29,2.98-4.02
			l0.82-1.08c0.97-1.27,2.57-3.35,4.81-6.26l-19.37,0.52l-0.22-0.07c-0.05-0.12,0.06-0.29,0.32-0.48c0.26-0.2,0.47-0.3,0.61-0.3
			l19.34-0.52c1.19-1.64,2.52-3.39,3.99-5.25c0.15-0.25,0.55-0.48,1.19-0.71c0.35-0.12,0.58-0.19,0.71-0.19
			c0.17,0,0.26,0.05,0.26,0.15c0.02,0.1-0.01,0.22-0.11,0.37c-0.77,1.07-2.17,2.93-4.21,5.59c0.65,0.02,1.59,0.04,2.83,0.04h2.79
			C516.98,122.51,520.65,122.58,523.96,122.71z"/>
		<path class="st1" d="M531.04,122.71l0.11,0.1c0.05,0.12-0.06,0.27-0.34,0.47c-0.27,0.2-0.47,0.27-0.6,0.22
			c-3.23-0.1-6.88-0.15-10.95-0.15h-2.76c-1.24,0-2.17,0.01-2.79,0.04l-5.81,7.54c-1.09,1.44-1.86,2.47-2.31,3.12l-6,8.91
			c0.52-0.45,1.03-0.67,1.53-0.67c0.25,0,0.4,0.07,0.45,0.22c0.07,0.22-0.6,0.94-2.01,2.16c-1.19,1.02-2.1,1.53-2.72,1.53
			c-0.17,0-0.3-0.06-0.37-0.19c-0.2-0.35-0.07-0.87,0.37-1.56c2.09-3.06,4.23-6.3,6.45-9.72c0.67-0.94,1.66-2.29,2.98-4.02
			l0.82-1.08c0.97-1.27,2.57-3.35,4.81-6.26l-19.37,0.52l-0.22-0.07c-0.05-0.12,0.06-0.29,0.32-0.48c0.26-0.2,0.47-0.3,0.61-0.3
			l19.34-0.52c1.19-1.64,2.52-3.39,3.99-5.25c0.15-0.25,0.55-0.48,1.19-0.71c0.35-0.12,0.58-0.19,0.71-0.19
			c0.17,0,0.26,0.05,0.26,0.15c0.02,0.1-0.01,0.22-0.11,0.37c-0.77,1.07-2.17,2.93-4.21,5.59c0.65,0.02,1.59,0.04,2.83,0.04h2.79
			C524.06,122.51,527.73,122.58,531.04,122.71z"/>
		<path class="st1" d="M522.54,140.16c0.22-0.15,0.61-0.22,1.15-0.22c0.4,0,0.65,0.05,0.75,0.15c0.1,0.1-0.02,0.26-0.37,0.48
			c-3.03,1.88-5.35,3.37-6.95,4.48c-1.6,1.11-2.76,1.67-3.48,1.67c-1.02,0-1.53-0.5-1.53-1.51c0-0.69,0.31-1.61,0.93-2.77
			c-3.65,2.61-6.19,3.91-7.6,3.91c-0.99,0-1.58-0.42-1.75-1.27c-0.25-1.12,0.65-2.93,2.68-5.44c3.4-4.2,7.2-6.64,11.4-7.34
			c0.6-0.1,1.09-0.15,1.49-0.15c1.09,0,1.64,0.34,1.64,1.01c0,0.92-0.47,1.65-1.42,2.2c-0.25,0.15-0.51,0.22-0.78,0.22
			c-0.47,0-0.73-0.11-0.78-0.34c-0.02-0.2,0.14-0.38,0.48-0.56c0.4-0.32,0.56-0.65,0.48-0.97c-0.07-0.35-0.42-0.47-1.04-0.37
			c-0.97,0.15-2.31,0.71-4.02,1.68c-1.61,0.92-3.18,2.1-4.69,3.54c-1.66,1.59-2.83,3.13-3.5,4.62c-0.3,0.7-0.42,1.19-0.37,1.49
			c0.05,0.22,0.22,0.34,0.52,0.34c0.84,0,2.4-0.76,4.68-2.29c2.27-1.53,4.24-3.15,5.91-4.86c0.3-0.3,0.61-0.65,0.93-1.04
			c0.35-0.27,0.88-0.41,1.6-0.41c0.27,0,0.43,0.06,0.48,0.19c0,0.12-0.05,0.23-0.15,0.33c-1.54,1.53-2.68,2.81-3.43,3.82
			c-1.07,1.46-1.52,2.88-1.34,4.27c0.99-0.52,2.45-1.34,4.36-2.48L522.54,140.16z"/>
		<path class="st1" d="M538.11,133.87c0.12,0.55-0.1,1.13-0.67,1.75c-1.07,0.65-1.98,1.17-2.72,1.56c-0.2,0.1-0.45,0.15-0.75,0.15
			c-0.5,0-0.78-0.1-0.86-0.3c0.05-0.15,0.52-0.5,1.42-1.04c0.07-0.05,0.18-0.12,0.32-0.2c0.14-0.09,0.23-0.14,0.28-0.17
			c0.6-0.52,0.88-0.94,0.86-1.27c-0.07-0.2-0.34-0.3-0.78-0.3c-0.2,0-0.33,0.01-0.41,0.04c-2.14,0-4.82,1.52-8.05,4.55
			c-1.96,1.84-3.06,3.43-3.28,4.77c-0.1,0.3-0.16,0.51-0.19,0.63c-0.07,0.2-0.06,0.41,0.04,0.63c0.05,0.3,0.27,0.45,0.67,0.45
			c1.09,0,2.6-0.75,4.51-2.24c0.42-0.32,0.89-0.71,1.42-1.16c2.11-1.79,3.82-2.68,5.14-2.68c0.6,0,0.94,0.22,1.04,0.67
			c0.1,0.42-0.21,1.23-0.93,2.42c-0.15,0.25-0.52,0.79-1.12,1.64l-0.15,0.15l-1.23,1.68c1.14-0.62,1.81-0.93,2.01-0.93
			c0.22,0,0.34,0.07,0.34,0.22c0,0.1-0.04,0.21-0.11,0.34c-0.12,0.35-0.36,0.61-0.71,0.78l-1.42,0.71c-0.3,0.15-0.82,0.45-1.56,0.89
			c-4.4,6.08-7.92,10.69-10.58,13.82c-3.75,4.4-6.48,6.59-8.2,6.59c-0.65,0-1.04-0.25-1.19-0.75c-0.15-0.57,0.06-1.48,0.63-2.72
			c3.03-6.48,9.02-12.29,17.96-17.44c0.4-0.52,0.87-1.2,1.42-2.05l0.82-1.23c0.35-0.52,0.88-1.29,1.6-2.31
			c0.22-0.32,0.31-0.58,0.26-0.78c-0.02-0.1-0.09-0.15-0.19-0.15c-0.15,0-0.4,0.12-0.75,0.37c-0.62,0.47-1.54,1.18-2.76,2.12
			c-2.56,1.91-4.87,2.99-6.93,3.24c-1.17,0.12-1.84-0.17-2.01-0.89c-0.07-0.3-0.04-0.78,0.11-1.45c0.07-0.35,0.21-0.76,0.41-1.23
			c0.77-1.89,2.31-3.79,4.62-5.7c2.71-2.24,5.37-3.56,7.97-3.99c0.62-0.1,1.14-0.15,1.56-0.15c0.3,0,0.51,0.01,0.63,0.04
			c0.47,0.1,0.77,0.17,0.89,0.22C537.84,133.35,538.04,133.57,538.11,133.87z M521.79,157.9c1.59-2.04,3.7-4.84,6.33-8.42
			c-2.86,1.89-5.4,3.96-7.64,6.22c-2.56,2.58-4.36,4.63-5.4,6.15c-0.57,0.82-1.03,1.65-1.38,2.5c-0.27,0.65-0.37,1.12-0.3,1.42
			c0.07,0.2,0.21,0.3,0.41,0.3C514.91,166.06,517.57,163.34,521.79,157.9z"/>
		<path class="st1" d="M553.35,136.55c0.27-0.27,0.71-0.41,1.3-0.41c0.2,0,0.31,0.05,0.33,0.15c0,0.12-0.05,0.24-0.15,0.34
			c-1.27,1.29-2.72,2.55-4.36,3.76l-4.66,3.43c-1.09,0.8-2.22,1.62-3.39,2.46c-1.74,1.14-3.3,1.76-4.69,1.86
			c-1.52,0.12-2.37-0.31-2.57-1.3c-0.25-1.17,0.31-2.45,1.68-3.84c0.97-0.97,2.15-1.85,3.54-2.65c-0.84,0.05-1.63-0.06-2.35-0.34
			c-0.5-0.17-0.79-0.46-0.89-0.86c-0.15-0.57,0.3-1.35,1.34-2.35c1.56-1.47,3.86-2.67,6.89-3.61c1.42-0.45,2.68-0.68,3.8-0.71
			c1.09-0.02,1.68,0.15,1.75,0.52c0.07,0.45-0.27,0.97-1.04,1.56c-0.99,0.77-1.78,1.15-2.35,1.15c-0.37,0-0.57-0.09-0.6-0.26
			c-0.05-0.2,0.16-0.42,0.63-0.67c0.94-0.52,1.4-0.83,1.38-0.93c0-0.12-0.17-0.17-0.52-0.15c-1.02,0.1-2.31,0.46-3.88,1.08
			c-3.85,1.52-5.66,2.82-5.44,3.91c0.05,0.2,0.2,0.32,0.45,0.37c0.42,0.1,1.07,0.1,1.94,0c1.07-0.12,1.95-0.29,2.65-0.48
			c0.1-0.02,0.25-0.04,0.45-0.04c0.22,0,0.37,0.07,0.45,0.22c0.05,0.27-0.29,0.6-1.01,0.97c-0.52,0.25-1.02,0.49-1.49,0.73
			c-0.47,0.24-1.18,0.69-2.12,1.36c-2.06,1.47-3.2,2.78-3.43,3.95c0,0.75,0.29,1.12,0.86,1.12c1.37,0,4.06-1.44,8.08-4.32
			C549.07,140.33,551.54,138.32,553.35,136.55z"/>
		<path class="st1" d="M563.56,128.32c0.22-0.02,0.38,0.02,0.48,0.13s0.1,0.24,0,0.39c-0.67,1.52-1.66,2.65-2.98,3.39l-1.04,0.6
			l-1.45,5.07c-0.4,1.39-0.67,2.31-0.82,2.76c-0.02,0.17-0.09,0.43-0.19,0.78c-0.17,0.42-0.46,1.03-0.86,1.83
			c-1.27,2.04-3.13,3.02-5.59,2.94c-1.02-0.02-1.6-0.31-1.75-0.86c-0.2-0.79,0.62-1.94,2.46-3.43c0.27-0.22,0.6-0.34,0.97-0.34
			c0.25,0,0.4,0.06,0.45,0.19c0.02,0.1-0.17,0.35-0.6,0.75l-0.78,0.71c-0.57,0.52-0.83,0.91-0.78,1.15c0,0.07,0.07,0.11,0.22,0.11
			c0.35,0,0.79-0.17,1.34-0.52c0.55-0.35,0.97-0.68,1.27-1.01c0.82-0.92,1.54-2.05,2.16-3.39c0.27-0.62,0.75-1.88,1.42-3.76
			l0.56-1.6l-4.92,4.17c-0.77,0.62-1.83,1.49-3.17,2.61c-0.5,0.42-0.99,0.86-1.49,1.3c-0.7,0.57-1.25,0.86-1.68,0.86
			c-0.25,0-0.38-0.06-0.41-0.19c-0.05-0.12,0.07-0.31,0.37-0.56l8.5-7.19c0.57-0.5,1.44-1.17,2.61-2.01l0.93-0.67l0.34-0.67
			C560.17,129.8,561.65,128.62,563.56,128.32z"/>
	</g>
</g>
</svg>
