<?xml version="1.0" encoding="utf-8"?>
<!-- Generator: Adobe Illustrator 25.3.1, SVG Export Plug-In . SVG Version: 6.00 Build 0)  -->
<svg version="1.1" id="Layer_1" xmlns="http://www.w3.org/2000/svg" xmlns:xlink="http://www.w3.org/1999/xlink" x="0px" y="0px"
	 viewBox="0 0 310.33 234.82" style="enable-background:new 0 0 310.33 234.82;" xml:space="preserve">
<style type="text/css">
	.st0{fill:#58595B;}
	.st1{fill:#BE1E2D;}
	.st2{fill:#BE1E2D;stroke:#58595B;stroke-width:1.745;stroke-miterlimit:10;}
</style>
<path d="M239.94,65.49c-0.05-0.27,0.01-0.66-0.16-0.79c-1.48-1.17-2.99-2.31-4.51-3.42c-0.22-0.16-0.56-0.15-0.84-0.22
	c0,0,0.12-0.09,0.12-0.09c1.16,1.25,2.3,2.53,3.5,3.75c0.52,0.53,1.21,0.77,1.99,0.66C240.04,65.39,239.94,65.49,239.94,65.49z"/>
<path d="M152.37,59.3c-1.3,0.02-2.35,0.41-2.75,1.75l-0.1-0.08c1.46,0.2,2.41-0.33,2.74-1.76L152.37,59.3z"/>
<path d="M256.51,53.1c-0.29,0.07-0.59,0.09-0.85,0.21c-0.46,0.21-0.55,0.61-0.27,1.01c0.26,0.39,0.62,0.57,1.11,0.47
	c0,0-0.12,0.11-0.12,0.11c0-0.63,0-1.27,0-1.9L256.51,53.1z"/>
<path d="M246.35,173.93c0.61-0.02,0.94-0.31,0.94-0.92c0,0,0.09,0.08,0.09,0.08c-0.36,0-0.72,0-1.08,0.01c0,0,0.13-0.08,0.13-0.08
	c0,0.34,0.01,0.67,0.01,1.01L246.35,173.93z"/>
<path d="M245.49,173.92c0.07,0.33,0.17,0.69,0.62,0.58c0.12-0.03,0.17-0.37,0.24-0.57c0,0,0.09,0.1,0.09,0.1
	c-0.35,0-0.7,0-1.06,0.01L245.49,173.92z"/>
<path d="M129.51,180.11c-0.07,0.32,0.03,0.44,0.29,0.36c0.01,0,0-0.22-0.04-0.24c-0.09-0.05-0.22-0.03-0.33-0.03
	C129.42,180.2,129.51,180.11,129.51,180.11z"/>
<polygon points="153.16,182.91 153.11,182.69 153.28,182.8 "/>
<path d="M124.77,184.71c0.1,0.06,0.19,0.13,0.3,0.16c0.03,0.01,0.15-0.13,0.15-0.14c-0.17-0.21-0.34-0.18-0.52,0.09
	C124.7,184.83,124.77,184.71,124.77,184.71z"/>
<path d="M148.69,61.96c-0.6,0-0.9,0.3-0.92,0.87c0,0-0.09-0.09-0.09-0.09c0.68,0.07,0.94-0.27,0.91-0.88L148.69,61.96z"/>
<path d="M149.61,61.05c-0.6,0.02-0.91,0.32-0.92,0.91c0,0-0.09-0.1-0.09-0.1c0.63,0.02,0.99-0.23,0.92-0.89L149.61,61.05z"/>
<path d="M170.57,102.55c-0.18-0.39-0.36-0.84-0.9-0.79c-0.52,0.05-0.67,0.48-0.74,0.93c-0.02,0.14-0.05,0.28-0.08,0.42
	c-0.04,0.14-0.09,0.27-0.14,0.41c0,0-0.09-0.15-0.09-0.15c0.68-0.32,1.35-0.63,2.03-0.95L170.57,102.55z"/>
<path d="M147.83,97.15c-0.36,0-0.73,0.01-1.09,0.01C147.36,97.98,147.36,97.98,147.83,97.15z"/>
<path d="M139.58,92.73c-0.35,0-0.7,0.01-1.06,0.01c0.06,0.61,0.53,0.82,1.04,1.01C139.57,93.41,139.57,93.07,139.58,92.73z"/>
<path d="M155.89,156.39l0.08-0.07c0,0-0.13,0.2-0.13,0.21C155.85,156.53,155.89,156.39,155.89,156.39z"/>
<polygon points="151.44,159.8 151.55,160.02 151.33,159.9 "/>
<path d="M226.36,83.18c0-0.65-0.01-1.3-0.01-1.94c-0.25,0.14-0.52,0.25-0.74,0.43c-0.39,0.32-0.39,0.7,0.02,1.08
	C225.83,82.94,226.11,83.04,226.36,83.18z"/>
<path d="M230,78.75c0-0.64-0.01-1.28-0.01-1.92c-0.12,0.07-0.26,0.12-0.36,0.21C228.77,77.89,228.81,78.06,230,78.75z"/>
<path d="M235.49,161.57c-0.35,0-0.69,0.01-1.04,0.01c0,0.14,0.04,0.29,0,0.41c-0.29,0.9,0.28,1.23,1.01,1.47
	C235.47,162.83,235.48,162.2,235.49,161.57z"/>
<path d="M231.96,160.03c-0.1-0.03-0.29-0.11-0.3-0.09c-0.14,0.26-0.07,0.25,0.2-0.03C231.87,159.91,231.96,160.03,231.96,160.03z"/>
<g>
	<path class="st0" d="M144.09,168.62c1.92,2.49,4.59,4.21,6.96,6.23c1.16,0.98,2.53,1.59,4.09,1.75c0,0-0.14,0.1-0.14,0.1
		c-0.16-0.24-0.27-0.55-0.49-0.7c-1.84-1.25-3.63-2.54-5.28-4.03c-1.08-0.98-2.35-1.78-3.59-2.59c-0.47-0.31-1.08-0.44-1.62-0.66
		L144.09,168.62z"/>
	<path class="st1" d="M206.24,100.7c-0.32-0.05-0.72-0.24-0.95-0.12c-0.75,0.38-1.24,0.12-1.78-0.39c-0.42-0.39-0.9-0.25-1.07,0.21
		c-0.15,0.41-0.24,0.85-0.42,1.24c-0.07,0.16-0.32,0.31-0.5,0.33c-0.19,0.02-0.5-0.07-0.58-0.21c-0.22-0.37-0.32-0.81-0.53-1.19
		c-0.08-0.16-0.33-0.37-0.47-0.35c-0.41,0.07-0.42,0.43-0.4,0.76c0.01,0.11,0.03,0.22,0.04,0.34c-0.01,0.18-0.01,0.35-0.01,0.52
		c0.02,0,0.03,0,0.05,0c0-0.2,0-0.4,0-0.61c-0.57,0.06-1.16,0.06-1.72,0.19c-0.44,0.1-0.86,0.33-0.97,0.85
		c-0.14,0.66-0.27,1.32-0.45,1.96c-0.22,0.78-0.51,0.91-1.6,0.82c-0.22-0.02-0.45,0-0.79,0c-0.11,0.37-0.18,0.8-0.36,1.19
		c-0.13,0.28-0.38,0.67-0.64,0.72c-1.02,0.21-2,0.5-2.97,0.84c-0.13,0.05-0.44-0.16-0.54-0.32c-0.17-0.28-0.33-0.61-0.34-0.93
		c-0.03-0.67,0.05-1.34,0.06-2c0.01-0.64-0.59-0.97-1.22-0.66c-0.2,0.1-0.35,0.3-0.54,0.41c-0.4,0.23-0.94,0-1.05-0.44
		c-0.08-0.32-0.19-0.65-0.19-0.98c0-0.45,0.1-0.89,0.12-1.34c0.01-0.35-0.16-0.63-0.51-0.78c-0.3-0.12-0.73,0.07-0.85,0.4
		c-0.16,0.42-0.27,0.86-0.42,1.28c-0.09,0.25-0.68,0.24-0.9,0.03c-0.46-0.43-0.47-0.99-0.56-1.54c-0.15-0.89-0.33-1.01-1.06-0.58
		c-0.46,0.27-0.8,0.29-1.27,0.09c-1.06-0.46-1.07-0.44-1.79,0.57c0-0.01,0.15-0.11,0.15-0.11l-0.1,0.01c-0.12,0-0.23,0.02-0.34,0
		c-2.08-0.4-2.14-0.41-2.44,1.5c-0.13,0.86-0.64,1.09-1.36,1.22l0.06-0.09c-0.37,0.54-0.67,1.2-1.55,0.72l0.07,0.11
		c-0.94,0.13-1.45,0.63-1.43,1.56c0.01,0.74-0.63,0.78-1.22,1.05c0.04,1.07,0.06,2.18,0.13,3.29c0.11,1.67,0.32,3.33,0.04,5.01
		c-0.07,0.45,0.01,0.93,0.39,1.23c0.82,0.64,0.89,1.5,0.9,2.41c0,0.3,0.12,0.72,0.34,0.89c0.68,0.51,0.85,1.34,1.35,1.89
		c0.74,0.81,1.01,2.03,2.19,2.46c0.63,0.8,1.25,1.6,1.91,2.44c0.29-0.31,0.56-0.66,0.89-0.93c0.08-0.07,0.52,0.06,0.54,0.15
		c0.11,0.54,0.18,1.1,0.21,1.65c0.04,0.64,0.48,0.98,0.96,1.29c0.61,0.39,1-0.31,1.58-0.31c0.2,0.52,0.39,1.02,0.59,1.52
		c0.72-0.37,1.02-0.4,1.12-0.09c0.38,1.11,0.99,1.97,2.31,2.11c0.42,0.04,0.52,0.37,0.72,0.64c0.19,0.26,0.45,0.5,0.71,0.7
		c0.41,0.32,0.88,0.21,1.11-0.22c0.54-1.02,0.54-1.02,1.77-0.81c-0.01-0.23-0.44-0.44-0.03-0.67c0.01,0.21,0.01,0.42,0.02,0.63
		c-0.57,1.27-0.57,1.29,0.86,2.05c0.18-0.66,0.33-1.3,0.55-1.92c0.06-0.16,0.36-0.32,0.55-0.32c0.13,0,0.34,0.26,0.38,0.43
		c0.11,0.43,0.12,0.88,0.24,1.31c0.07,0.27,0.31,0.28,0.58,0.19c0.64-0.22,0.77-0.74,0.97-1.28c0.2-0.54,0.43-0.54,1.03-0.11
		c0.17,0.12,0.36,0.23,0.57,0.36c0.42-0.38,0.84-0.76,1.26-1.14c0.26-0.24,0.53-0.46,0.91-0.35c0.63,0.18,1.13-0.09,1.62-0.4
		c0.58-0.37,0.43-0.98,0.53-1.52c0.08-0.46,0.21-0.52,0.91-0.18c0.38,0.18,0.68,0.12,0.91-0.12c1.04-1.04,2.1-2.06,3.19-3.05
		c0.24-0.22,0.49-0.53,0.53-0.83c0.11-0.76,0.38-1.27,1.28-1.22c0.77-0.81,1.68-1.54,1.64-2.8c-0.03-0.79-0.03-1.57,0.01-2.36
		c0.02-0.41,0.14-0.81,0.23-1.29c0.88,0.77,0.4,1.81,0.88,2.56c0.04,0.07,0.18,0.11,0.27,0.11c0.1,0,0.27-0.05,0.28-0.11
		c0.3-1.51,1.51-2.77,1.24-4.45c-0.09-0.57,0.26-1.08,0.73-1.46c0.31-0.25,0.41-0.59,0.32-0.9c-0.24-0.89-0.19-1.72,0.02-2.62
		c0.25-1.13-0.12-2.19-0.81-3.17c-0.58-0.82-1.37-1.56-1.27-2.7c0.03-0.34-0.14-0.64-0.52-0.76c-0.33-0.1-0.66-0.2-0.96-0.36
		c-0.4-0.22-0.78-0.49-1.27-0.8c-0.04-0.58-0.09-1.23-0.14-1.98c-0.64-0.15-1.29-0.3-1.94-0.45
		C206.23,100.66,206.24,100.68,206.24,100.7z M189.12,125.81c0.14-0.01,0.29-0.02,0.43-0.03c0.13,0.51,0.27,1.02,0.38,1.54
		c0.02,0.07-0.11,0.25-0.13,0.25c-0.18-0.05-0.48-0.11-0.5-0.21C189.2,126.85,189.17,126.32,189.12,125.81z M186.45,121.8
		c0.04,0,0.08,0,0.12,0.01c0.02,0.32,0.04,0.64,0.05,0.96c0,0.11-0.04,0.21-0.06,0.32c-0.06-0.16-0.16-0.32-0.17-0.48
		C186.37,122.34,186.42,122.07,186.45,121.8z M202.63,125.11c-0.07,0.25-0.27,0.4-0.48,0.27c-0.15-0.09-0.26-0.35-0.25-0.53
		c0-0.25,0.25-0.39,0.47-0.25C202.51,124.68,202.55,124.93,202.63,125.11z M177.61,103.5c-0.09-0.06-0.25-0.11-0.26-0.18
		c-0.03-0.22-0.08-0.47,0.02-0.65c0.12-0.23,0.4-0.2,0.52,0.06c0.08,0.18,0.04,0.42,0.01,0.63
		C177.89,103.42,177.71,103.45,177.61,103.5z M198.26,117.55c0.06,0.01,0.18,0.01,0.19,0.04c0.09,0.33,0.01,0.44-0.18,0.27
		C198.21,117.81,198.26,117.66,198.26,117.55z M181,116.16c0.02,0.1,0.07,0.19,0.06,0.28c-0.05,0.33-0.16,0.35-0.28,0.04
		c-0.03-0.08-0.01-0.2,0.02-0.29C180.81,116.17,180.93,116.17,181,116.16z M184.92,115.92c0.03-0.18,0.06-0.36,0.1-0.53
		c0.07,0.04,0.19,0.09,0.19,0.13c-0.01,0.18-0.05,0.36-0.08,0.53C185.05,116,184.99,115.96,184.92,115.92z M195.49,114.09
		c0.05,0.08,0.12,0.16,0.13,0.25c0.01,0.1-0.04,0.2-0.06,0.3c-0.05-0.08-0.13-0.16-0.14-0.25
		C195.41,114.29,195.47,114.18,195.49,114.09z M191.82,109.79c-0.01-0.26,0.1-0.41,0.31-0.38c0.07,0.01,0.18,0.15,0.17,0.22
		c-0.02,0.18-0.1,0.36-0.15,0.53c-0.09-0.03-0.2-0.04-0.25-0.1C191.84,110.01,191.85,109.89,191.82,109.79z M187.77,128.93
		l0.07-0.26l0.13,0.19L187.77,128.93z M192.01,128.32l0.06-0.24l0.12,0.18L192.01,128.32z M196.13,128.31
		c0-0.09-0.04-0.22,0.01-0.25c0.18-0.15,0.32-0.08,0.34,0.16c0.01,0.07-0.07,0.17-0.14,0.2
		C196.29,128.44,196.2,128.35,196.13,128.31z M184.92,126.22l0.2-0.15l0,0.3L184.92,126.22z M182.17,123.67
		c-0.01-0.1-0.03-0.21-0.01-0.31c0.01-0.03,0.16-0.02,0.25-0.03c0.01,0.1,0.04,0.21,0.01,0.31
		C182.41,123.67,182.25,123.66,182.17,123.67z M190.81,123.56l-0.22-0.05l0.13-0.21L190.81,123.56z M209.61,109.32l-0.12,0.11
		l0-0.22L209.61,109.32z M187.84,118.62l0.15,0.25l-0.22,0.04L187.84,118.62z M192.84,112.63l-0.05,0.21l-0.1-0.16L192.84,112.63z"
		/>
	<g>
		<path class="st0" d="M55.32,133.32c-0.03,0.01-0.05,0.02-0.08,0.03C55.45,133.38,55.57,133.37,55.32,133.32z"/>
		<path class="st0" d="M55.32,133.32C55.74,133.24,54.91,133.23,55.32,133.32L55.32,133.32z"/>
		<path class="st0" d="M26.19,89.15c0.28-0.13-1.63-0.1-2.11-0.02C24.79,89.51,25.45,89.5,26.19,89.15z"/>
		<path class="st0" d="M153.27,182.5c0.04-0.04,0.08-0.07,0.12-0.11c0,0,0,0,0,0L153.27,182.5z"/>
		<path class="st0" d="M151.54,159.39c-0.03,0.02-0.07,0.03-0.1,0.05c0,0.02,0,0.04-0.01,0.06L151.54,159.39z"/>
		<path class="st0" d="M155.12,176.29c0.05-0.03,0.09-0.06,0.14-0.09c0,0,0-0.01,0-0.01L155.12,176.29z"/>
		<path class="st0" d="M144.2,168.21c-0.03,0-0.06,0.01-0.09,0.02c0.01,0.03,0.02,0.06,0.03,0.09L144.2,168.21z"/>
		<path class="st0" d="M178.6,210.92l21.15,0.19c-0.04-0.27-0.09-0.55-0.12-0.85l-19.21-0.04c-0.03,0.11-0.06,0.21-0.09,0.32
			C179.75,210.66,179.15,210.74,178.6,210.92z"/>
		<path class="st0" d="M256.62,52.68c0,0,0-0.01,0-0.01c-0.05-0.03-0.09-0.06-0.14-0.09L256.62,52.68z"/>
		<path class="st0" d="M181.22,205.41c0.86-1.16-0.01-2.66,0.73-3.79c0.98-1.47,0.47-2.46-0.83-3.34c-0.36-0.24-0.37-0.47-0.04-0.64
			c0.14-0.03,0.28-0.07,0.42-0.08c0.3-0.01,0.61,0.04,0.9-0.01c0.59-0.09,1.01-0.77,0.82-1.33c-0.09-0.27-0.2-0.57-0.39-0.77
			c-0.65-0.7-0.53-1.21,0.23-1.76c0.33-0.24,0.71-0.8,0.63-1.11c-0.32-1.34,0.64-2.57,0.26-3.87c-0.16-0.55-0.47-1.07,0.24-1.7
			c4.39-0.01,8.91-0.03,13.44-0.01l-0.16-1.38c-3.38,0.05-6.75,0.09-10.13,0.1c-1.11,0-2.06-0.94-2.02-1.96
			c0.06-1.3-0.01-2.65,0.38-3.86c0.28-0.86,0.69-1.66,0.33-2.49c-0.48-1.13,0.99-1.38,0.94-2.26c-0.02-0.43,0.02-0.9-0.16-1.27
			c-0.27-0.56-0.5-1.06-0.06-1.6c0.81-1,0.59-2.11,0.6-3.26c0.01-0.81,0.59-1.59,0.25-2.52c-0.44-1.21,1.04-1.67,1.24-2.65
			c0.09-0.42,0.05-0.87,0.15-1.29c0.26-1.15-0.5-2.24-0.18-3.41c0.1-0.37-0.2-0.83-0.26-1.26c-0.04-0.26-0.07-0.61,0.08-0.78
			c1.09-1.24,2.17-2.46,4.19-2.03c0.38,0.08,0.79,0.24,1.17,0.46l-0.22-1.9c-0.61,0.09-1.22,0.18-1.83,0.28
			c-0.01-0.06-0.01-0.12-0.02-0.18c-0.91,0-1.84,0.09-2.73-0.03c-0.73-0.1-1.42-0.49-2.15-0.68c-0.57-0.15-1.18-0.19-1.77-0.25
			c-0.59-0.06-1.21-0.01-1.78-0.14c-4.61-1.08-8.93-2.81-12.89-5.39c-1.02-0.66-1.99-1.32-2.78-2.23c-1.85-2.14-3.72-4.26-5.54-6.43
			c-0.86-1.02-1.6-2.12-2.13-3.37c-1.26-2.99-2.59-5.95-3.93-8.9c-0.56-1.23-0.85-2.48-0.85-3.84c0-1.17,0.04-2.4-0.32-3.48
			c-0.82-2.49-0.6-4.94-0.03-7.39c0.5-2.14,1.23-4.23,1.66-6.37c0.39-1.92,1.18-3.61,2.36-5.18c1.44-1.9,2.59-3.98,3.61-6.11
			c0.65-1.36,1.34-2.61,2.95-3.18c0.5-0.18,0.82-0.82,1.21-1.26c0.39-0.44,0.68-1.03,1.16-1.34c2.15-1.34,3.9-3.33,6.59-3.82
			c0.43-0.08,0.84-0.35,1.23-0.57c2.52-1.46,5.52-1.59,8.16-2.71c0.26-0.11,0.62-0.08,0.9-0.01c1.09,0.3,2.12-0.02,3.13-0.32
			c2.84-0.86,5.65-0.75,8.52-0.13c2.05,0.44,4.04,1.11,6.21,1.23c1.77,0.1,3.58,0.69,5.23,1.37c2.09,0.86,4.08,1.98,6.03,3.12
			c1.29,0.75,2.51,1.65,3.63,2.63c0.77,0.68,1.24,1.68,1.99,2.39c0.86,0.82,1.92,1.43,2.82,2.21c0.56,0.48,1.09,1.05,1.48,1.66
			c1.77,2.75,3.24,5.66,4.07,8.82c0.78,2.98,1.37,6.01,2.26,8.96c0.43,1.45,0.98,2.92,0.41,4.29c-0.59,1.41-0.14,3-0.94,4.28
			c-1.23,1.95-1.76,4.12-2.31,6.27l2.51,0.43c0.15-0.49,0.3-0.98,0.46-1.47c1.1-0.41,2.11-0.01,3.13,0.09
			c0.44,0.04,0.94,0.2,1.3,0.06c0.75-0.3,1.28-0.38,1.96,0.26c0.56,0.53,1.46,0.02,2.17,0.11c0.86,0.11,1.66,0.58,2.51,0.75
			c0.4,0.08,0.87-0.19,1.31-0.3c0.5-0.12,0.74,0.22,1.09,0.49c1.16,0.88,1.52,0.79,3.05-0.49c1.42,2.12,1.65,2.18,3.73,0.97
			c1.53,0.93,2.98,2.11,5.01,1.3c0.2-0.08,0.62,0.08,0.78,0.27c1.05,1.23,2.15,0.66,3.26,0.16c0.73,0.68,1.46,1.36,2.18,2.03
			c-0.05,0.43-0.15,0.85-0.22,1.28l1.49,0.26c0.23-0.96,0.77-1.38,1.75-1.53c0.58-0.09,1.13-0.33,1.7-0.51
			c0.26-0.08,0.58-0.32,0.78-0.25c0.94,0.36,1.63,1.55,2.8,1.05c1.09-0.47,1.69,0.21,2.44,0.62c0.57,0.31,1.11,0.33,1.7,0.02
			c0.25-0.13,0.75-0.26,0.82-0.17c1.18,1.63,3.06,0.88,4.59,1.25c1.46,0.36,2.93,0.56,4.35,1.14c1.23,0.5,2.63,0.62,3.96,0.9
			c0.37,0.08,1.23-0.67,1.29-1.08c0.06-0.43,0.16-0.87,0.16-1.3c0.01-6.45,0.02-12.9,0.02-19.35c0-4.25-0.03-8.5-0.05-12.75
			c0-0.58-0.03-1.17-0.06-1.75c-0.03-0.53-0.67-1.08-1.26-1c-1.17,0.16-2.27,0.5-3.52,0.23c-0.69-0.15-1.39,0.46-1.62,1.27
			c-0.1,0.37-0.23,0.73-0.36,1.16c-1.01-0.81-1.85-1.71-3.27-1.22c-0.4,0.14-0.93,0.13-1.33,0c-1.75-0.53-2.55,0.17-2.8,1.8
			c-0.04,0.27-0.46,0.3-0.69,0.05c-0.2-0.21-0.28-0.53-0.47-0.74c-0.53-0.6-1.41-0.71-2-0.23c-0.45,0.37-0.81,0.84-1.21,1.25
			c-1.9-1.16-2.19-1.11-3.65,0.57c-0.53-0.39-0.54-1.48-1.64-1.11c-0.85,0.29-1.47-0.04-1.8-0.82c-0.28-0.67-0.46-1.38-0.76-2.05
			c-0.08-0.18-0.33-0.3-0.55-0.44c-0.26-1.8-0.4-3.63-0.84-5.39c-0.3-1.23-0.95-2.4-1.58-3.53c-0.63-1.14-0.44-2.11,0.29-3.06
			c0.3,0.02,0.59,0.04,0.89,0.08c0.65,0.09,1.19-0.06,1.55-0.62c0.22-0.35,0.26-0.98,0.83-0.88c1.16,0.21,2.04-0.41,2.99-0.8
			c0.97-0.4,1.28-1.17,1.09-2.15c-0.02-0.12,0.11-0.27,0.23-0.5c0.38,0.11,0.77,0.21,1.15,0.35c1.99,0.71,2.95,0.39,4.11-1.38
			c0.15-0.23,0.33-0.43,0.52-0.66c0.59,0.08,1.18,0.16,1.78,0.24c1.8-0.78,3.61-1.55,5.41-2.33c0.54-0.23,0.78-0.95,0.5-1.5
			c-0.2-0.39-0.38-0.8-0.65-1.14c-1.65-2.1-3.31-4.2-4.98-6.28c-1.67-2.09-3.21-4.26-4.62-6.53c-1.95-3.15-4.41-5.96-6.42-9.09
			c-1.19-1.84-2.93-3.35-4.43-5c-0.4-0.44-1.14-0.27-1.49,0.27c-0.51,0.81-0.27,2.09-1.67,2.39c-0.22,0.05-0.29,0.75-0.42,1.16
			c0.57,0.35,1.15,0.7,1.72,1.05c-0.49,0.54-1.17,0.65-1.86,0.77l0.12-0.11c-0.61,0.63-1.21,0.52-1.99,0.19
			c-1-0.42-1.43,0.07-1.37,1.37c-0.01,0-0.17,0.2-0.17,0.2l0.07-0.3c-1.15,0.51-1.86,1.42-2.41,2.47c0.06-0.01,0.11-0.02,0.15-0.02
			c0.01,0.04,0.02,0.08,0.03,0.12c-0.38-0.14-0.76-0.39-1.13-0.39c-0.74,0-0.94,0.37-0.93,1.39c-0.05,0-0.08,0-0.12,0
			c0.01-0.04,0.02-0.09,0.03-0.13c-0.06,0.04-0.11,0.1-0.17,0.14c-0.04,0.01-0.05,0.02-0.05,0.04c-0.94,0.65-1.72,1.46-2.41,2.35
			c-0.01,0-0.03-0.01-0.04-0.01c0,0.02,0.01,0.03,0.01,0.05c-0.03,0.04-0.07,0.07-0.1,0.11c0.04-0.02,0.08-0.03,0.12-0.05
			c0.01,0.05,0.03,0.09,0.04,0.14c-0.85,0.21-1.31,1.06-2.26,1.18c-0.73,0.09-1.39,0.5-1.84,1.13c-0.47,0.67-1.26,0.52-1.92,0.71
			c0,0.26-0.01,0.52,0,0.77c0.02,0.89-0.13,1.7-1.06,2.17c-1.27,0.63-1.77,1.83-2.35,2.94c-0.24-0.02-0.61-0.14-0.7-0.03
			c-0.64,0.71-1.23,1.48-1.82,2.22c0.01,0,0.32-0.1,0.32-0.1l-0.22,0.13c-0.28,0.08-0.72,0.09-0.82,0.26
			c-0.29,0.51-0.43,0.99-1.15,1.2c-1.02,0.29-1.94,0.84-2.38,1.89c0.37,0.17,0.77,0.3,1.09,0.53c0.19,0.14,0.36,0.47,0.33,0.68
			c-0.02,0.15-0.39,0.3-0.62,0.37c-0.26,0.09-0.55,0.09-0.82,0.13c-0.1,1.3-0.19,1.39-0.97,0.89c-0.12-0.08-0.22-0.2-0.34-0.27
			c-0.68-0.41-1.18-0.39-1.46,0.16c-0.33,0.63-0.56,1.3-0.83,1.96c0.3-0.05,0.57-0.16,0.81-0.32c0.02,0.03,0.02,0.02,0.04,0.04
			c-0.04,0.02-0.09,0.04-0.13,0.07c0.31,0.85-0.33,1.38-0.71,1.99c-0.28,0.44-0.73,0.54-1.15,0.36c-1.12-0.49-2.01-0.39-2.71,0.69
			c-0.62,0.95-1.31,1.87-1.95,2.78c-0.57,0.06-1.15,0.08-1.71,0.18c-0.92,0.16-1.77,0.1-2.52-0.5c-0.35-0.27-0.69-0.54-1.06-0.79
			c-0.5-0.35-0.84-0.78-0.91-1.4c-0.07-0.59,0.08-1.1,0.42-1.56c0.58-0.48,0.78-1.05,0.38-1.76c-0.13-0.24-0.17-0.52-0.25-0.78
			c0,0-0.33-0.01-0.33-0.01l0.22-0.06c0.77,0.18,1.38,0.02,1.75-0.72c0.3-0.6,0.59-1.2,0.89-1.79c0.46-0.33,1.05-0.59,1.3-1.03
			c0.63-1.1,1.73-2.14,0.9-3.62c-0.06-0.11,0.18-0.5,0.38-0.62c1.52-0.93,1.86-2.59,2.64-3.97c0.28-0.49,0.31-1.1,0.44-1.66
			c0.18-0.81,1.17-0.83,1.54-1.48c0.64-1.14,1.45-2.2,1.23-3.62c-0.04-0.23,0.09-0.57,0.27-0.74c1.03-1.03,1.86-2.32,3.45-2.68
			c1.37,0.31,2.4,1.19,3.47,1.98c0.43,0.32,0.88,0.5,1.38,0.57c-1.37-1.42-2.75-2.84-4.2-4.35c-0.25-1.17,0.55-2.4,0.23-3.68
			c0.75-0.22,1.2-0.76,1.39-1.45c0.25-0.89,0.73-1.45,1.57-1.95c0.87-0.52,0.81-1.32,0.19-2.58c-0.24-0.49-0.01-0.66,0.47-0.85
			c1.62-0.64,1.67-0.79,1.25-2.58c0.01,0.01,0.15-0.15,0.15-0.15l-0.06,0.27c0.41-0.11,0.82-0.19,1.22-0.32
			c0.47-0.16,0.51-0.54,0.09-0.94c-0.16-0.15-0.37-0.25-0.57-0.35c0.04-0.04,0.08-0.08,0.11-0.12c0.04-0.01,0.05-0.03,0.04-0.05
			c0.43-0.48,0.9-0.94,1.24-1.48c0.62-0.99,1.13-1.97,2.14-2.73c0.98-0.74,0.74-2.09-0.28-2.59c-2.84-1.38-5.64-2.88-8.58-4.03
			c-2.8-1.09-5.76-1.79-8.65-2.68c-2.02-0.62-4.02-1.3-6.04-1.9c-2.75-0.82-5.5-1.6-8.27-2.36c-0.42-0.11-0.9-0.03-1.35,0.02
			c-0.66,0.07-1.21,0.47-1.35,1.03c-0.29,1.12-0.46,2.29-0.54,3.44c-0.03,0.37,0.31,0.79,0.54,1.16c0.75,1.18,0.76,1.18-0.55,1.46
			c-0.69,0.15-0.99,0.59-0.8,1.21c0.08,0.28,0.22,0.54,0.33,0.81c0.11,0.27,0.21,0.55,0.32,0.82c-0.8,0.46-1.59,0.98-1.34,2.03
			c0.22,0.92,0.07,1.68-0.52,2.45c-0.38,0.5-0.12,1.12,0.08,1.68c0.21,0.56,0.65,0.83,1.18,0.99c-0.33,0.25-0.67,0.5-1,0.76
			c-0.62,0.47-1.02,1.07-1.02,1.86c0,0.73,0,1.45-0.42,2.1c-0.33,0.51-0.73,1.02-1.35,1.06c-4.8,0.29-9.61,0.32-14.54,0.08
			c-0.06-1.06-0.01-1.9-0.17-2.71c-0.13-0.69-0.6-1.33-0.18-2.07c-0.32-1.54-0.85-3.04-0.87-4.64c-1.13-1.13-0.56-2.37-0.25-3.6
			c0.13-0.5-0.28-0.9-1.06-1.17c-0.27-0.1-0.55-0.18-0.92-0.31c0.28-0.33,0.6-0.61,0.78-0.95c0.2-0.37,0.33-0.79,0.41-1.21
			c0.15-0.73-0.71-1.27-0.46-2.05c0.18-0.55,0.31-1.11,0.41-1.68c0.08-0.47-0.61-1.11-1.2-1.03c-0.33,0.05-0.63,0.26-0.93,0.44
			c0.47-0.71,0.72-1.49,1.16-2.44c-2.29,0.24-4.17,0.44-6.06,1.05c-4.44,1.44-8.97,2.62-13.46,3.93c-2.03,0.59-4.06,1.19-6.06,1.86
			c-1.3,0.43-2.6,0.76-3.99,0.74c-2.02-0.02-3.84,0.72-5.6,1.6c-0.97,0.48-1.28,1.37-0.7,2.16c0.43,0.59,1,1.1,1.4,1.71
			c0.57,0.86,1.57,0.61,2.33,0.97c-0.8,0.54-1.33,1.22-1.24,2.2c0.02,0.28,0.16,0.76,0.29,0.78c1.13,0.12,1.18,1.17,1.75,1.75
			c0.27,0.28,0.78,0.34,1.04,0.44c-0.11,0.58-0.34,1.14-0.29,1.67c0.06,0.56,0.38,1.1,0.59,1.64c0.48,1.2,1.25,2.29,1.34,3.65
			c0.04,0.58,0.51,1.15,1.13,1.24c1,0.15,0.98,0.94,1.31,1.54c0.1,0.18,0.38,0.25,0.64,0.36c-0.23,1.09-0.45,2.18-0.67,3.26
			c-0.94,0.59-1.83,1.11-2.66,1.7c-0.45,0.32-0.77,0.76-0.82,1.32c1.36-0.12,2.43-0.95,3.64-1.44c0.78-0.32,1.45-0.11,2.01,0.5
			c0.7,0.75,0.76,1.97,1.88,2.41c0.25,0.01,0.49,0.02,0.73,0.03c-0.26,0.01-0.51,0.01-0.77,0.02c0.22,1.88,0.57,3.7,2.18,5.09
			c0.41-0.06,0.85-0.18,1.3-0.19c0.23-0.01,0.48,0.15,0.68,0.28c0.05,0.03,0,0.26-0.07,0.37c-0.07,0.12-0.21,0.21-0.3,0.32
			c-0.44,0.48-0.55,1.06-0.31,1.63c0.34,0.8,0.09,1.79,0.88,2.42c0.11,0.09,0.27,0.12,0.42,0.14c0.43,0.07,0.86,0.13,1.3,0.19
			c-0.25,1.03-0.58,1.88,0.01,2.95c0.68,1.24,1.92,2.25,1.83,3.89c-0.02,0.43,0.75,0.85,1.02,1.34c0.33,0.61,0.47,1.32,0.8,1.94
			c0.09,0.16,0.46,0.18,0.75,0.25c0.17,0.53,0.35,1.06,0.52,1.6c0.41,1.36,0.03,2.16-1.3,2.85c-1.11,0.58-2.23,0.95-3.49,0.5
			c-1.21-1.27-2.12-2.82-3.98-3.49c-0.78-0.28-1.61-1.01-1.95-1.74c-1.15-2.47-3.77-3.79-4.99-6.19c-0.24-0.48-0.85-0.82-1.36-1.13
			c-0.64-0.39-1.35-0.67-2.02-0.99c0.09,0.26,0.18,0.51,0.26,0.76c0.13,0.39,0.01,0.53-0.32,0.37c-0.03-0.01,0.08-0.24,0.08-0.37
			c0-0.24-0.03-0.49-0.04-0.73c0-1.09-1.29-1.48-1.46-2.49c-0.04-0.26-0.26-0.53-0.48-0.7c-0.31-0.25-0.69-0.44-1.04-0.65
			c-0.34-0.47-0.61-1-1.04-1.37c-0.44-0.38-1.05-0.56-1.57-0.86c-0.46-0.27-0.59-1.15-0.21-1.55c0.4-0.42,0.93-0.75,1.28-1.2
			c0.22-0.29,0.28-0.69,0.39-1.06c-1.22,0.05-2.04,0.89-2.87,1.44c-0.83,0.04-1.07-0.53-1.45-0.92c-2.18-2.27-2.19-2.26-5.17-3.81
			c-0.03,0.02-0.05,0.05-0.07,0.07c-0.03,0-0.03-0.01-0.06-0.01c0.05-0.12,0.15-0.35,0.15-0.35c-0.93-0.4-1.05-1.72-2.2-1.86
			c-0.26-0.65-0.43-1.37-0.84-1.91c-0.7-0.93-1.69-1.65-2.35-2.61c-0.59-0.86-1.3-1.57-2.03-2.3c-0.73-0.73-1.26-1.64-1.83-2.5
			c-0.87-1.34-2.44-0.97-3.08-0.2c-1.79,2.17-3.57,4.35-5.32,6.55c-1.74,2.21-3.44,4.45-5.14,6.69c-2.6,3.41-5.18,6.84-7.78,10.25
			c-0.81,1.06-1.69,2.06-2.44,3.15c-0.19,0.28-0.03,0.8-0.03,1.25c1.41-0.36,2.25-1.66,3.7-1.71c-0.19-0.71,0.03-1.33,0.27-1.95
			c-0.08,0.65-0.17,1.31-0.25,1.96c-1.26,0.74-1.54,2.02-1.85,3.25c-0.04,0.17,0.28,0.51,0.5,0.63c0.22,0.12,0.62,0.19,0.81,0.07
			c0.63-0.38,1.2-0.85,1.79-1.27c0,0.01,0.22,0.01,0.22,0.01l-0.32,0.07c0.13,1.01,0.22,2.01,1.33,2.56c0.79,0.4,1.53,0.9,2.28,1.37
			c0.7,0.45,1.38,0.34,2.12,0.07c0.48-0.18,0.79,0.06,0.8,0.62c0.01,0.27,0.12,0.73,0.28,0.77c1.28,0.35,2.2,1.53,3.64,1.5
			c0.43-0.01,1.1-0.31,1.25-0.14c0.47,0.54,0.94,0.94,1.63,1.25c0.58,0.26,0.27,1.32,1.12,1.67c0.49,0.2,0.86,0.69,1.27,1.07
			c-0.03,0.57,0.12,1.22-0.11,1.69c-1.31,2.66-2.28,5.38-2.62,8.34c-0.14,1.27-0.74,2.49-1.13,3.7c-0.24,0-0.41,0.05-0.54-0.01
			c-1.35-0.57-2.32-0.33-2.87,1.11c-0.19,0.48-0.62,0.42-0.81-0.13c-0.19-0.58-0.42-1.07-0.98-1.39c-0.72-0.41-1.44-0.25-1.85,0.52
			c-0.14,0.26-0.25,0.53-0.41,0.87c-0.41-0.63-0.75-1.27-1.2-1.81c-0.67-0.8-1.52-0.69-2.14,0.2c-0.15,0.21-0.32,0.39-0.49,0.59
			c-0.09-0.12-0.18-0.24-0.26-0.36c-0.88-1.45-1.4-1.62-2.8-0.73c-0.29,0.18-0.44,0.45-0.72,0.18c-0.2-0.2-0.31-0.48-0.46-0.73
			c-0.42-0.67-1.11-1.16-1.83-1.15c-1,0.01-0.8,1.02-1.01,1.66c-0.04,0.12-0.2,0.31-0.23,0.29c-0.24-0.1-0.59-0.2-0.66-0.38
			c-0.21-0.53-0.31-1.11-0.44-1.62c-1.6-0.33-3.07-0.64-4.54-0.93c-0.76-0.15-1.59,0.42-1.61,1.16c-0.06,2.93-0.09,5.87-0.12,8.8
			c-0.01,0.73,0.03,1.47,0.01,2.2c-0.02,0.84-0.55,1.28-1.31,1.59c-1.43,0.57-2.93,0.71-4.37,0.26c-1.12-0.35-2.07-0.28-3.02,0.31
			c-0.45,0.28-0.87,0.12-1.26-0.11c-0.54-0.31-1.1-0.58-1.72-0.4c-3.25,0.94-6.19,0.08-9.04-1.38c-0.4-0.2-0.81-0.4-1.19-0.63
			c-0.1-0.06-0.16-0.27-0.14-0.4c0.05-0.38,0.29-0.46,0.68-0.36c0.28,0.07,0.6,0.08,0.89,0.05c0.38-0.03,0.66-0.38,0.45-0.61
			c-1.6-1.76-2.83-3.71-3.78-5.86c-0.21-0.49-0.77-0.93-1.28-1.18c-1.49-0.71-3.04-1.3-4.45-1.89c-1.31,0.44-2.39,0.91-3.62,0.16
			c-0.88-0.54-1.95-0.78-2.84-1.12c-0.01,0-0.02,0.01-0.03,0.01c0.02-0.04,0.04-0.05,0.03-0.01c-1.23-1.4-3.55-1.73-5.53-1.7
			c-0.72,0.01-1.55-0.15-2.16-0.49c-1.74-0.98-3.77-1.09-5.57-1.86c-0.53-0.23-1.22-0.38-1.77-0.27c-1.27,0.26-2.39-0.06-3.51-0.54
			c-0.27-0.12-0.59-0.21-0.88-0.19c-0.86,0.08-1.67,0.64-2.6,0.09c-0.77-0.45-1.64-1.07-2.47-1.07c-1.14,0.01-2.22,0.65-3.47,0.01
			c-1.31-0.67-2.64-1.53-4.29-1.08c-1.27-0.47-2.53-0.97-3.82-1.39c-0.07-0.02-0.01-0.04,0.09-0.06c-0.01-0.01-0.02-0.01-0.03-0.01
			c-0.53-0.29-1.08-0.57-1.65-0.74c-0.41-0.12-0.98-0.23-1.31-0.05c-1.06,0.58-2.02,0.45-3.02-0.06c-0.67-0.34-1.35-0.66-2.04-0.98
			c-0.51-0.23-1.37-0.06-1.64,0.36c-0.34,0.54-0.41,1.2,0.02,1.64c0.55,0.55,1.06,0.99,0.7,1.85c-0.1,0.24-0.12,0.72,0.02,0.81
			c1.21,0.81,0.51,2.2,1.03,3.08c0.58,0.98-0.27,2.26,0.88,2.89c-0.05,0.56-0.1,1.11-0.15,1.72c0.78,1.32,1.02,0.35,1.98,1.48
			c0.08,0.09-1.9,0.06,0.38,0.79c-0.27,0.08,0.76,0.87,0.52,0.83c-0.73-0.13-1.43-0.4-2.16-0.52c-0.15-0.03-0.55,0.49-0.53,0.5
			c1.05,1.17,0.87,1.18,0.9,2.68c0.01,0.64-1.34,2.4-0.84,2.74c0.32,0.22,0.68,0.39,1.02,0.57c-0.03,0.03-0.06,0.05-0.09,0.08
			c-0.08,0.01-0.1,0.04-0.08,0.07c-0.71,0.64-1.28,1.3-0.88,2.42c0.3,0.82,0.25,1.79,0.66,2.54c0.42,0.76,0.18,1.28,0.01,1.99
			c-0.14,0.6-0.21,1.07-0.79,1.38c-0.12,0.06-0.28,0.21-0.28,0.33c-0.05,1.13-0.34,2.3,0.51,3.32c0.16,0.19,0.2,0.48,0.29,0.73
			c-0.9,0.03,1.36,0.69,1.16,1.43c-0.22,0.81,0.28,1.32,0.91,1.73c-0.91,0.36-1.86,0.64-1.92,1.89c-0.02,0.41,0.79,1.52,0.64,1.93
			c-0.35,1.01-0.04,1.46,0.49,2.43c0.41,0.76,1.29,0.94,0.35,1.21c-1.2,0.34-0.24,0.41,0.2,1.48c0.16,0.4-0.36,0.47-0.31,0.88
			c0.05,0.39,0.7,1.1,0.59,1.52c0,0-0.12-0.02-0.26-0.05c-0.18-0.06-0.34-0.09-0.5-0.1c0,0,0,0,0,0l0,0
			c-0.47-0.03-0.83,0.12-0.96,0.5c-0.13,0.4-0.3,0.82-0.31,1.23c-0.03,1.1,0.09,2.21-0.21,3.29c-0.26,0.1-0.54,0.18-0.78,0.32
			c-0.46,0.26-0.6,0.75-0.37,1.05c0.85,1.1,1.86,1.83,3.4,1.47c0.42-0.1,0.93-0.21,1.31-0.08c1.17,0.39,1.42-0.64,2.02-1.1
			c0,0.01,0.01,0.01,0.02,0.03c0.57-0.17,1.15-0.32,1.71-0.51c0.27-0.09,0.61-0.42,0.78-0.35c1.39,0.6,2.57-0.55,3.9-0.4
			c0.38,0.04,0.46-0.31,0.25-0.66c-0.08-0.13-0.17-0.19-0.26-0.25c0.16-0.04,0.33-0.07,0.48-0.12c0.29-0.09-0.09-0.09-0.74-0.05
			c-0.03-0.02-0.08-0.04-0.18-0.05c0,0.02,0,0.04,0.01,0.07c-0.84,0.06-2.02,0.19-2.77,0.28c0.64-0.16,1.27-0.46,1.91-0.51
			c1.49-0.11,3.04,0.23,4.37-0.73c1.36,0.06,2.53-0.66,3.81-0.56c0.05-0.72,0.08-1.15,0.11-1.61c0.27,0,0.55-0.04,0.81,0.01
			c0.72,0.13,1.48,0.94,2.09,0.47c0.66-0.51,1.32-0.51,2.02-0.68c0.2-0.05,0.27-0.48,0.46-0.68c0.18-0.19,0.53-0.48,0.65-0.42
			c1.17,0.55,2.31,0.33,3.5,0.1c0.4-0.08,0.87,0.15,1.31,0.21c0.08,0.01,0.28-0.18,0.27-0.2c-0.13-0.24-0.26-0.49-0.45-0.68
			c-0.04-0.05-0.13-0.06-0.22-0.06c0.37-0.11,0.75-0.27,1.11-0.25c1.95,0.11,3.63-0.12,5.8-0.68c0.67-0.17,0.02,0.02,0.67-0.17
			c0.54-0.16-0.97-0.33-0.36-0.41c0.4-0.06,0.78-0.3,1.18-0.4c-0.31-0.05-0.83-0.19-0.51-0.44c0.41-0.32,1.12-0.27,1.54-0.58
			c0.28-0.2,0.33-0.7,0.45-1.08c0.68,0.2,1.34,0.45,2.03,0.58c0.48,0.09,0.84-0.15,0.83-0.69c0-0.39,0.17-0.55,0.56-0.48
			c0.71,0.13,1.41,0.3,2.13,0.35c0.31,0.02,0.41-0.33,0.3-0.66c0.01,0.01,0.2-0.13,0.2-0.13l-0.1,0.24
			c0.69-0.17,1.54,0.16,2.06-0.52c0.42-0.54,0.96-0.68,1.53-0.44c1.27,0.54,2.57,0.38,3.94,0.28c0.45-0.51,0.92-1.06,1.38-1.6
			c-0.01,0-0.23,0.15-0.23,0.15l0.15-0.19c1.41,0.37,1.88,0.31,2.26-0.56c0.29-0.67,0.42-1.35,1.28-1.58
			c0.09-0.02,0.18-0.58,0.06-0.71c-0.48-0.54-1.32-0.74-1.57-1.53c0.57-0.43,1.05,0.02,1.58,0.14c0.78,0.18,1.19,0.01,1.52-0.56
			c0.07-0.13,0.19-0.24,0.22-0.38c0.42-1.51,1.29-2.62,2.88-3.14c0.4-0.13,0.81-0.88,1.07-0.57c0.8,0.96,1.61-0.44,2.42,0.2
			c1.33,1.05,2.51,0.69,3.45-0.64c0.08-0.12,0.23-0.19,0.41-0.34c0.26,0.32,0.5,0.65,0.77,0.95c0.43,0.47,1.01,0.63,1.64,0.56
			c0.29-0.03,0.6-0.14,0.84-0.3c0.95-0.66,2.11,0.28,3.04-0.4c0.77,0.41,1.53,0.83,2.34,1.26c0.13,0.41,0.33,0.81,0.37,1.23
			c0.18,1.74,0.06,3.47,0.53,5.22c0.41,1.52,0.17,3.2,0.23,4.81c0.03,0.74,0.54,0.98,1.21,0.54c0.12-0.08,0.21-0.21,0.32-0.31
			c0.44-0.39,0.59-0.18,0.86,0.26c0.66,1.03,1.82,1.15,2.58,0.31c0.28-0.31,0.41-0.76,0.63-1.17c0.26,0.16,0.47,0.28,0.67,0.41
			c1.32,0.85,1.9,0.71,2.86-0.67c0.08-0.12,0.19-0.23,0.29-0.35c0.13,0.23,0.23,0.48,0.39,0.69c0.9,1.21,2.02,1.17,2.82-0.08
			c0.16-0.24,0.26-0.52,0.39-0.79c0.72,0.63,1.57,1.1,2.43,0.45c0.96-0.72,1.77-0.65,2.8-0.18c0.74,0.34,1.49,0.05,1.84-0.78
			c0.2-0.46,0.45-0.67,0.83-0.17c0.52,0.69,1.13,0.75,1.98,0.58c1.4-0.28,1.47-0.14,1.87,1.16c0.55,1.82,0.87,3.69,1.58,5.46
			c0.41,1.03,0.83,2.04,1.73,2.77c-0.23,1.35,0.66,2.51,0.76,3.63c-0.43,1.07-1.32,1.44-1.99,2.01c-0.65,0.54-0.8,1.11-0.68,1.91
			c0.08,0.55-0.34,0.73-0.94,0.47c-0.41-0.18-0.78-0.51-1.2-0.59c-0.71-0.13-1.45-0.27-1.95,0.59c-0.35,0.61-0.96,1.08-1.41,1.64
			c-0.33,0.41-0.74,0.45-1.18,0.3c-0.77-0.27-1.49-0.16-2.18,0.23c-0.52,0.3-1.08,0.56-1.54,0.94c-0.6,0.49-1.25,0.68-2.03,0.81
			c-1.92,0.33-3.66,1.33-5.63,1.57c-0.13,0.02-0.25,0.16-0.38,0.23c-0.46,0.24-0.82,1.16-0.58,1.53c2.6,3.95,5.19,7.91,7.85,11.82
			c0.56,0.83,1.43,1.46,2.15,2.19l0,0c0.26,1.48,1.59,2.43,1.99,3.84c2.71,3.6,5.41,7.21,8.14,10.8c0.16,0.21,0.5,0.3,0.75,0.44
			l-0.08,0.12c0.28-0.31,0.51-0.68,0.85-0.91c0.66-0.44,3.51-3.12,3.96-3.81l-0.09,0.09c0.24-0.44,0.17-0.81-0.16-1.13
			c0.24-0.01,0.48-0.03,0.72-0.01c2.06,0.13,2.05,0.13,2.31-1.9c0.03-0.27,0.13-0.54,0.2-0.8c0.8,0.59,0.87,0.55,1.45-0.38
			c0.05-0.08,0.13-0.15,0.2-0.22c0.12-0.07,0.24-0.16,0.38-0.19c0.89-0.18,0.46-1.4,1.3-1.56c0.74-0.14,0.87-0.69,1.1-1.23
			c0.11-0.26,0.32-0.49,0.48-0.73c-0.02-0.03-0.05-0.05-0.07-0.08c0.03,0,0.06,0.01,0.09,0c0.19,0.2,0.41,0.59,0.56,0.57
			c0.72-0.11,1.45-0.33,1.7-1.09c0.13-0.41,0.2-0.87,0.68-0.95c1.21-0.21,1.47-1.82,2.85-1.77c0.26,0.01,0.51-0.06,0.77-0.1
			c-0.23-0.78-0.47-1.57-0.7-2.35c0.21,0.11,0.41,0.23,0.63,0.26c0.43,0.07,0.95,0.18,1.29,0.02c1.51-0.73,2.7-1.83,3.42-3.34
			c0.23-0.47,0.03-0.82-0.47-1c0.01-0.01,0.01-0.03,0.02-0.04c0.03,0.02,0.03,0.05,0.06,0.07c0.25-0.16,0.47-0.4,0.74-0.46
			c0.77-0.18,1.25-0.52,1.39-1.37c0.04-0.24,0.58-0.4,0.95-0.58c0.06-0.51,0.12-1.01,0.17-1.52c1.97,0.55,1.99,0.52,3.59-1.58
			c0.15-0.2,0.52-0.24,0.78-0.36l-0.04,0.14c0.43-0.45,0.3-1.31,1.26-1.39c0.69-0.05,0.63-0.67,0.67-1.17
			c0.7-0.48,1.63-0.54,2.21-1.3c0.6-0.79,1.7-1.2,1.87-2.33c1.61-0.27,1.94-1.57,2.39-2.77c0.69-0.28,1.4-0.53,1.94-1.05l0.01,0
			c0.82,0.36,1.67,0.65,2.43,1.09c0.49,0.29,0.88,0.77,1.27,1.2c0.19,0.21,0.43,0.55,0.37,0.75c-0.42,1.33-0.03,2.88-1.15,4.01
			c-0.3,0.3-0.62,0.57-0.93,0.86c-0.89,0.85-1.33,1.97-1.54,3.08c-0.11,0.59,0.46,1.3,0.8,2.14c-0.93,0.26-1.92,0.38-2.6,1.26
			c-0.81,1.05-0.9,2.08-0.58,3.25c0,0,0,0,0,0c-0.43,0.32-0.85,0.64-1.29,0.95c-0.24,0.17-0.58,0.25-0.75,0.46
			c-0.16,0.21-0.26,0.57-0.19,0.8c0.17,0.56,0.39,0.94-0.47,1.24c-1.33,0.47-1.16,1.91-1.66,2.92c-0.39,0.8,0.26,1.34,0.6,1.96
			c0.03,0.05-0.3,0.37-0.5,0.43c-0.68,0.2-1.3-0.78-2.06-0.12c-0.14,0.71-0.27,1.41-0.43,2.22c-0.76,0.5-1.57,1.03-2.38,1.57
			c0.12,0.54,0.26,1.08,0.35,1.62c0.04,0.25,0.1,0.7-0.01,0.75c-1.44,0.7-1.08,2.25-1.72,3.31c-0.12,0.19-0.31,0.34-0.49,0.5
			c0.08,0.27,0.11,0.57,0.24,0.82c0.24,0.5,0.07,0.72-0.44,0.87c-1.5,0.46-1.5,0.49-0.72,1.65c0.08,0.12,0.22,0.2,0.31,0.33
			c0.45,0.66,0.24,1.03-0.64,1.1c-0.44,0.03-0.88,0.01-1.23,0.01c-0.28,0.34-0.51,0.54-0.66,0.79c-0.46,0.76-0.8,1.6-1.34,2.3
			c-0.66,0.86-0.22,2.06-0.95,2.81c-0.6,0.62-1.53,0.88-1.99,1.74c-0.41,0.77-1.07,1.42-1.61,2.13c-0.43,0.57-0.19,1.5,0.51,1.89
			c0.66,0.36,1.32,0.73,2.03,1c3.68,1.38,7.36,2.74,11.05,4.1c1.13,0.42,2.25,0.94,3.43,1.17c2.88,0.55,5.36,2.04,8.06,3
			c0.94,0.34,1.34,1.17,1.34,2.12l9.64,0.02C180.86,208.58,181.69,207.11,181.22,205.41z M270.27,76.43
			c-0.12-0.03-0.24-0.16-0.33-0.27c-0.39-0.51-0.17-1.03-0.03-1.54c-0.02,0.55,0.29,0.95,0.65,1.36
			C270.86,76.32,270.72,76.53,270.27,76.43z M269.91,74.56c-0.04-0.01-0.08-0.02-0.12-0.03c0.04-0.02,0.08-0.03,0.12-0.04
			C269.9,74.52,269.91,74.54,269.91,74.56z M268.05,74.16c0,0.01,0,0.02-0.01,0.02c-0.04-0.01-0.08-0.02-0.11-0.02
			C267.98,74.16,268.01,74.16,268.05,74.16z M264.45,77.23c-0.56,0.06-0.56-0.26-0.53-0.61c0.21,0.08,0.42,0.16,0.61,0.26
			C264.57,76.9,264.5,77.22,264.45,77.23z M263.69,76.18c0.03,0.09,0.06,0.17,0.09,0.26C263.46,76.36,263.42,76.27,263.69,76.18z
			 M260.22,86.98c-0.1,0.03-0.2,0.07-0.29,0.05c-0.08-0.02-0.19-0.25-0.17-0.27C259.97,86.57,260.13,86.66,260.22,86.98z
			 M258.53,53.49l-0.11,0.16c-0.01,0.02-0.03,0.03-0.05,0.04C258.41,53.64,258.53,53.49,258.53,53.49z M249.15,67.76
			c0.01,0.08-0.11,0.17-0.17,0.25c-0.1-0.07-0.19-0.13-0.28-0.2c0-0.12-0.05-0.3,0.01-0.35C248.93,67.3,249.11,67.42,249.15,67.76z
			 M246.16,93.78c0.25-0.03,0.32,0.1,0.27,0.33c-0.09-0.02-0.19-0.03-0.27-0.08C246.12,94,246.15,93.78,246.16,93.78z M240.03,85.3
			l0.01,0.2c-0.01,0-0.04-0.01-0.04-0.02L240.03,85.3z M239.8,73.37l-0.2,0.14l-0.04-0.22L239.8,73.37z M237.62,70.63
			c-0.28,0.1-0.56,0.2-0.84,0.3c0.22-0.14,0.42-0.28,0.63-0.39C237.45,70.52,237.55,70.59,237.62,70.63z M230.55,99.88
			C230.55,99.89,230.55,99.89,230.55,99.88c-0.21,0.07-0.41,0.12-0.61,0.17C230.14,100,230.34,99.94,230.55,99.88z M230.58,99.97
			c0.15,0.36,0.27,0.75,0.5,1.06c0.31,0.41,0.91,0.44,1.19,0.13c0.38-0.44,0.74-0.9,1.1-1.36c-0.01,0-0.26,0.15-0.26,0.15l0.2-0.2
			c0.6,0.39,1.27,0.23,1.63-0.18c0.71-0.82,1.38-1.3,2.55-0.83c0.4,0.16,0.86-0.2,1.01-0.65c0.12-0.37,0.16-0.77,0.23-1.16
			c0.39,0.09,0.67,0.15,0.95,0.21c1.21,0.28,1.97,0.08,2.47-1.09c0.27-0.62,0.46-0.86,1.13-1c0.58-0.11,1.1-0.32,1.72-0.18
			c0.63,0.14,1.02-0.29,1.43-0.65c0.51-0.28,1.02-0.57,1.54-0.83c0.52-0.26,1.01-0.48,1.31-1.06c0.47-0.91,1.29-0.01,1.95-0.23
			c1.14-0.37,2.18-0.88,3.06-1.66c0.14-0.12,0.02-0.51,0.03-0.76c0.06,0.03,0.07,0.02,0.11,0.04c-0.01,0.04-0.03,0.08-0.04,0.12
			c1.02,0.13,2.04,0.36,3.06,0.35c0.9,0,1.37,0.43,1.7,1.09c0.37,0.77,0.72,1.57,0.98,2.38c0.4,1.22,0.72,2.47,1.06,3.71
			c0.18,0.67,0.59,1.16,1.09,1.62c-0.74,0.74-0.37,1.6-0.24,2.44c0.1,0.66-0.21,1.08-0.8,1.39c-0.39,0.2-0.76,0.47-1.06,0.77
			c-0.23,0.23-0.49,0.36-0.73,0.07c-0.78-0.92-1.64-0.65-2.37-0.07c-0.65,0.51-1.27,0.41-2.01,0.45c-1.02,0.05-2,0.28-3.07,0.21
			c-1.11-0.07-2.18,1.03-3.4,0.27c-0.53,0.26-1.08,0.49-1.58,0.79c-0.44,0.27-0.32,1.05-1.02,1.12c-0.81-1.43-1.14-1.55-2.33-0.74
			c-0.48,0.33-0.9,0.74-1.34,1.12c-0.14-0.17-0.22-0.29-0.33-0.39c-1.39-1.2-2.46-0.94-2.89,0.7c-0.08,0.31,0.15,0.83-0.49,0.84
			c-0.1-0.13-0.23-0.23-0.26-0.36c-0.22-0.88-0.86-1.19-1.69-1.07c-0.41,0.06-0.77,0.38-1.17,0.55c-0.22,0.1-0.64,0.24-0.69,0.17
			c-0.97-1.28-2.6-0.45-3.76-1.09c-0.37-0.82-0.74-1.63-1.13-2.49C230.11,102.46,230.36,101.21,230.58,99.97z M222.34,87.01
			c0.05,0.11,0.01,0.29-0.05,0.4c-0.04,0.08-0.25,0.17-0.3,0.14c-0.47-0.3-0.92-0.63-1.37-0.95
			C221.92,86.27,222.04,86.31,222.34,87.01z M236.09,41.5c0,0.02-0.01,0.05-0.01,0.08c-0.03-0.02-0.07-0.04-0.11-0.06
			C236.03,41.51,236.06,41.51,236.09,41.5z M230.18,52.45c-0.25,0.05-0.53,0.19-0.56-0.29C229.81,52.25,229.99,52.35,230.18,52.45z
			 M214.61,82.52c-0.08,0.04-0.16,0.07-0.23,0.06c-0.12-0.01-0.22-0.12-0.33-0.19C214.23,82.43,214.42,82.48,214.61,82.52z
			 M204,40.81c-0.05,0.01-0.07,0.02-0.11,0.04c0-0.02,0-0.05,0.01-0.07C203.93,40.78,203.97,40.8,204,40.81z M203.89,45.08
			l-0.25,0.15l-0.04-0.23L203.89,45.08z M185.97,57.23c1.14-0.84,1.49-1.81,0.49-2.97c-0.4-0.46-0.07-0.81,0.16-1.16
			c0.43-0.67,0.51-1.37,0.24-2.1c-0.15-0.41-0.41-0.78-0.55-1.2c-0.18-0.53,0.29-1.32,0.79-1.39c0.6-0.09,1.2-0.22,1.8-0.22
			c3.35-0.01,6.69,0,10.04,0.03c0.44,0,0.89,0.16,1.32,0.25c0.47,1.24,0.93,2.44,1.38,3.64c-0.43,0.11-1.01,0.09-1.26,0.36
			c-0.39,0.41-0.71,1-0.8,1.56c-0.1,0.6,0.42,1.01,0.92,1.38c0.46,0.34,0.41,0.4-0.27,0.67c-0.27,0.11-0.73,0.16-0.79,0.33
			c-0.13,0.39-0.11,0.85-0.06,1.27c0.09,0.68,1.04,1.01,0.86,1.82c-0.15,0.09-0.27,0.21-0.41,0.23c-0.83,0.11-1.48,0.41-1.43,1.34
			c0.05,0.88,0.13,1.76,0.28,2.62c0.13,0.72-0.32,1.04-0.78,1.42c-0.83,0.68-0.92,1.51-0.25,2.32c0.54,0.65,0.1,0.99-0.25,1.47
			c-0.61,0.86,0.01,1.98-0.69,2.92c-0.61,0.82-0.6,1.91-0.66,2.96c-0.05,1-0.45,1.97-0.71,2.96c-0.13,0.5-0.72,0.89-1.38,0.96
			c-0.15,0.01-0.3,0.04-0.45,0.04c-1.3,0.07-2.32-0.16-2.92-1.54c-0.35-0.82-0.74-1.55-0.61-2.47c0.06-0.41,0.02-1.06-0.24-1.25
			c-1.09-0.78-0.66-1.74-0.6-2.73c0.04-0.68-0.61-1.47-0.42-2.05c0.38-1.13-0.09-1.97-0.4-2.95c-0.3-0.96,0.07-2.07-0.58-2.97
			c-0.47-0.65-0.5-1.3-0.37-2.07c0.14-0.83,0.03-1.7,0.03-2.54c-0.63-0.19-1.18-0.35-1.77-0.52
			C185.8,57.46,185.86,57.31,185.97,57.23z M180.85,25.77c0.03-0.07,0.02-0.08,0.04-0.12c0.03,0.01,0.06,0.03,0.09,0.04
			C180.94,25.72,180.9,25.75,180.85,25.77z M157.81,52.44c-0.03,0.07-0.24,0.09-0.37,0.08c-0.19-0.01-0.37-0.03-0.55-0.05
			c0.18-0.13,0.34-0.28,0.54-0.36C157.77,51.96,157.94,52.11,157.81,52.44z M18.2,108.81c0-0.02,0.01-0.04,0.01-0.06
			c0.04,0.02,0.07,0.04,0.11,0.06C18.27,108.81,18.24,108.81,18.2,108.81z M20.38,122.66l-0.1,0.26c-0.02,0-0.04,0-0.06-0.01
			L20.38,122.66z M20.46,122.94c0.34-0.07,0.68-0.15,1.02-0.2c0.39-0.06,0.66,0.1,0.86,0.39C21.71,123.07,21.09,123.01,20.46,122.94
			z M22.78,142.66c-0.06-0.01-0.18-0.18-0.17-0.2c0.14-0.17,0.27-0.11,0.37,0.14C22.91,142.63,22.84,142.67,22.78,142.66z
			 M23.28,104.41l0.09-0.27l0.17,0.23L23.28,104.41z M24.07,137.18c-0.06-0.02-0.07-0.18-0.1-0.28c0.12-0.03,0.24-0.07,0.37-0.1
			c0.03,0.11,0.06,0.21,0.08,0.32C24.3,137.14,24.17,137.21,24.07,137.18z M28.97,140.46c0,0.01,0,0.01,0,0.02
			c-0.03,0.01-0.05,0-0.09,0.01C28.92,140.48,28.94,140.47,28.97,140.46z M36.54,107c-0.07-0.03-0.09-0.25-0.06-0.37
			c0.06-0.25,0.17-0.48,0.22-0.69c-1.32,0.53-1.49,0.53-2.19-0.22c0.74,0.06,1.48,0.13,2.23,0.19c0.07,0.25,0.13,0.49,0.2,0.74
			C37.05,107.04,36.91,107.17,36.54,107z M60.09,104.75l-0.02,0.15c0,0,0,0-0.01,0L60.09,104.75z M56.96,97.57
			c-0.12-0.08-0.23-0.16-0.35-0.23c0.02,0,0.04-0.01,0.04-0.01C56.69,97.35,56.81,97.44,56.96,97.57z M59.25,99.62
			c0,0,0.01-0.03,0.01-0.04C59.37,99.69,59.41,99.74,59.25,99.62z M60.82,105.31c-0.17-0.09-0.34-0.18-0.51-0.28
			c0.2-0.01,0.41-0.02,0.61-0.02C60.89,105.11,60.86,105.21,60.82,105.31z M110.92,161.14c0.1,0.24,0.17,0.5,0.22,0.75
			c-0.18-0.37-0.36-0.74-0.54-1.11C110.74,160.89,110.86,161,110.92,161.14z M106.64,156.51c-0.31-0.27-0.55-0.68-0.68-1.07
			c-0.06-0.19,0.17-0.56,0.38-0.69c0.2-0.13,0.71-0.17,0.79-0.05c0.74,1.07,1.46,2.17,2.1,3.3c0.31,0.56-0.03,1.1-0.32,1.59
			C108.41,158.38,107.63,157.39,106.64,156.51z M108.92,159.62c0.02,0.01,0.03,0.02,0.05,0.03c-0.01,0-0.02,0-0.03,0
			C108.93,159.64,108.93,159.63,108.92,159.62z M111.35,162.33c0,0,0.01,0,0.01,0c0.01,0.03,0.02,0.07,0.04,0.1
			C111.38,162.4,111.36,162.36,111.35,162.33z M113.57,155.08c-0.11-0.23-0.22-0.46-0.33-0.68
			C113.45,154.57,113.56,154.79,113.57,155.08z M112.96,153.79c0,0.07,0.01,0.14,0.01,0.21
			C112.71,153.88,112.69,153.81,112.96,153.79z M113.7,155.35c-0.02-0.04-0.03-0.07-0.05-0.11l0.27-0.08L113.7,155.35z
			 M162.95,145.46c-0.06,0.27-0.1,0.55-0.15,0.82c-0.04-0.54-0.09-1.07-0.14-1.61C162.9,144.87,163.02,145.13,162.95,145.46z
			 M161,143.73c0.02,0.01,0.03,0.02,0.05,0.03c-0.03,0-0.06-0.01-0.1-0.01C160.98,143.75,160.98,143.74,161,143.73z M156.79,146.11
			c-0.37-0.12-0.56-0.37-0.64-0.72C156.51,145.5,156.75,145.72,156.79,146.11z M154.53,144.65c-0.13-0.39-0.26-0.79-0.38-1.18
			c-0.06-0.2-0.11-0.41-0.16-0.62c0.13,0.04,0.32,0.05,0.37,0.13c0.15,0.23,0.32,0.49,0.34,0.75c0.03,0.27-0.1,0.56-0.15,0.83
			c0.05,0.03,0.1,0.05,0.15,0.08C154.65,144.65,154.6,144.64,154.53,144.65z M135.93,63.33c0.08-0.08,0.29-0.11,0.39-0.06
			c0.3,0.15,0.35,0.43,0.09,0.66c-0.2,0.17-0.49,0.24-0.75,0.31c-0.04,0.01-0.15-0.18-0.23-0.29
			C135.6,63.74,135.74,63.51,135.93,63.33z M135,89.42c-0.02-0.01-0.03-0.01-0.05-0.02c0.03-0.03,0.06-0.05,0.08-0.08
			C135.01,89.38,135.02,89.38,135,89.42z M132.11,84.64c0.41-0.01,0.52,0.13,0.26,0.36c-0.05,0.05-0.24-0.05-0.37-0.08
			C132.04,84.83,132.07,84.74,132.11,84.64z M127.16,86.12c-0.03,0.03-0.07,0.05-0.1,0.08c0-0.01,0-0.03,0-0.04
			C127.1,86.14,127.13,86.13,127.16,86.12z M125.64,80.46c-0.01,0-0.02-0.01-0.03-0.01c0.03-0.03,0.06-0.05,0.08-0.08
			C125.67,80.4,125.66,80.43,125.64,80.46z M124.87,79.01c-0.01,0.01-0.02,0.01-0.02,0.02C124.85,79.02,124.86,79.01,124.87,79.01
			C124.87,79.01,124.87,79,124.87,79.01z M124.06,79.96c0.22-0.29,0.46-0.56,0.69-0.82c-0.05,0.63-0.1,1.26-0.16,1.89
			c-0.06-0.07-0.1-0.14-0.21-0.18C123.93,80.67,123.75,80.38,124.06,79.96z M124,99.05c0.35-1.72,0.83-3.41,1.15-5.12
			c0.22-1.17,0.64-2.24,1.13-3.32c0.72-1.57,1.76-2.72,3.65-3.05c0.76,1.28,2.13,1.9,3.55,2.37c0.52,0.17,1.02-0.07,1.4-0.46
			c0.06,0.38,0.12,0.77,0.2,1.15c0.1,0.44,0.29,0.8,0.86,0.58c0.65-0.24,1-0.04,1.27,0.6c0.27,0.65,0.93,0.47,1.47,0.43
			c0.45,0.45,0.53,0.5,0.75,0.15c-0.03,0.05-0.06,0.1-0.05,0.15c0.05,0.26,0.17,0.51,0.27,0.77c0.41,0.12,0.83,0.36,1.21,0.31
			c0.4-0.05,0.74-0.42,1.14-0.6c0.46-0.21,0.84,0.11,0.74,0.6c-0.09,0.42-0.27,0.82-0.32,1.24c-0.1,0.79,0.59,1.26,1.46,1.01
			c0.28-0.08,0.51-0.29,0.78-0.39c0.49-0.18,0.78-0.02,0.86,0.5c0.12,0.8,0.79,0.65,1.34,0.71c0.36,0.32,0.7,0.47,0.96-0.1
			c0.35,0.66,0.79,1.3,1.66,1.15c0.76-0.13,1,0.36,1.46,0.7c0.26,0.19,0.82-0.01,1.24-0.03l0.25-0.01l-0.35,0.08
			c0.15,0.4,0.25,0.83,0.48,1.18c0.11,0.18,0.46,0.22,0.68,0.33c0,0.05,0.01,0.04,0.01,0.08c-0.04,0-0.09,0-0.13,0.01
			c0.3,0.32,0.55,0.71,0.91,0.95c1.29,0.86,1.61,2.07,1.33,3.46c-0.08,0.37-0.43,0.74-0.75,1c-0.2,0.16-0.58,0.19-0.87,0.16
			c-1.63-0.15-2.55,0.56-2.85,2.09c-0.02,0.08-0.23,0.18-0.35,0.19c-0.11,0-0.27-0.09-0.34-0.19c-0.08-0.11-0.08-0.27-0.12-0.42
			c-0.47-1.82-0.49-1.82-2.44-1.33c-0.29,0.07-0.59,0.21-0.86,0.17c-0.27-0.04-0.54-0.24-0.74-0.43c-0.3-0.29-0.52-0.32-0.74,0.03
			c-0.22,0.35-0.42,0.71-0.66,1.13c-0.21-0.31-0.37-0.51-0.48-0.73c-0.13-0.26-0.14-0.64-0.35-0.79c-0.47-0.33-1.01-0.7-1.56-0.78
			c-0.77-0.1-0.89,0.58-0.99,1.16c-0.06,0.36-0.25,0.52-0.54,0.43c-0.12-0.04-0.22-0.19-0.28-0.31c-0.19-0.39-0.29-0.83-0.55-1.17
			c-0.34-0.46-1.17-0.61-1.65-0.29c-0.36,0.24-0.63,0.86-0.94,0.86c-0.72,0-0.49-0.89-0.9-1.23c-0.33-0.29-0.71-0.7-1.09-0.73
			c-1.31-0.12-2.64-0.02-3.94-0.35c-0.23-0.06-0.57,0.15-0.81,0.3c-0.36,0.23-0.59,0.73-1.11,0.61c-0.51-0.12-0.47-0.63-0.65-1
			c-0.31-0.62-0.84-0.87-1.45-0.76c-0.3,0.05-0.59,0.13-0.87,0.24c-0.56,0.22-1.1,0.44-1.65-0.05c-0.46-0.41-0.81-0.87-0.85-1.49
			C123.97,100.22,123.89,99.62,124,99.05z M125.55,125.42c0.02,0.1-0.09,0.22-0.13,0.34c-0.12-0.03-0.29-0.02-0.34-0.08
			c-0.06-0.09-0.08-0.28-0.02-0.37C125.27,125,125.47,125.04,125.55,125.42z M125.81,176.72c-0.13-0.05-0.31-0.07-0.36-0.17
			c-0.05-0.08,0.05-0.24,0.09-0.36c0.12,0.07,0.27,0.11,0.35,0.21C125.93,176.47,125.84,176.61,125.81,176.72z M127.92,175.32
			c0.48,0.16,0.97,0.33,1.45,0.49c0,0.02,0,0.04,0,0.05c0-0.01-0.01-0.02-0.01-0.04C128.77,175.86,128.24,175.81,127.92,175.32z
			 M130.03,148.33c-0.37-0.24-0.33-0.44,0.03-0.44c0.07,0,0.13,0.25,0.23,0.34c0.12,0.12,0.25,0.22,0.37,0.32
			C130.43,148.49,130.21,148.45,130.03,148.33z M130.78,148.74c0.01-0.02,0.01-0.04,0.02-0.06c0.03,0.03,0.06,0.06,0.09,0.08
			C130.82,148.73,130.82,148.75,130.78,148.74z M130.53,144.04c-0.09-0.06-0.12-0.2-0.16-0.31c0.09-0.06,0.17-0.12,0.23-0.11
			c0.22,0.06,0.44,0.19,0.62,0.32c0.04,0.03-0.05,0.22-0.08,0.33C130.93,144.21,130.71,144.16,130.53,144.04z M132.45,175.94
			c-0.01-0.04-0.01-0.07-0.02-0.11c0.06,0.05,0.09,0.06,0.15,0.11C132.51,175.93,132.49,175.94,132.45,175.94z M132.69,172.74
			c0.03,0.47,0.06,0.94,0.1,1.41C132.61,173.69,132.55,173.22,132.69,172.74z M135.54,170.06c0.11,0.19,0.22,0.37,0.33,0.56
			C135.52,170.62,135.2,170.59,135.54,170.06z M142.7,165.3c-0.04-0.02,0.04-0.29,0.06-0.29c0.43,0.02,0.42,0.29,0.43,0.55
			C143.02,165.48,142.85,165.4,142.7,165.3z M143.57,143.05c0.06,0,0.12,0,0.18,0c-0.06,0.02-0.12,0.01-0.18,0.03
			C143.57,143.07,143.57,143.06,143.57,143.05z M144.51,141.36c0.09-0.07,0.18-0.14,0.27-0.2c-0.08,0.08-0.16,0.16-0.24,0.24
			C144.53,141.39,144.52,141.37,144.51,141.36z M147.71,156.4c-0.11-0.05-0.25-0.08-0.3-0.16c-0.04-0.06,0.05-0.2,0.08-0.3
			c0.1,0.06,0.24,0.09,0.29,0.18C147.81,156.17,147.74,156.3,147.71,156.4z M146.62,143.99c-0.32-0.3-0.61-0.62-0.92-0.92
			c-0.05-0.02-0.11-0.01-0.16-0.03c0.06,0,0.13,0,0.19,0c-0.4-0.53-0.8-1.07-1.19-1.62c0.4-0.09,0.8-0.18,1.18-0.27
			c0.59,0.7,1.1,1.38,1.7,1.98c0.28,0.28,0.72,0.41,1.06,0.63c-0.24,0.12-0.48,0.23-0.71,0.37
			C147.35,144.4,146.97,144.31,146.62,143.99z M148.49,143.86c-0.01,0.36-0.04,0.72,0.02,1.07c0.09,0.48,0.13,0.94-0.04,1.38
			C147.73,145.48,148.09,144.67,148.49,143.86z M148.6,146.42c0.43-0.07,0.8,0.07,1.11,0.37
			C149.24,146.91,148.92,146.66,148.6,146.42z M149.81,146.88C149.81,146.88,149.81,146.88,149.81,146.88
			C149.81,146.88,149.81,146.88,149.81,146.88C149.81,146.88,149.81,146.88,149.81,146.88z M149.93,157.02
			c0.01,0.01,0.03,0.01,0.04,0.02c-0.03,0-0.05-0.01-0.07-0.01C149.9,157.03,149.91,157.03,149.93,157.02z M150.56,132.94
			c-1.43-0.27-2.27,0.37-2.9,1.55c-0.32,0.61-0.89,1.1-1.26,1.53c-0.65-0.04-1.09-0.09-1.54-0.07c-0.35,0.01-0.46,0.27-0.34,0.63
			c-0.04-0.01-0.07-0.01-0.1-0.02c0-0.03,0-0.06,0-0.1c-0.44,0.04-0.91,0-1.32,0.13c-0.92,0.29-1.59,0.81-1.48,1.88
			c0.01,0.12-0.05,0.33-0.14,0.37c-0.23,0.1-0.63,0.26-0.73,0.16c-0.52-0.51-0.93-1.17-1.82-1.03c-0.88,0.14-1.02,0.89-1.38,1.53
			c-0.33,0.59-0.98,1.02-1.54,1.46c-0.17,0.13-0.61,0.17-0.74,0.06c-0.46-0.42-0.85-0.82-1.27,0.01c-1.48,0.56-2.78,1.35-3.65,2.66
			c-0.6-0.46-1.2-0.76-2.03-0.47c-0.6,0.21-1.18-0.02-1.49-0.6c-0.41-0.76-0.75-1.56-1.19-2.3c-0.1-0.17-0.36-0.24-0.59-0.34
			c-0.05-0.55-0.06-1.1-0.19-1.63c-0.44-1.7-0.9-3.4-1.42-5.08c-0.27-0.87-0.35-1.71-0.23-2.6c0.11-0.78,1.12-1.62,1.94-1.52
			c0.44,0.05,0.87,0.28,1.31,0.33c0.79,0.09,1.53-0.05,1.95-0.8c0.45-0.8,0.87-0.35,1.42-0.09c0.92,0.44,1.76,0.19,2.33-0.68
			c0.16-0.24,0.36-0.45,0.54-0.69c0.13,0.23,0.25,0.46,0.4,0.67c0.83,1.22,1.87,1.23,2.83,0.02c0.16-0.2,0.32-0.41,0.47-0.61
			c0.15,0.07,0.31,0.1,0.4,0.19c0.58,0.6,1.28,0.74,2.06,0.47c0.68-0.24,0.75-0.86,0.9-1.43c0.03-0.13,0.17-0.24,0.25-0.35
			c0.19,0.19,0.37,0.38,0.56,0.56c0.97,0.9,1.69,0.92,2.62-0.04c0.31-0.32,0.54-0.72,0.94-0.23c0.43,0.52,0.9,0.77,1.55,0.53
			c0.58-0.21,1.05-0.53,1.29-1.15c0.18-0.46-0.11-1.1,0.6-1.43c0.15,0.43,0.25,0.85,0.44,1.23c0.32,0.67,0.81,0.85,1.48,0.57
			c0.55-0.24,1.08-0.53,1.65-0.81c1.01,0.25,2.03,0.51,3.03,0.76c0.63,1.04,1.56,2.1,1.21,3.23c-0.4,1.3,0.06,2.26,0.48,3.34
			c0.06,0.17-0.2,0.46-0.35,0.68c-0.02,0.03-0.31-0.05-0.4-0.15c-0.3-0.33-0.56-0.69-0.84-1.02c-0.69-0.81-1.02-0.88-1.76-0.13
			C151.96,132.71,151.39,133.1,150.56,132.94z M153.39,147.32c0.36,0.13,0.71,0.27,1.07,0.41
			C154.02,147.76,153.67,147.61,153.39,147.32z M154.65,148.05c0.27,0.78,0.14,1.59,0.08,2.4c0,0-0.01-0.01-0.01-0.01
			C154.7,149.63,154.68,148.84,154.65,148.05z M155.18,151.31c0,0-0.13,0.25-0.13,0.25l0.08-0.16c0.09-0.38,0.02-0.71-0.35-0.93
			c1.86,0.03,2.12,0.36,1.61,2.02c0.03,0.02,0.06,0.05,0.1,0.07c-0.02,0-0.04-0.01-0.06-0.01
			C156.25,151.93,155.79,151.54,155.18,151.31z M160.09,141.5l-0.03-0.24l0.27,0.08L160.09,141.5z M160.78,148.31
			c-0.05-0.03-0.09-0.08-0.13-0.12c0.12,0.02,0.25,0.04,0.37,0.06C160.94,148.27,160.83,148.34,160.78,148.31z M162.82,146.5
			C162.82,146.5,162.82,146.5,162.82,146.5c0.49,0.1,1.02,0.11,1.34,0.52C163.71,146.84,163.26,146.67,162.82,146.5z M164.54,164.25
			c-0.23-0.09-0.24-0.24-0.12-0.43c0.08,0.07,0.18,0.13,0.23,0.21C164.67,164.07,164.54,164.25,164.54,164.25z"/>
		<path class="st0" d="M234.65,60.55c-0.09,0-0.17-0.04-0.26-0.05c0.05,0.05,0.09,0.1,0.14,0.14L234.65,60.55z"/>
		<path class="st0" d="M152.47,58.89c0-0.04,0.01-0.08,0.02-0.12c-0.04,0-0.08,0.02-0.12,0.02L152.47,58.89z"/>
		<path class="st0" d="M147.79,62.32c-0.01,0.04-0.02,0.08-0.03,0.11c0.04,0,0.07-0.02,0.12-0.02L147.79,62.32z"/>
		<path class="st0" d="M240.05,65.07c0.03-0.01,0.07-0.01,0.1-0.02c0-0.03,0-0.05,0-0.08L240.05,65.07z"/>
	</g>
</g>
<g>
	<path class="st2" d="M273.89,155.51c0,8.42-4.7,13.73-14.11,15.95l2.87,1.15c5.97,2.37,9.91,5.51,11.82,9.41
		c1.45,2.98,2.18,6.08,2.18,9.29c0,7.27-2.62,12.91-7.86,16.92c-5.24,4.02-12.56,6.02-21.97,6.02c-2.98,0-6.12-0.11-9.41-0.34
		l-8.15-0.57c-2.14-0.15-4.47-0.23-7-0.23c-1.84,0-4.51,0.19-8.03,0.57c-3.52,0.38-6.04,0.57-7.57,0.57h-0.92
		c-2.45,0-4.42-0.76-5.91-2.29c-1.49-1.53-2.24-3.56-2.24-6.08c0-2.14,0.59-3.94,1.78-5.39c1.18-1.45,2.66-2.18,4.42-2.18
		c0.69,0,1.62,0.13,2.81,0.4c1.18,0.27,2.08,0.4,2.7,0.4c2.06,0,3.1-2.6,3.1-7.8v-31.78c0-5.12-1.03-7.69-3.1-7.69
		c-0.61,0-1.51,0.13-2.7,0.4c-1.19,0.27-2.12,0.4-2.81,0.4c-1.76,0-3.23-0.73-4.42-2.18c-1.19-1.45-1.78-3.25-1.78-5.39
		c0-2.52,0.75-4.57,2.24-6.14c1.49-1.57,3.46-2.35,5.91-2.35c0.15,0,0.3,0,0.46,0c0.23,0.08,0.38,0.11,0.46,0.11l8.15,0.8
		c2.29,0.23,5.35,0.34,9.18,0.34c2.98,0,5.35-0.08,7.11-0.23l7.8-0.69c1.76-0.15,4.32-0.23,7.69-0.23c5.05,0,9.6,0.54,13.65,1.61
		c4.05,1.07,7.34,3.19,9.87,6.37C272.63,147.84,273.89,151.46,273.89,155.51z M232.13,163.2c0,1.53,0.3,2.49,0.92,2.87
		c0.38,0.31,1.34,0.46,2.87,0.46h3.56c3.98,0,7.13-0.73,9.47-2.18c2.33-1.45,3.5-3.4,3.5-5.85c0-5.12-3.98-7.69-11.93-7.69
		c-2.91,0-4.9,0.23-5.97,0.69c-1.61,0.77-2.41,2.41-2.41,4.93V163.2z M255.19,190.51c0-3.14-1.42-5.66-4.25-7.57
		c-2.83-1.91-6.58-2.87-11.24-2.87h-3.44c-1.68,0-2.79,0.25-3.33,0.75c-0.54,0.5-0.8,1.43-0.8,2.81V192c0,2.91,0.84,4.92,2.52,6.02
		c1.68,1.11,4.74,1.66,9.18,1.66c3.37,0,6.1-0.84,8.2-2.52C254.14,195.48,255.19,193.26,255.19,190.51z"/>
</g>
</svg>
