<?xml version="1.0" encoding="UTF-8" standalone="no"?>
<svg
   xmlns:dc="http://purl.org/dc/elements/1.1/"
   xmlns:cc="http://creativecommons.org/ns#"
   xmlns:rdf="http://www.w3.org/1999/02/22-rdf-syntax-ns#"
   xmlns:svg="http://www.w3.org/2000/svg"
   xmlns="http://www.w3.org/2000/svg"
   xmlns:sodipodi="http://sodipodi.sourceforge.net/DTD/sodipodi-0.dtd"
   xmlns:inkscape="http://www.inkscape.org/namespaces/inkscape"
   height="605.09265"
   width="1835.4753"
   version="1.1"
   id="Capa_1"
   x="0px"
   y="0px"
   viewBox="0 0 1835.4753 605.09265"
   xml:space="preserve"
   sodipodi:docname="brakdakkie.svg"
   inkscape:version="1.0 (4035a4f, 2020-05-01)"><metadata
   id="metadata353"><rdf:RDF><cc:Work
       rdf:about=""><dc:format>image/svg+xml</dc:format><dc:type
         rdf:resource="http://purl.org/dc/dcmitype/StillImage" /><dc:title></dc:title></cc:Work></rdf:RDF></metadata><defs
   id="defs351"><rect
     x="-742.95081"
     y="9.6705894"
     width="654.01123"
     height="424.23373"
     id="rect380" /></defs><sodipodi:namedview
   inkscape:document-rotation="0"
   pagecolor="#ffffff"
   bordercolor="#666666"
   borderopacity="1"
   objecttolerance="10"
   gridtolerance="10"
   guidetolerance="10"
   inkscape:pageopacity="0"
   inkscape:pageshadow="2"
   inkscape:window-width="2560"
   inkscape:window-height="1376"
   id="namedview349"
   showgrid="false"
   inkscape:zoom="0.40706978"
   inkscape:cx="160.12709"
   inkscape:cy="304.40725"
   inkscape:window-x="0"
   inkscape:window-y="27"
   inkscape:window-maximized="1"
   inkscape:current-layer="Capa_1" />
















<g
   transform="translate(-34.003881,21.19077)"
   id="g376"><g
     transform="translate(-80.437871,0.66041137)"
     id="g310">
	<g
   id="g308">
		<path
   id="path306"
   d="m 245.768,112.226 c -4.142,0 -7.5,3.358 -7.5,7.5 0,4.705 -3.828,8.532 -8.532,8.532 -4.704,0 -8.532,-3.827 -8.532,-8.532 0,-3.037 1.637,-5.871 4.271,-7.395 3.585,-2.074 4.811,-6.662 2.737,-10.248 -2.074,-3.585 -6.663,-4.811 -10.248,-2.737 -7.254,4.196 -11.76,12.005 -11.76,20.379 0,12.976 10.557,23.532 23.532,23.532 12.975,0 23.532,-10.556 23.532,-23.532 0,-4.141 -3.358,-7.499 -7.5,-7.499 z" />
	</g>
</g><g
     transform="translate(-80.437871,0.66041137)"
     id="g316">
	<g
   id="g314">
		<path
   id="path312"
   d="m 391.591,77.682 c -3.792,-2.961 -8.647,-3.99 -13.312,-2.823 l -34.547,8.637 c -2.668,-8.45 -6.128,-16.388 -10.311,-23.633 -4.729,-8.191 -10.681,-16.024 -17.689,-23.281 -1.382,-1.431 -3.277,-2.254 -5.267,-2.289 -1.978,-0.033 -3.911,0.724 -5.342,2.107 l -6.256,6.049 C 288.184,32.886 275.663,25.645 262.099,21.191 l 2.104,-8.416 c 0.483,-1.931 0.178,-3.974 -0.846,-5.68 C 262.333,5.389 260.672,4.16 258.741,3.678 248.951,1.238 239.191,0 229.735,0 c -9.456,0 -19.215,1.238 -29.007,3.679 -1.931,0.481 -3.591,1.71 -4.616,3.417 -1.024,1.706 -1.329,3.75 -0.846,5.68 l 2.105,8.419 c -13.558,4.452 -26.076,11.69 -36.764,21.258 l -6.26,-6.053 c -1.431,-1.383 -3.343,-2.142 -5.342,-2.107 -1.99,0.034 -3.884,0.857 -5.267,2.289 -7.01,7.259 -12.961,15.091 -17.689,23.281 -4.729,8.19 -8.537,17.261 -11.317,26.96 -0.548,1.913 -0.314,3.965 0.651,5.705 0.965,1.74 2.583,3.025 4.496,3.573 l 8.353,2.39 c -1.447,6.956 -2.19,14.074 -2.19,21.235 0,7.162 0.743,14.279 2.191,21.235 l -8.353,2.39 c -1.914,0.547 -3.531,1.832 -4.496,3.572 -0.965,1.74 -1.199,3.793 -0.651,5.706 2.781,9.7 6.589,18.77 11.317,26.96 4.728,8.189 10.68,16.022 17.689,23.281 1.382,1.431 3.277,2.255 5.267,2.289 0.043,0 0.085,0.001 0.128,0.001 1.944,0 3.813,-0.755 5.213,-2.108 l 6.258,-6.051 c 10.676,9.553 23.213,16.799 36.767,21.252 l -2.106,8.423 c -0.483,1.931 -0.178,3.974 0.846,5.68 0.959,1.597 2.48,2.768 4.254,3.307 l -6.916,36.885 h -11.812 c -4.142,0 -7.5,3.358 -7.5,7.5 0,4.142 3.358,7.5 7.5,7.5 h 8.999 L 151.366,497 h -25.84 c -4.142,0 -7.5,3.358 -7.5,7.5 0,4.142 3.358,7.5 7.5,7.5 h 208.419 c 4.142,0 7.5,-3.358 7.5,-7.5 0,-4.142 -3.358,-7.5 -7.5,-7.5 h -25.84 L 268.833,287.548 h 8.999 c 4.142,0 7.5,-3.358 7.5,-7.5 0,-4.142 -3.358,-7.5 -7.5,-7.5 H 266.02 l -6.916,-36.885 c 1.774,-0.539 3.295,-1.71 4.254,-3.307 1.024,-1.706 1.329,-3.749 0.846,-5.68 l -2.105,-8.421 c 13.561,-4.454 26.09,-11.693 36.77,-21.251 l 6.255,6.048 c 1.4,1.354 3.27,2.108 5.213,2.108 0.042,0 0.085,0 0.128,-0.001 1.99,-0.034 3.884,-0.857 5.267,-2.289 7.009,-7.258 12.96,-15.091 17.689,-23.281 4.183,-7.246 7.643,-15.183 10.311,-23.633 l 34.547,8.637 c 1.261,0.315 2.535,0.47 3.798,0.47 3.413,0 6.746,-1.132 9.514,-3.293 3.792,-2.961 5.967,-7.419 5.967,-12.23 V 89.912 c 0,-4.811 -2.175,-9.269 -5.967,-12.23 z M 258.449,35.793 c 10.86,3.715 20.917,9.528 29.601,17.115 L 264.097,76.069 C 259.954,72.8 255.339,70.11 250.368,68.116 Z m -28.714,188.659 c -5.886,0 -11.927,-0.556 -18.037,-1.657 l 11.953,-47.812 c 1.999,0.219 4.027,0.339 6.084,0.339 2.057,0 4.084,-0.121 6.084,-0.339 l 11.953,47.812 c -6.11,1.101 -12.151,1.657 -18.037,1.657 z m 21.024,48.096 h -13.524 v -33.357 c 2.367,-0.159 4.747,-0.392 7.138,-0.701 z m -28.523,-33.356 v 33.357 h -13.523 l 6.385,-34.058 c 2.391,0.309 4.771,0.542 7.138,0.701 z m 7.499,-78.87 c -22.385,0 -40.597,-18.211 -40.597,-40.597 0,-22.385 18.211,-40.597 40.597,-40.597 22.386,0 40.597,18.212 40.597,40.597 0,22.386 -18.211,40.597 -40.597,40.597 z m 0,-145.322 c 5.886,0 11.927,0.556 18.037,1.656 l -11.953,47.813 c -1.999,-0.219 -4.027,-0.34 -6.084,-0.34 -2.057,0 -4.084,0.121 -6.084,0.34 L 211.698,16.656 C 217.809,15.556 223.85,15 229.735,15 Z m -28.713,20.795 8.08,32.32 c -4.97,1.994 -9.585,4.685 -13.729,7.953 L 171.414,52.902 c 8.69,-7.591 18.752,-13.393 29.608,-17.107 z M 139.04,67.363 c 2.943,-5.097 6.445,-10.051 10.453,-14.792 l 35.447,34.274 c -2.396,3.256 -4.442,6.783 -6.091,10.523 L 131.456,83.811 c 2.102,-5.841 4.641,-11.351 7.584,-16.448 z m 35.675,60.302 -32.024,9.161 c -1.094,-5.608 -1.649,-11.337 -1.649,-17.1 0,-5.763 0.555,-11.492 1.649,-17.099 l 32.024,9.161 c -0.373,2.595 -0.576,5.243 -0.576,7.938 0,2.696 0.203,5.345 0.576,7.939 z m -25.222,59.215 c -4.008,-4.74 -7.51,-9.694 -10.453,-14.791 -2.943,-5.098 -5.482,-10.607 -7.584,-16.448 l 47.393,-13.558 c 1.65,3.741 3.695,7.268 6.091,10.523 z m 21.926,-0.335 23.955,-23.162 c 4.143,3.268 8.758,5.958 13.729,7.953 l -8.083,32.332 c -10.854,-3.715 -20.92,-9.542 -29.601,-17.123 z M 222.235,497 H 166.627 L 186.36,391.758 h 35.875 z m 70.608,0 H 237.235 V 391.758 H 273.11 Z M 270.298,376.758 h -33.063 v -48.613 c 0,-4.142 -3.358,-7.5 -7.5,-7.5 -4.142,0 -7.5,3.358 -7.5,7.5 v 48.613 h -33.063 l 16.727,-89.209 h 16.336 v 8.53 c 0,4.142 3.358,7.5 7.5,7.5 4.142,0 7.5,-3.358 7.5,-7.5 v -8.53 h 16.336 z m -11.847,-173.094 -8.082,-32.328 c 4.97,-1.994 9.585,-4.685 13.729,-7.953 l 23.953,23.16 c -8.684,7.584 -18.743,13.405 -29.6,17.121 z m 61.98,-31.575 c -2.943,5.098 -6.445,10.052 -10.453,14.792 l -35.447,-34.274 c 2.396,-3.256 4.442,-6.783 6.092,-10.523 l 47.392,13.558 c -2.102,5.839 -4.641,11.349 -7.584,16.447 z m -35.675,-60.302 32.019,-9.159 c 1.094,5.607 1.654,11.333 1.654,17.098 0,5.764 -0.554,11.493 -1.648,17.1 l -32.026,-9.161 c 0.373,-2.594 0.576,-5.243 0.576,-7.939 10e-4,-2.696 -0.202,-5.344 -0.575,-7.939 z m -4.133,-14.418 c -1.65,-3.74 -3.695,-7.267 -6.092,-10.523 l 35.447,-34.274 c 4.007,4.739 7.509,9.693 10.453,14.791 2.943,5.098 5.482,10.607 7.584,16.449 z m 101.936,52.171 v 0 c -0.001,0.076 -0.001,0.252 -0.2,0.407 -0.198,0.155 -0.369,0.113 -0.443,0.094 l -50.025,-12.506 c 1.014,-5.86 1.538,-11.819 1.538,-17.809 0,-5.991 -0.519,-11.949 -1.533,-17.809 l 50.021,-12.505 c 0.074,-0.019 0.245,-0.061 0.443,0.094 0.199,0.155 0.199,0.332 0.199,0.407 z" />
	</g>
</g><g
     transform="translate(-80.437871,0.66041137)"
     id="g318">
</g><g
     transform="translate(-80.437871,0.66041137)"
     id="g320">
</g><g
     transform="translate(-80.437871,0.66041137)"
     id="g322">
</g><g
     transform="translate(-80.437871,0.66041137)"
     id="g324">
</g><g
     transform="translate(-80.437871,0.66041137)"
     id="g326">
</g><g
     transform="translate(-80.437871,0.66041137)"
     id="g328">
</g><g
     transform="translate(-80.437871,0.66041137)"
     id="g330">
</g><g
     transform="translate(-80.437871,0.66041137)"
     id="g332">
</g><g
     transform="translate(-80.437871,0.66041137)"
     id="g334">
</g><g
     transform="translate(-80.437871,0.66041137)"
     id="g336">
</g><g
     transform="translate(-80.437871,0.66041137)"
     id="g338">
</g><g
     transform="translate(-80.437871,0.66041137)"
     id="g340">
</g><g
     transform="translate(-80.437871,0.66041137)"
     id="g342">
</g><g
     transform="translate(-80.437871,0.66041137)"
     id="g344">
</g><g
     transform="translate(-80.437871,0.66041137)"
     id="g346">
</g></g>
<g
   style="font-style:normal;font-weight:normal;font-size:40px;line-height:1.25;font-family:sans-serif;white-space:pre;shape-inside:url(#rect380);fill:#000000;fill-opacity:1;stroke:none"
   id="text378"
   transform="matrix(3.3090715,0,0,3.3090715,2818.581,-41.8991)"
   aria-label="Brakdakkie
Guest Cottages"><path
     id="path484"
     style="font-style:normal;font-variant:normal;font-weight:normal;font-stretch:normal;font-size:74.6667px;font-family:'Kaushan Script';-inkscape-font-specification:'Kaushan Script, Normal';font-variant-ligatures:normal;font-variant-caps:normal;font-variant-numeric:normal;font-variant-east-asian:normal"
     d="m -683.96448,33.643234 q 0,4.629335 -2.53866,8.288004 -2.53867,3.584001 -6.94401,5.973336 2.83734,1.941334 4.48,4.778669 1.71734,2.762668 1.71734,6.122669 0,4.032002 -2.464,7.989337 -2.38934,3.882669 -6.42134,6.944004 -4.032,2.986668 -9.184,4.853335 -5.15201,1.866668 -10.52801,1.866668 -5.824,0 -10.22934,-2.240001 -4.33067,-2.165335 -6.79467,-6.197336 0.74667,-2.240002 1.94134,-5.525336 1.26933,-3.360002 2.76267,-7.01867 1.49333,-3.733336 2.98666,-7.392004 1.568,-3.658668 2.912,-6.57067 2.83734,-6.346669 5.07734,-10.528005 2.24,-4.181335 4.10667,-6.645336 -4.10667,1.269334 -7.46667,2.912001 -3.36,1.568001 -4.928,3.061335 -0.672,-0.448 -1.41867,-1.344001 -0.672,-0.896 -1.344,-1.941334 -0.59734,-1.120001 -1.04534,-2.240001 -0.37333,-1.120001 -0.448,-2.016001 1.94134,-1.344001 5.00267,-2.538668 3.136,-1.269334 6.79467,-2.165334 3.65867,-0.896001 7.46667,-1.418668 3.88267,-0.522667 7.39201,-0.522667 8.96,0 14.03734,3.584002 5.07733,3.584002 5.07733,9.930672 z m -28.44801,17.845341 q -1.41867,-0.672 -2.61334,-2.016001 -1.71733,3.808002 -3.28533,7.466671 -1.49333,3.658668 -2.688,6.79467 -1.19467,3.136001 -1.94134,5.450669 -0.74666,2.314668 -0.82133,3.360001 1.04533,0.597334 2.464,0.896001 1.49334,0.298667 3.65867,0.298667 5.07734,0 9.70667,-1.418668 4.62934,-1.418667 8.13867,-3.808001 3.50934,-2.464002 5.6,-5.600003 2.09067,-3.136002 2.09067,-6.57067 0,-4.928002 -4.256,-7.093337 -5.824,2.389335 -13.14134,2.389335 -1.04533,0 -1.64267,0 -0.52266,0 -1.26933,-0.149334 z m 14.48534,-25.909345 q -1.568,0 -3.36,0.224 -1.71734,0.149333 -3.65867,0.522667 0.29867,0.298667 0.448,0.672 0.224,0.298667 0.37333,0.672 -0.672,0.896001 -1.64266,2.613335 -0.97067,1.717334 -2.16534,4.032002 -1.19467,2.240001 -2.53867,5.002669 -1.26933,2.762668 -2.61333,5.674669 1.26933,-0.298667 3.06133,-0.448 1.86667,-0.224 3.65867,-0.224 0.97067,0 1.86667,0.07467 0.97067,0.07467 1.86667,0.224 3.584,-0.597334 6.42133,-1.717334 2.91201,-1.194668 5.00267,-2.688002 2.09067,-1.568 3.21067,-3.434668 1.12,-1.866668 1.12,-3.957335 0,-3.584002 -2.83733,-5.376003 -2.83734,-1.866667 -8.21334,-1.866667 z" /><path
     id="path486"
     style="font-style:normal;font-variant:normal;font-weight:normal;font-stretch:normal;font-size:74.6667px;font-family:'Kaushan Script';-inkscape-font-specification:'Kaushan Script, Normal';font-variant-ligatures:normal;font-variant-caps:normal;font-variant-numeric:normal;font-variant-east-asian:normal"
     d="m -684.41714,73.291252 q 0.37333,-2.165334 1.26933,-5.674669 0.97067,-3.584002 2.24,-7.541337 1.26934,-4.032002 2.688,-8.064004 1.41867,-4.032002 2.76267,-7.24267 0.97067,-2.314668 1.71733,-3.584002 0.74667,-1.344 1.64267,-2.240001 1.04534,0.149334 2.16534,0.522667 1.12,0.373334 2.16533,0.896001 1.04533,0.522667 1.86667,1.12 0.82133,0.522667 1.26933,1.045334 -2.016,2.389335 -3.584,5.450669 -1.49333,3.061335 -3.06133,7.840004 4.032,-3.584002 7.09333,-6.869336 3.136,-3.285335 5.82401,-7.317337 0.448,-0.373334 1.568,-0.373334 1.04533,0 2.016,0.373334 0.97066,0.298667 1.344,0.896 -1.344,3.584002 -1.344,7.093337 0,3.285335 0.97066,4.928002 -0.0747,0.448 -1.04533,1.717334 -0.896,1.269334 -2.016,2.389335 -2.016,-1.045334 -3.584,-2.837335 -1.568,-1.866667 -2.31467,-4.032002 -3.50934,2.464001 -5.97334,4.853336 -2.464,2.314668 -4.256,5.226669 -1.71733,2.837335 -2.98667,6.57067 -1.19466,3.733335 -2.31466,8.885337 -0.672,-0.07467 -1.64267,-0.522667 -0.896,-0.373333 -1.86667,-0.970667 -0.896,-0.597333 -1.64267,-1.269334 -0.74666,-0.672 -0.97066,-1.269334 z" /><path
     id="path488"
     style="font-style:normal;font-variant:normal;font-weight:normal;font-stretch:normal;font-size:74.6667px;font-family:'Kaushan Script';-inkscape-font-specification:'Kaushan Script, Normal';font-variant-ligatures:normal;font-variant-caps:normal;font-variant-numeric:normal;font-variant-east-asian:normal"
     d="m -626.82345,44.619239 q 0.74667,0 1.71733,0.298667 1.04534,0.224 1.86667,0.672 0.82133,0.373333 1.344,0.821334 0.59733,0.448 0.59733,0.821333 -1.49333,3.136002 -2.76266,6.34667 -1.26934,3.136002 -2.16534,6.048003 -0.896,2.912001 -1.41867,5.450669 -0.448,2.538668 -0.448,4.405336 0,2.090667 0.448,3.509335 0.44801,1.344 1.49334,1.941334 -0.896,0.597334 -2.31467,0.970667 -1.41867,0.373334 -2.53867,0.373334 -4.032,0 -4.032,-5.525336 0,-4.256002 2.83734,-11.648006 -1.49334,3.434668 -3.43467,6.496003 -1.94134,2.986668 -3.95734,5.301336 -2.016,2.314668 -4.10667,3.808002 -2.016,1.418667 -3.73333,1.717334 -2.76267,-0.149333 -4.48,-2.613335 -1.71734,-2.538667 -1.71734,-6.421336 0,-4.181335 1.792,-8.810671 1.792,-4.629335 4.55467,-8.586671 2.83734,-3.957335 6.12267,-6.570669 3.28534,-2.688002 6.34667,-2.837335 0.74667,0.224 1.64267,0.896 0.97067,0.672001 1.792,1.568001 0.896,0.896 1.49333,1.866668 0.59734,0.896 0.672,1.568 -2.98666,0.448001 -6.19733,2.912002 -3.136,2.464001 -5.74934,5.973336 -2.53867,3.434668 -4.18133,7.392003 -1.64267,3.957336 -1.64267,7.392004 0,1.418667 1.04533,1.792001 2.16534,-0.448 5.00267,-3.658669 2.83734,-3.285334 6.86934,-10.080004 0.74667,-1.344001 1.64267,-2.986668 0.97066,-1.642668 1.94133,-3.434669 0.97067,-1.792001 1.86667,-3.584001 0.97066,-1.866668 1.792,-3.584002 z" /><path
     id="path490"
     style="font-style:normal;font-variant:normal;font-weight:normal;font-stretch:normal;font-size:74.6667px;font-family:'Kaushan Script';-inkscape-font-specification:'Kaushan Script, Normal';font-variant-ligatures:normal;font-variant-caps:normal;font-variant-numeric:normal;font-variant-east-asian:normal"
     d="m -617.28828,67.765916 q 0,-2.688001 1.344,-7.46667 1.41867,-4.778669 3.65867,-10.453338 2.24,-5.674669 5.07734,-11.722672 2.83733,-6.048003 5.67467,-11.274672 2.912,-5.22667 5.52533,-9.034671 2.688,-3.808002 4.55467,-5.152003 1.04533,0.07467 2.24,0.896001 1.26933,0.821333 2.31467,2.016001 1.04533,1.12 1.71733,2.389334 0.74667,1.269334 0.74667,2.314668 -3.36,2.688001 -6.86934,6.944003 -3.43466,4.181335 -6.57067,9.258671 -3.136,5.002669 -5.824,10.677339 -2.61333,5.600002 -4.40533,11.050672 2.38933,-4.106669 5.00266,-7.466671 2.61334,-3.360001 5.22667,-5.749336 2.61334,-2.389334 5.07734,-3.658668 2.53867,-1.344001 4.77867,-1.418667 3.28533,2.389334 3.28533,6.346669 0,2.389335 -0.97066,4.853336 -0.97067,2.389334 -2.61334,4.480002 -1.568,2.016001 -3.65867,3.509335 -2.016,1.418667 -4.256,1.866668 0.74667,2.613334 1.86667,5.301335 1.19467,2.688002 2.76267,5.22667 1.64266,2.538667 3.65866,4.704002 2.09067,2.165334 4.70401,3.658668 -0.37334,0.746667 -1.12,1.493334 -0.74667,0.746667 -1.792,1.269334 -1.04534,0.597334 -2.31467,0.896001 -1.19467,0.373333 -2.38934,0.373333 -2.016,0 -3.808,-2.016001 -1.71733,-2.016001 -3.136,-5.824003 -1.12,-3.061334 -2.16533,-7.317336 -1.04534,-4.256002 -1.86667,-8.885338 1.04533,-0.672 2.61333,-1.941334 1.568,-1.344001 3.28534,-3.061335 6.57067,-6.34667 6.57067,-10.976005 0,-0.597334 -0.82134,-0.597334 -1.49333,0.07467 -3.50933,1.418667 -2.016,1.344001 -4.33067,3.733336 -2.24,2.389334 -4.62934,5.600002 -2.31466,3.210668 -4.48,6.944004 -0.896,1.493334 -1.64267,3.434668 -0.74666,1.941334 -1.344,4.032002 -0.52266,2.016001 -0.82133,4.032002 -0.29867,2.016001 -0.29867,3.733335 0,1.045334 0.224,1.717334 -2.31466,-0.224 -2.83733,-1.194667 -0.59733,-0.896001 -1.04533,-1.493334 -0.37334,-0.522667 -0.82134,-0.896001 -0.672,-0.522667 -1.12,-2.240001 -0.448,-1.717334 -0.448,-4.330669 z" /><path
     id="path492"
     style="font-style:normal;font-variant:normal;font-weight:normal;font-stretch:normal;font-size:74.6667px;font-family:'Kaushan Script';-inkscape-font-specification:'Kaushan Script, Normal';font-variant-ligatures:normal;font-variant-caps:normal;font-variant-numeric:normal;font-variant-east-asian:normal"
     d="m -563.97276,39.915237 q 1.49334,0 3.43467,0.896 1.94134,0.896 3.43467,2.314668 -0.37333,-2.986668 -0.97067,-5.600003 -0.52266,-2.688001 -1.64266,-5.525336 -1.04534,-2.837335 -2.83734,-6.197336 -1.792,-3.360002 -4.48,-7.690671 0.224,-0.672 0.97067,-1.568 0.82133,-0.896001 1.792,-1.642668 1.04533,-0.821333 2.09066,-1.418667 1.12001,-0.597334 2.09067,-0.746667 2.09067,2.314668 3.95734,5.824003 1.86667,3.434668 3.28533,7.46667 1.41867,3.957335 2.16534,8.213337 0.82133,4.256002 0.82133,8.138671 0,3.882668 -0.896,7.989337 -0.82133,4.106668 -2.38933,8.064004 -1.49334,3.882668 -3.50934,7.392003 -2.016,3.509335 -4.40533,6.272003 -2.31467,2.762668 -4.85334,4.480002 -2.53867,1.792001 -5.07734,2.240001 -5.152,-0.597333 -7.91467,-3.360001 -2.688,-2.688001 -2.688,-7.46667 0,-2.538668 0.74667,-5.525336 0.82133,-2.986668 2.09067,-5.89867 1.344,-2.986668 3.06133,-5.749336 1.792,-2.837335 3.73334,-5.077336 2.016,-2.240001 4.032,-3.808001 2.016,-1.568001 3.95733,-2.016001 z m -7.616,35.914683 q 2.61333,-0.896 5.22667,-3.957335 2.61333,-3.061335 4.704,-7.168003 2.09067,-4.181336 3.36,-8.885338 1.344,-4.778669 1.344,-9.184004 0,-1.269334 0,-1.568001 0,-0.298667 -0.0747,-0.597334 -1.792,0.746667 -3.808,2.538668 -2.01601,1.792001 -4.03201,4.181336 -2.016,2.314667 -3.808,5.077335 -1.792,2.762668 -3.21067,5.525336 -1.41866,2.762668 -2.24,5.301336 -0.82133,2.538668 -0.82133,4.480002 0,3.733335 3.36,4.256002 z" /><path
     id="path494"
     style="font-style:normal;font-variant:normal;font-weight:normal;font-stretch:normal;font-size:74.6667px;font-family:'Kaushan Script';-inkscape-font-specification:'Kaushan Script, Normal';font-variant-ligatures:normal;font-variant-caps:normal;font-variant-numeric:normal;font-variant-east-asian:normal"
     d="m -522.11507,44.619239 q 0.74667,0 1.71733,0.298667 1.04534,0.224 1.86667,0.672 0.82134,0.373333 1.344,0.821334 0.59734,0.448 0.59734,0.821333 -1.49334,3.136002 -2.76267,6.34667 -1.26934,3.136002 -2.16534,6.048003 -0.896,2.912001 -1.41866,5.450669 -0.448,2.538668 -0.448,4.405336 0,2.090667 0.448,3.509335 0.448,1.344 1.49333,1.941334 -0.896,0.597334 -2.31467,0.970667 -1.41866,0.373334 -2.53866,0.373334 -4.03201,0 -4.03201,-5.525336 0,-4.256002 2.83734,-11.648006 -1.49334,3.434668 -3.43467,6.496003 -1.94133,2.986668 -3.95734,5.301336 -2.016,2.314668 -4.10666,3.808002 -2.01601,1.418667 -3.73334,1.717334 -2.76267,-0.149333 -4.48,-2.613335 -1.71734,-2.538667 -1.71734,-6.421336 0,-4.181335 1.79201,-8.810671 1.792,-4.629335 4.55466,-8.586671 2.83734,-3.957335 6.12267,-6.570669 3.28534,-2.688002 6.34667,-2.837335 0.74667,0.224 1.64267,0.896 0.97067,0.672001 1.792,1.568001 0.896,0.896 1.49334,1.866668 0.59733,0.896 0.672,1.568 -2.98667,0.448001 -6.19734,2.912002 -3.136,2.464001 -5.74934,5.973336 -2.53866,3.434668 -4.18133,7.392003 -1.64267,3.957336 -1.64267,7.392004 0,1.418667 1.04533,1.792001 2.16534,-0.448 5.00267,-3.658669 2.83734,-3.285334 6.86934,-10.080004 0.74667,-1.344001 1.64267,-2.986668 0.97066,-1.642668 1.94133,-3.434669 0.97067,-1.792001 1.86667,-3.584001 0.97067,-1.866668 1.792,-3.584002 z" /><path
     id="path496"
     style="font-style:normal;font-variant:normal;font-weight:normal;font-stretch:normal;font-size:74.6667px;font-family:'Kaushan Script';-inkscape-font-specification:'Kaushan Script, Normal';font-variant-ligatures:normal;font-variant-caps:normal;font-variant-numeric:normal;font-variant-east-asian:normal"
     d="m -512.57989,67.765916 q 0,-2.688001 1.344,-7.46667 1.41867,-4.778669 3.65867,-10.453338 2.24,-5.674669 5.07734,-11.722672 2.83733,-6.048003 5.67466,-11.274672 2.91201,-5.22667 5.52534,-9.034671 2.688,-3.808002 4.55467,-5.152003 1.04533,0.07467 2.24,0.896001 1.26933,0.821333 2.31467,2.016001 1.04533,1.12 1.71733,2.389334 0.74667,1.269334 0.74667,2.314668 -3.36,2.688001 -6.86934,6.944003 -3.43467,4.181335 -6.57067,9.258671 -3.136,5.002669 -5.824,10.677339 -2.61333,5.600002 -4.40534,11.050672 2.38934,-4.106669 5.00267,-7.466671 2.61334,-3.360001 5.22667,-5.749336 2.61334,-2.389334 5.07734,-3.658668 2.53867,-1.344001 4.77867,-1.418667 3.28533,2.389334 3.28533,6.346669 0,2.389335 -0.97066,4.853336 -0.97067,2.389334 -2.61334,4.480002 -1.568,2.016001 -3.65867,3.509335 -2.016,1.418667 -4.256,1.866668 0.74667,2.613334 1.86667,5.301335 1.19467,2.688002 2.76267,5.22667 1.64266,2.538667 3.65866,4.704002 2.09067,2.165334 4.70401,3.658668 -0.37334,0.746667 -1.12,1.493334 -0.74667,0.746667 -1.792,1.269334 -1.04534,0.597334 -2.31467,0.896001 -1.19467,0.373333 -2.38934,0.373333 -2.016,0 -3.808,-2.016001 -1.71733,-2.016001 -3.136,-5.824003 -1.12,-3.061334 -2.16533,-7.317336 -1.04534,-4.256002 -1.86667,-8.885338 1.04533,-0.672 2.61333,-1.941334 1.568,-1.344001 3.28534,-3.061335 6.57067,-6.34667 6.57067,-10.976005 0,-0.597334 -0.82134,-0.597334 -1.49333,0.07467 -3.50933,1.418667 -2.016,1.344001 -4.33067,3.733336 -2.24,2.389334 -4.62934,5.600002 -2.31466,3.210668 -4.48,6.944004 -0.896,1.493334 -1.64267,3.434668 -0.74666,1.941334 -1.344,4.032002 -0.52266,2.016001 -0.82133,4.032002 -0.29867,2.016001 -0.29867,3.733335 0,1.045334 0.224,1.717334 -2.31466,-0.224 -2.83733,-1.194667 -0.59734,-0.896001 -1.04534,-1.493334 -0.37333,-0.522667 -0.82133,-0.896001 -0.672,-0.522667 -1.12,-2.240001 -0.448,-1.717334 -0.448,-4.330669 z" /><path
     id="path498"
     style="font-style:normal;font-variant:normal;font-weight:normal;font-stretch:normal;font-size:74.6667px;font-family:'Kaushan Script';-inkscape-font-specification:'Kaushan Script, Normal';font-variant-ligatures:normal;font-variant-caps:normal;font-variant-numeric:normal;font-variant-east-asian:normal"
     d="m -475.39236,67.765916 q 0,-2.688001 1.344,-7.46667 1.41867,-4.778669 3.65867,-10.453338 2.24,-5.674669 5.07734,-11.722672 2.83733,-6.048003 5.67466,-11.274672 2.91201,-5.22667 5.52534,-9.034671 2.688,-3.808002 4.55467,-5.152003 1.04533,0.07467 2.24,0.896001 1.26933,0.821333 2.31467,2.016001 1.04533,1.12 1.71733,2.389334 0.74667,1.269334 0.74667,2.314668 -3.36,2.688001 -6.86934,6.944003 -3.43467,4.181335 -6.57067,9.258671 -3.136,5.002669 -5.824,10.677339 -2.61333,5.600002 -4.40533,11.050672 2.38933,-4.106669 5.00266,-7.466671 2.61334,-3.360001 5.22667,-5.749336 2.61334,-2.389334 5.07734,-3.658668 2.53867,-1.344001 4.77867,-1.418667 3.28533,2.389334 3.28533,6.346669 0,2.389335 -0.97066,4.853336 -0.97067,2.389334 -2.61334,4.480002 -1.568,2.016001 -3.65867,3.509335 -2.016,1.418667 -4.256,1.866668 0.74667,2.613334 1.86667,5.301335 1.19467,2.688002 2.76267,5.22667 1.64266,2.538667 3.65866,4.704002 2.09067,2.165334 4.70401,3.658668 -0.37334,0.746667 -1.12,1.493334 -0.74667,0.746667 -1.792,1.269334 -1.04534,0.597334 -2.31467,0.896001 -1.19467,0.373333 -2.38934,0.373333 -2.016,0 -3.808,-2.016001 -1.71733,-2.016001 -3.136,-5.824003 -1.12,-3.061334 -2.16533,-7.317336 -1.04534,-4.256002 -1.86667,-8.885338 1.04533,-0.672 2.61333,-1.941334 1.568,-1.344001 3.28534,-3.061335 6.57067,-6.34667 6.57067,-10.976005 0,-0.597334 -0.82134,-0.597334 -1.49333,0.07467 -3.50933,1.418667 -2.016,1.344001 -4.33067,3.733336 -2.24,2.389334 -4.62934,5.600002 -2.31466,3.210668 -4.48,6.944004 -0.896,1.493334 -1.64267,3.434668 -0.74666,1.941334 -1.344,4.032002 -0.52266,2.016001 -0.82133,4.032002 -0.29867,2.016001 -0.29867,3.733335 0,1.045334 0.224,1.717334 -2.31466,-0.224 -2.83733,-1.194667 -0.59733,-0.896001 -1.04533,-1.493334 -0.37334,-0.522667 -0.82134,-0.896001 -0.672,-0.522667 -1.12,-2.240001 -0.448,-1.717334 -0.448,-4.330669 z" /><path
     id="path500"
     style="font-style:normal;font-variant:normal;font-weight:normal;font-stretch:normal;font-size:74.6667px;font-family:'Kaushan Script';-inkscape-font-specification:'Kaushan Script, Normal';font-variant-ligatures:normal;font-variant-caps:normal;font-variant-numeric:normal;font-variant-east-asian:normal"
     d="m -438.42537,69.781917 q 0,-0.672 0.0747,-1.642667 0.14933,-1.045334 0.448,-2.688001 0.29866,-1.717334 0.74666,-4.106669 0.52267,-2.389334 1.26934,-5.749336 0.14933,-0.746667 0.672,-2.389334 0.52267,-1.642668 1.344,-3.434669 0.896,-1.866667 2.09067,-3.584001 1.26933,-1.717335 2.98667,-2.538668 1.26933,0.298666 3.36,1.568 2.09066,1.194668 3.584,3.360002 -1.71734,1.941334 -2.912,3.882669 -1.12,1.941334 -2.09067,4.032001 -0.896,2.090668 -1.71733,4.330669 -0.74667,2.240001 -1.71734,4.704002 -0.82133,2.090668 -1.49333,4.330669 -0.672,2.165335 -0.74667,3.808002 0,1.344001 -0.0747,1.866668 0,0.597333 -0.37333,0.597333 -0.29867,0 -1.19467,-0.373333 -0.896,-0.373334 -1.86667,-1.120001 -0.896,-0.821334 -1.64266,-2.016001 -0.74667,-1.194667 -0.74667,-2.837335 z m 14.26134,-32.405348 q 0,-0.448001 0.224,-1.344001 -0.37333,-0.373333 -0.672,-1.120001 -0.224,-0.746667 -0.224,-1.344 0,-0.672 0.14933,-1.792001 0.224,-1.194667 0.52267,-2.538668 0.29867,-1.344001 0.74667,-2.762668 0.448,-1.493334 0.896,-2.688001 0.896,0 2.16533,0.522667 1.344,0.448 2.688,1.269334 1.344,0.746667 2.464,1.717334 1.12001,0.896 1.71734,1.717334 -0.82133,0.821334 -2.16534,2.314668 -1.344,1.418667 -2.61333,3.061335 -1.26933,1.568 -2.31467,2.986668 -1.04533,1.418667 -1.344,2.016001 -0.896,-0.149334 -1.568,-0.746667 -0.672,-0.672001 -0.672,-1.269334 z" /><path
     id="path502"
     style="font-style:normal;font-variant:normal;font-weight:normal;font-stretch:normal;font-size:74.6667px;font-family:'Kaushan Script';-inkscape-font-specification:'Kaushan Script, Normal';font-variant-ligatures:normal;font-variant-caps:normal;font-variant-numeric:normal;font-variant-east-asian:normal"
     d="m -394.12351,43.872572 q -0.29867,4.629335 -1.64267,7.989337 -1.344,3.285335 -3.88267,5.824003 -2.464,2.464001 -6.048,4.480002 -3.584,2.016001 -8.36267,3.882668 0,0.448001 -0.0747,0.970667 0,0.448001 0,0.970668 0,0.970667 0.14933,2.016001 0.14934,1.045333 0.52267,1.941334 0.37333,0.896 1.04533,1.493334 0.67201,0.522667 1.71734,0.522667 2.016,0 3.95733,-0.896001 1.94134,-0.896 3.65867,-2.165334 1.792,-1.344001 3.28534,-2.837335 1.568,-1.568 2.76267,-2.837334 0.74666,0.672 1.26933,1.269334 -3.36,4.480002 -7.392,7.46667 -3.95734,2.912001 -7.54134,3.733335 -5.152,-0.597334 -8.06401,-3.733335 -2.83733,-3.210668 -2.83733,-7.690671 0,-3.061334 0.82133,-6.197336 0.896,-3.210668 2.38934,-6.122669 1.568,-2.986669 3.584,-5.600003 2.09067,-2.613335 4.40534,-4.554669 2.38933,-1.941334 4.85333,-3.061335 2.53867,-1.12 5.00267,-1.12 3.43467,0.448 6.42134,4.256002 z m -5.15201,2.464001 q -2.016,0.298667 -4.18133,1.642667 -2.16534,1.344001 -4.10667,3.584002 -1.86667,2.240001 -3.43467,5.226669 -1.568,2.986668 -2.464,6.421337 5.97334,-2.986668 9.93067,-7.317337 3.95734,-4.405336 4.256,-9.557338 z" /><path
     id="path504"
     style="font-style:normal;font-variant:normal;font-weight:normal;font-stretch:normal;font-size:74.6667px;font-family:'Kaushan Script';-inkscape-font-specification:'Kaushan Script, Normal';font-variant-ligatures:normal;font-variant-caps:normal;font-variant-numeric:normal;font-variant-east-asian:normal"
     d="m -694.04448,144.37395 q 1.94133,0 3.06133,1.344 1.12,1.344 1.12,3.73333 0,0.59734 -0.0747,1.26934 -0.0747,0.59733 -0.224,1.04533 -1.568,-0.37333 -3.43467,-0.448 -0.448,3.28534 -2.38934,6.94401 -1.94133,3.584 -4.704,6.79467 -2.76267,3.136 -6.048,5.52533 -3.28534,2.38934 -6.496,3.21067 -10.00534,-0.224 -14.63468,-5.22667 -4.55467,-4.928 -4.55467,-15.45601 0,-7.69067 2.83734,-14.85867 2.83733,-7.24267 7.54133,-12.84267 4.70401,-5.60001 10.75201,-8.96001 6.12267,-3.43467 12.69334,-3.43467 5.152,0 7.98934,2.16534 2.912,2.16533 2.912,6.12267 0,2.61333 -1.26934,4.85333 -1.19466,2.24 -4.032,4.85334 -1.71733,-0.52267 -2.98667,-1.792 -1.26933,-1.344 -1.568,-3.06134 2.53867,-1.86666 3.584,-3.43466 1.04534,-1.56801 1.04534,-3.73334 0,-3.43467 -4.10667,-3.43467 -3.36,0 -7.24267,2.53867 -3.808,2.464 -7.69067,7.168 -5.52534,6.64534 -8.064,13.73868 -2.53867,7.01867 -2.53867,15.82934 0,3.28533 0.672,5.97333 0.672,2.688 1.792,4.70401 1.12,2.016 2.61333,3.21066 1.568,1.19467 3.36001,1.344 2.38933,-0.52266 4.77866,-2.38933 2.38934,-1.94133 4.33067,-4.48 2.016,-2.61334 3.36,-5.52534 1.41867,-2.98667 1.71734,-5.67467 -2.09067,0.448 -4.032,0.896 -1.86667,0.37334 -3.584,0.37334 -2.24001,0 -3.95734,-1.12 -1.64267,-1.12 -2.24,-3.06134 1.344,-0.74667 3.88267,-1.568 2.61333,-0.82133 5.52533,-1.49333 2.912,-0.74667 5.67467,-1.19467 2.83734,-0.448 4.62934,-0.448 z" /><path
     id="path506"
     style="font-style:normal;font-variant:normal;font-weight:normal;font-stretch:normal;font-size:74.6667px;font-family:'Kaushan Script';-inkscape-font-specification:'Kaushan Script, Normal';font-variant-ligatures:normal;font-variant-caps:normal;font-variant-numeric:normal;font-variant-east-asian:normal"
     d="m -666.83664,166.47529 q -1.41866,-1.19466 -1.94133,-2.98667 -0.448,-1.792 -0.448,-3.06133 0,-1.568 0.37333,-2.688 -0.29866,0 -1.344,1.19467 -1.04533,1.19466 -2.31467,2.83733 -1.19466,1.64267 -2.38933,3.21067 -1.19467,1.568 -1.792,2.31467 -0.97067,1.04533 -1.86667,1.64266 -0.82133,0.59734 -1.344,0.672 -1.19467,-0.0747 -2.53867,-0.52266 -1.26933,-0.37334 -2.464,-1.12 -1.12,-0.74667 -2.016,-1.792 -0.82133,-1.04534 -1.12,-2.38934 0,-2.09067 0.0747,-3.43467 0.14933,-1.344 0.52266,-2.912 0.672,-2.83733 1.94134,-6.42133 1.344,-3.58401 3.06133,-7.01867 1.71734,-3.50934 3.80801,-6.49601 2.16533,-3.06133 4.55466,-4.77867 0.672,0 1.568,0.14934 0.89601,0.0747 1.79201,0.37333 0.97066,0.29867 1.792,0.74667 0.896,0.37333 1.49333,1.04533 -0.672,0.74667 -3.43467,5.00267 -2.688,4.256 -6.048,12.24534 -0.37333,0.82133 -0.896,2.38933 -0.52267,1.568 -1.04533,3.28534 -0.52267,1.71733 -0.89601,3.36 -0.29866,1.64267 -0.29866,2.61334 0,0.59733 0.14933,0.896 0.224,0.29866 0.37333,0.448 1.12001,-0.448 2.83734,-2.46401 1.71733,-2.016 4.77867,-6.19733 0.74667,-1.04534 1.71733,-2.38934 1.04534,-1.344 2.09067,-2.83733 1.04533,-1.568 1.94133,-3.21067 0.97067,-1.64267 1.56801,-3.28533 0.29866,-0.896 0.74666,-2.09067 0.52267,-1.26934 1.19467,-2.61334 0.74667,-1.344 1.64267,-2.688 0.97066,-1.41866 2.24,-2.61333 0.97067,0 2.09067,0.224 1.12,0.224 2.09066,0.59733 1.04534,0.29867 1.792,0.74667 0.74667,0.37333 1.12,0.82133 -1.344,3.28534 -2.98666,6.49601 -1.64267,3.21066 -3.06134,6.34667 -1.41867,3.06133 -2.38933,6.12266 -0.97067,3.06134 -0.97067,5.97334 0,1.568 0.224,2.76267 0.29867,1.12 0.59733,1.94133 0.29867,0.74667 0.52267,1.26934 0.29867,0.52266 0.29867,0.896 0,0.0747 -0.14934,0.224 -0.0747,0.0747 -0.14933,0.0747 -0.52267,0 -1.344,-0.224 -0.82133,-0.224 -1.86667,-0.672 -0.97066,-0.37333 -2.016,-0.896 -0.97067,-0.52266 -1.86667,-1.12 z" /><path
     id="path508"
     style="font-style:normal;font-variant:normal;font-weight:normal;font-stretch:normal;font-size:74.6667px;font-family:'Kaushan Script';-inkscape-font-specification:'Kaushan Script, Normal';font-variant-ligatures:normal;font-variant-caps:normal;font-variant-numeric:normal;font-variant-east-asian:normal"
     d="m -623.95695,137.20595 q -0.29867,4.62933 -1.64267,7.98933 -1.344,3.28534 -3.88266,5.82401 -2.46401,2.464 -6.04801,4.48 -3.584,2.016 -8.36267,3.88267 0,0.448 -0.0747,0.97066 0,0.448 0,0.97067 0,0.97067 0.14933,2.016 0.14933,1.04534 0.52267,1.94134 0.37333,0.896 1.04533,1.49333 0.672,0.52267 1.71733,0.52267 2.016,0 3.95734,-0.896 1.94133,-0.896 3.65867,-2.16534 1.792,-1.344 3.28533,-2.83733 1.568,-1.568 2.76267,-2.83734 0.74667,0.672 1.26933,1.26934 -3.36,4.48 -7.392,7.46667 -3.95733,2.912 -7.54134,3.73333 -5.152,-0.59733 -8.064,-3.73333 -2.83733,-3.21067 -2.83733,-7.69067 0,-3.06134 0.82133,-6.19734 0.896,-3.21067 2.38933,-6.12267 1.568,-2.98667 3.58401,-5.6 2.09066,-2.61334 4.40533,-4.55467 2.38934,-1.94134 4.85334,-3.06134 2.53866,-1.12 5.00267,-1.12 3.43466,0.448 6.42133,4.25601 z m -5.152,2.464 q -2.016,0.29866 -4.18134,1.64266 -2.16533,1.34401 -4.10666,3.58401 -1.86667,2.24 -3.43467,5.22667 -1.568,2.98666 -2.464,6.42133 5.97333,-2.98667 9.93067,-7.31734 3.95733,-4.40533 4.256,-9.55733 z" /><path
     id="path510"
     style="font-style:normal;font-variant:normal;font-weight:normal;font-stretch:normal;font-size:74.6667px;font-family:'Kaushan Script';-inkscape-font-specification:'Kaushan Script, Normal';font-variant-ligatures:normal;font-variant-caps:normal;font-variant-numeric:normal;font-variant-east-asian:normal"
     d="m -594.7401,138.40061 q -0.0747,1.41867 -0.52267,2.98667 -0.37333,1.49334 -0.97066,2.76267 -0.59734,1.19467 -1.26934,2.016 -0.672,0.82133 -1.26933,0.82133 -0.82134,-0.0747 -0.97067,-1.12 0,-0.224 0.14933,-0.672 0.224,-0.52266 0.448,-1.12 0.224,-0.59733 0.37334,-1.19466 0.224,-0.59734 0.224,-1.04534 0,-1.04533 -0.52267,-1.71733 -0.448,-0.74667 -1.26933,-0.74667 -2.98667,0 -4.55467,3.73334 -1.568,3.73333 -1.568,10.976 0,0.74667 0.0747,0.896 1.56801,-0.0747 2.76267,-0.0747 1.26934,-0.0747 2.464,-0.0747 0.0747,0.14933 0.0747,0.59733 0,0.672 -0.29867,0.97067 -1.71733,0.37333 -2.76266,0.672 -0.97067,0.224 -1.49334,0.448 -0.52267,0.224 -0.672,0.52267 -0.0747,0.224 -0.0747,0.672 0,0.59733 0,1.19466 0.0747,0.59734 0.0747,1.49334 0,6.272 -3.43467,10.08 -3.36,3.808 -9.408,4.40534 -1.04534,-0.0747 -2.16534,-0.59734 -1.12,-0.52266 -2.16533,-1.344 -0.97067,-0.82133 -1.71733,-1.86666 -0.74667,-0.97067 -1.04534,-2.01601 0,-2.83733 1.19467,-5.376 1.19467,-2.61333 3.21067,-4.55467 2.09066,-2.016 4.85333,-3.21066 2.83734,-1.26934 6.12267,-1.49334 0,-1.86667 -0.37333,-3.65867 -0.37333,-1.792 -0.82134,-3.43467 -0.37333,-1.71733 -0.74666,-3.28533 -0.37334,-1.64267 -0.37334,-3.21067 0,-2.016 0.82134,-3.95733 0.82133,-2.016 2.16533,-3.65867 1.344,-1.71734 3.136,-2.912 1.792,-1.19467 3.73334,-1.64267 0.82133,0.224 2.16533,1.344 1.41867,1.04533 2.76267,2.38933 1.344,1.344 2.38934,2.76267 1.04533,1.344 1.26933,2.24 z m -24.64001,34.04802 q 1.792,-0.74667 3.36,-2.16534 1.64267,-1.41866 2.83733,-3.21066 1.19467,-1.792 1.86667,-3.80801 0.74667,-2.016 0.74667,-3.95733 -1.49334,0.224 -3.28534,1.41867 -1.792,1.12 -3.36,2.76266 -1.568,1.56801 -2.61333,3.28534 -1.04534,1.71733 -1.04534,2.98667 0,1.64267 1.49334,2.688 z" /><path
     id="path512"
     style="font-style:normal;font-variant:normal;font-weight:normal;font-stretch:normal;font-size:74.6667px;font-family:'Kaushan Script';-inkscape-font-specification:'Kaushan Script, Normal';font-variant-ligatures:normal;font-variant-caps:normal;font-variant-numeric:normal;font-variant-east-asian:normal"
     d="m -590.28226,139.52061 q -0.37334,-0.448 -0.672,-1.86666 -0.29867,-1.49334 -0.29867,-2.53867 1.94134,0.14933 3.73334,0.29866 1.792,0.0747 3.28533,0.14934 1.12,-2.24 2.38934,-4.40534 1.344,-2.24 2.53866,-4.032 1.26934,-1.86667 2.31467,-3.136 1.12,-1.26933 1.71734,-1.64267 0.74666,0 1.86666,0.29867 1.19467,0.224 2.38934,0.672 1.19466,0.37333 2.16533,0.82133 0.97067,0.448 1.344,0.896 -2.24,2.83734 -3.88267,5.30134 -1.568,2.38933 -3.43466,5.52534 1.49333,0 2.98666,-0.0747 1.568,-0.0747 3.13601,-0.224 0.37333,0.37333 0.59733,0.97067 0.224,0.52266 0.224,1.12 -3.65867,1.344 -8.88534,1.49333 -1.86667,3.584 -3.36,7.168 -1.41867,3.50934 -2.464,6.79467 -0.97067,3.28534 -1.568,6.19734 -0.52267,2.912 -0.52267,5.22667 0,3.28533 2.464,3.65867 2.24,-0.29867 4.256,-1.12 2.01601,-0.82134 3.58401,-2.09067 0.448,0.672 0.52266,1.12 -0.448,0.672 -1.568,1.568 -1.04533,0.896 -2.31467,1.71733 -1.26933,0.896 -2.464,1.49334 -1.19466,0.59733 -1.792,0.672 -1.86667,-0.0747 -3.73333,-0.82133 -1.86667,-0.74667 -3.43467,-1.86667 -1.49334,-1.12 -2.464,-2.464 -0.97067,-1.41867 -0.97067,-2.76267 0,-1.792 0.448,-4.48 0.52267,-2.76267 1.41867,-5.97334 0.896,-3.21067 2.09067,-6.72 1.19466,-3.50934 2.61333,-6.94401 z" /><path
     id="path514"
     style="font-style:normal;font-variant:normal;font-weight:normal;font-stretch:normal;font-size:74.6667px;font-family:'Kaushan Script';-inkscape-font-specification:'Kaushan Script, Normal';font-variant-ligatures:normal;font-variant-caps:normal;font-variant-numeric:normal;font-variant-east-asian:normal"
     d="m -547.28591,153.48329 q 0,-5.22667 1.19467,-10.22934 1.26933,-5.07734 3.50933,-9.55734 2.24,-4.55467 5.30134,-8.288 3.136,-3.808 6.79467,-6.57067 3.73333,-2.76267 7.91467,-4.256 4.18134,-1.56801 8.58667,-1.56801 5.152,0 7.98934,2.16534 2.912,2.16533 2.912,6.048 0,1.49334 -0.448,3.06134 -0.37333,1.568 -1.19467,3.136 -0.74667,1.49333 -1.792,2.912 -1.04533,1.41867 -2.31467,2.464 -1.94133,-0.29867 -3.36,-1.71733 -1.41867,-1.49334 -1.792,-3.43467 2.61334,-2.16534 4.10667,-4.48 1.568,-2.38934 1.568,-4.33067 0,-3.28534 -4.10667,-3.28534 -1.71733,0 -3.584,0.74667 -1.792,0.672 -3.65867,1.94133 -1.86667,1.26934 -3.65867,3.06134 -1.71733,1.792 -3.21067,3.95733 -10.37867,14.93334 -10.37867,30.53868 0,5.52534 1.71734,8.88534 1.71733,3.36 4.55467,3.95734 3.21066,-0.74667 8.13867,-4.10667 4.928,-3.36 10.752,-8.73601 0.74667,0.74667 0.896,1.56801 -2.16533,2.83733 -4.48,5.45066 -2.31467,2.61334 -4.62934,4.77867 -2.24,2.16534 -4.48,3.80801 -2.16533,1.64266 -4.032,2.53866 -9.25867,-0.14933 -14.03734,-5.30133 -4.77867,-5.15201 -4.77867,-15.15734 z" /><path
     id="path516"
     style="font-style:normal;font-variant:normal;font-weight:normal;font-stretch:normal;font-size:74.6667px;font-family:'Kaushan Script';-inkscape-font-specification:'Kaushan Script, Normal';font-variant-ligatures:normal;font-variant-caps:normal;font-variant-numeric:normal;font-variant-east-asian:normal"
     d="m -497.21022,170.7313 q -4.25601,-0.44801 -6.79467,-3.73334 -2.53867,-3.28533 -2.53867,-8.36267 0,-2.98667 0.896,-6.19734 0.896,-3.21067 2.53867,-6.19733 1.64266,-3.06134 3.88266,-5.74934 2.24001,-2.688 4.85334,-4.62933 4.10667,-3.06134 7.69067,-3.06134 2.38934,1.26933 4.704,5.30134 0.37334,0 0.672,0 0.29867,-0.0747 0.672,-0.0747 3.95734,0 3.95734,7.01867 0,4.704 -1.568,8.96 -1.49334,4.18134 -4.256,7.61601 -2.68801,3.43467 -6.49601,5.824 -3.73333,2.31467 -8.21333,3.28534 z m 3.808,-23.52002 q -1.26934,1.71734 -2.38934,3.73334 -1.12,2.016 -1.94133,4.10667 -0.82133,2.016 -1.26933,3.95733 -0.44801,1.86667 -0.44801,3.36 0,1.79201 0.59734,3.43467 0.59733,1.64267 1.344,1.86667 3.36,-0.74667 6.12267,-2.76267 2.83733,-2.09067 4.85333,-5.152 2.09067,-3.06133 3.21067,-6.944 1.19467,-3.88267 1.19467,-8.28801 0,-1.94133 -0.224,-3.06133 -0.224,-1.12 -0.74667,-1.94134 -3.28533,0.97067 -5.89867,3.13601 -2.53866,2.16533 -4.40533,4.55466 z" /><path
     id="path518"
     style="font-style:normal;font-variant:normal;font-weight:normal;font-stretch:normal;font-size:74.6667px;font-family:'Kaushan Script';-inkscape-font-specification:'Kaushan Script, Normal';font-variant-ligatures:normal;font-variant-caps:normal;font-variant-numeric:normal;font-variant-east-asian:normal"
     d="m -469.38636,139.52061 q -0.37333,-0.448 -0.672,-1.86666 -0.29866,-1.49334 -0.29866,-2.53867 1.94133,0.14933 3.73333,0.29866 1.792,0.0747 3.28534,0.14934 1.12,-2.24 2.38933,-4.40534 1.344,-2.24 2.53867,-4.032 1.26933,-1.86667 2.31467,-3.136 1.12,-1.26933 1.71733,-1.64267 0.74667,0 1.86667,0.29867 1.19466,0.224 2.38933,0.672 1.19467,0.37333 2.16534,0.82133 0.97066,0.448 1.344,0.896 -2.24,2.83734 -3.88267,5.30134 -1.568,2.38933 -3.43467,5.52534 1.49333,0 2.98667,-0.0747 1.568,-0.0747 3.136,-0.224 0.37333,0.37333 0.59733,0.97067 0.224,0.52266 0.224,1.12 -3.65866,1.344 -8.88533,1.49333 -1.86667,3.584 -3.36001,7.168 -1.41866,3.50934 -2.464,6.79467 -0.97066,3.28534 -1.568,6.19734 -0.52266,2.912 -0.52266,5.22667 0,3.28533 2.464,3.65867 2.24,-0.29867 4.256,-1.12 2.016,-0.82134 3.584,-2.09067 0.448,0.672 0.52267,1.12 -0.448,0.672 -1.568,1.568 -1.04534,0.896 -2.31467,1.71733 -1.26934,0.896 -2.464,1.49334 -1.19467,0.59733 -1.792,0.672 -1.86667,-0.0747 -3.73334,-0.82133 -1.86667,-0.74667 -3.43467,-1.86667 -1.49333,-1.12 -2.464,-2.464 -0.97067,-1.41867 -0.97067,-2.76267 0,-1.792 0.44801,-4.48 0.52266,-2.76267 1.41866,-5.97334 0.896,-3.21067 2.09067,-6.72 1.19467,-3.50934 2.61333,-6.94401 z" /><path
     id="path520"
     style="font-style:normal;font-variant:normal;font-weight:normal;font-stretch:normal;font-size:74.6667px;font-family:'Kaushan Script';-inkscape-font-specification:'Kaushan Script, Normal';font-variant-ligatures:normal;font-variant-caps:normal;font-variant-numeric:normal;font-variant-east-asian:normal"
     d="m -443.13636,139.52061 q -0.37333,-0.448 -0.672,-1.86666 -0.29866,-1.49334 -0.29866,-2.53867 1.94133,0.14933 3.73333,0.29866 1.792,0.0747 3.28534,0.14934 1.12,-2.24 2.38933,-4.40534 1.344,-2.24 2.53867,-4.032 1.26933,-1.86667 2.31467,-3.136 1.12,-1.26933 1.71733,-1.64267 0.74667,0 1.86667,0.29867 1.19466,0.224 2.38933,0.672 1.19467,0.37333 2.16534,0.82133 0.97066,0.448 1.344,0.896 -2.24,2.83734 -3.88267,5.30134 -1.568,2.38933 -3.43467,5.52534 1.49333,0 2.98667,-0.0747 1.568,-0.0747 3.136,-0.224 0.37333,0.37333 0.59733,0.97067 0.224,0.52266 0.224,1.12 -3.65866,1.344 -8.88533,1.49333 -1.86667,3.584 -3.36001,7.168 -1.41866,3.50934 -2.464,6.79467 -0.97066,3.28534 -1.568,6.19734 -0.52266,2.912 -0.52266,5.22667 0,3.28533 2.464,3.65867 2.24,-0.29867 4.256,-1.12 2.016,-0.82134 3.584,-2.09067 0.448,0.672 0.52267,1.12 -0.448,0.672 -1.568,1.568 -1.04534,0.896 -2.31467,1.71733 -1.26934,0.896 -2.464,1.49334 -1.19467,0.59733 -1.792,0.672 -1.86667,-0.0747 -3.73334,-0.82133 -1.86667,-0.74667 -3.43467,-1.86667 -1.49333,-1.12 -2.464,-2.464 -0.97067,-1.41867 -0.97067,-2.76267 0,-1.792 0.44801,-4.48 0.52266,-2.76267 1.41866,-5.97334 0.896,-3.21067 2.09067,-6.72 1.19467,-3.50934 2.61333,-6.94401 z" /><path
     id="path522"
     style="font-style:normal;font-variant:normal;font-weight:normal;font-stretch:normal;font-size:74.6667px;font-family:'Kaushan Script';-inkscape-font-specification:'Kaushan Script, Normal';font-variant-ligatures:normal;font-variant-caps:normal;font-variant-numeric:normal;font-variant-east-asian:normal"
     d="m -395.53168,137.95261 q 0.74667,0 1.71733,0.29867 1.04534,0.224 1.86667,0.672 0.82134,0.37333 1.344,0.82133 0.59734,0.448 0.59734,0.82134 -1.49334,3.136 -2.76267,6.34667 -1.26934,3.136 -2.16534,6.048 -0.896,2.912 -1.41866,5.45067 -0.448,2.53867 -0.448,4.40533 0,2.09067 0.448,3.50934 0.448,1.344 1.49333,1.94133 -0.896,0.59734 -2.31467,0.97067 -1.41867,0.37333 -2.53867,0.37333 -4.032,0 -4.032,-5.52533 0,-4.256 2.83734,-11.64801 -1.49334,3.43467 -3.43467,6.49601 -1.94134,2.98666 -3.95734,5.30133 -2.016,2.31467 -4.10667,3.808 -2.016,1.41867 -3.73333,1.71734 -2.76267,-0.14934 -4.48,-2.61334 -1.71734,-2.53866 -1.71734,-6.42133 0,-4.18134 1.792,-8.81067 1.79201,-4.62934 4.55467,-8.58667 2.83734,-3.95734 6.12267,-6.57067 3.28534,-2.68801 6.34667,-2.83734 0.74667,0.224 1.64267,0.896 0.97067,0.672 1.792,1.568 0.896,0.896 1.49333,1.86667 0.59734,0.896 0.67201,1.568 -2.98667,0.448 -6.19734,2.912 -3.136,2.464 -5.74934,5.97334 -2.53867,3.43467 -4.18133,7.392 -1.64267,3.95734 -1.64267,7.392 0,1.41867 1.04533,1.79201 2.16534,-0.448 5.00267,-3.65867 2.83734,-3.28534 6.86934,-10.08001 0.74667,-1.344 1.64267,-2.98667 0.97066,-1.64266 1.94133,-3.43466 0.97067,-1.792 1.86667,-3.58401 0.97067,-1.86666 1.792,-3.584 z" /><path
     id="path524"
     style="font-style:normal;font-variant:normal;font-weight:normal;font-stretch:normal;font-size:74.6667px;font-family:'Kaushan Script';-inkscape-font-specification:'Kaushan Script, Normal';font-variant-ligatures:normal;font-variant-caps:normal;font-variant-numeric:normal;font-variant-east-asian:normal"
     d="m -401.66599,190.36864 q 0,-0.448 0.29866,-0.82134 0.29867,-0.37333 0.672,-0.74666 0.89601,0.82133 1.56801,1.26933 0.59733,0.448 1.19466,0.74667 0.52267,0.29866 1.12,0.37333 0.59734,0.0747 1.41867,0.0747 3.88267,0 7.392,-2.09067 3.50934,-2.016 6.57067,-5.89867 3.13601,-3.88267 5.67467,-9.48267 2.53867,-5.6 4.48001,-12.69334 -0.89601,0.896 -2.24001,2.016 -1.26933,1.04534 -2.688,2.016 -1.41866,0.97067 -2.83733,1.792 -1.344,0.82134 -2.31467,1.19467 -1.26933,-0.224 -2.38933,-1.04533 -1.04534,-0.896 -1.86667,-2.16534 -0.82134,-1.26933 -1.26934,-2.83733 -0.448,-1.64267 -0.448,-3.43467 0,-2.912 1.04534,-5.97334 1.12,-3.06133 2.912,-5.97333 1.792,-2.98667 4.18133,-5.60001 2.46401,-2.61333 5.15201,-4.55466 2.76267,-1.94134 5.52533,-3.06134 2.83734,-1.19467 5.52534,-1.19467 2.61333,0 3.88267,1.12 1.344,1.04534 1.94133,3.65867 -0.82133,-0.448 -2.09067,-0.448 -1.792,0 -4.18133,1.41867 -2.31467,1.41867 -4.77867,3.73333 -2.38933,2.24001 -4.77867,5.22667 -2.38933,2.91201 -4.256,5.97334 -1.792,3.06133 -2.98667,5.97334 -1.12,2.912 -1.12,5.22667 0,0.52266 0.0747,0.672 0.0747,0.0747 0.224,0.0747 0.672,0 1.792,-0.74666 1.19467,-0.74667 2.61333,-1.86667 1.49334,-1.19467 3.06134,-2.688 1.568,-1.568 2.98667,-3.13601 3.21066,-3.584 5.824,-7.98933 2.688,-4.48 4.256,-8.66134 2.016,0.14933 3.584,0.672 1.568,0.52267 2.16534,1.12 -2.53867,5.824 -4.10667,9.78134 -1.49334,3.95733 -2.61334,7.01867 -2.016,5.376 -3.808,9.78134 -1.71733,4.48 -3.584,8.21333 -1.792,3.80801 -3.95734,7.01867 -2.09066,3.28534 -4.77866,6.27201 -1.26934,1.41866 -2.91201,2.464 -1.568,1.12 -3.28533,1.86667 -1.64267,0.74666 -3.28534,1.12 -1.568,0.37333 -2.912,0.37333 -1.792,0 -3.65867,-0.448 -1.86666,-0.37333 -3.43466,-1.12 -1.64267,-0.672 -2.83734,-1.64267 -1.19467,-0.896 -1.71733,-1.94133 z" /><path
     id="path526"
     style="font-style:normal;font-variant:normal;font-weight:normal;font-stretch:normal;font-size:74.6667px;font-family:'Kaushan Script';-inkscape-font-specification:'Kaushan Script, Normal';font-variant-ligatures:normal;font-variant-caps:normal;font-variant-numeric:normal;font-variant-east-asian:normal"
     d="m -326.31095,137.20595 q -0.29867,4.62933 -1.64267,7.98933 -1.344,3.28534 -3.88267,5.82401 -2.464,2.464 -6.048,4.48 -3.584,2.016 -8.36267,3.88267 0,0.448 -0.0747,0.97066 0,0.448 0,0.97067 0,0.97067 0.14933,2.016 0.14934,1.04534 0.52267,1.94134 0.37334,0.896 1.04534,1.49333 0.672,0.52267 1.71733,0.52267 2.016,0 3.95734,-0.896 1.94133,-0.896 3.65866,-2.16534 1.792,-1.344 3.28534,-2.83733 1.568,-1.568 2.76267,-2.83734 0.74666,0.672 1.26933,1.26934 -3.36,4.48 -7.392,7.46667 -3.95734,2.912 -7.54134,3.73333 -5.152,-0.59733 -8.064,-3.73333 -2.83734,-3.21067 -2.83734,-7.69067 0,-3.06134 0.82134,-6.19734 0.896,-3.21067 2.38933,-6.12267 1.568,-2.98667 3.584,-5.6 2.09067,-2.61334 4.40534,-4.55467 2.38933,-1.94134 4.85333,-3.06134 2.53867,-1.12 5.00267,-1.12 3.43467,0.448 6.42134,4.25601 z m -5.152,2.464 q -2.01601,0.29866 -4.18134,1.64266 -2.16533,1.34401 -4.10667,3.58401 -1.86667,2.24 -3.43467,5.22667 -1.568,2.98666 -2.464,6.42133 5.97334,-2.98667 9.93067,-7.31734 3.95734,-4.40533 4.25601,-9.55733 z" /><path
     id="path528"
     style="font-style:normal;font-variant:normal;font-weight:normal;font-stretch:normal;font-size:74.6667px;font-family:'Kaushan Script';-inkscape-font-specification:'Kaushan Script, Normal';font-variant-ligatures:normal;font-variant-caps:normal;font-variant-numeric:normal;font-variant-east-asian:normal"
     d="m -297.09412,138.40061 q -0.0747,1.41867 -0.52267,2.98667 -0.37333,1.49334 -0.97066,2.76267 -0.59734,1.19467 -1.26934,2.016 -0.672,0.82133 -1.26933,0.82133 -0.82134,-0.0747 -0.97067,-1.12 0,-0.224 0.14933,-0.672 0.22401,-0.52266 0.44801,-1.12 0.224,-0.59733 0.37333,-1.19466 0.224,-0.59734 0.224,-1.04534 0,-1.04533 -0.52267,-1.71733 -0.448,-0.74667 -1.26933,-0.74667 -2.98667,0 -4.55467,3.73334 -1.568,3.73333 -1.568,10.976 0,0.74667 0.0747,0.896 1.568,-0.0747 2.76266,-0.0747 1.26934,-0.0747 2.464,-0.0747 0.0747,0.14933 0.0747,0.59733 0,0.672 -0.29867,0.97067 -1.71733,0.37333 -2.76266,0.672 -0.97067,0.224 -1.49334,0.448 -0.52266,0.224 -0.672,0.52267 -0.0747,0.224 -0.0747,0.672 0,0.59733 0,1.19466 0.0747,0.59734 0.0747,1.49334 0,6.272 -3.43467,10.08 -3.36,3.808 -9.408,4.40534 -1.04533,-0.0747 -2.16534,-0.59734 -1.12,-0.52266 -2.16533,-1.344 -0.97067,-0.82133 -1.71733,-1.86666 -0.74667,-0.97067 -1.04534,-2.01601 0,-2.83733 1.19467,-5.376 1.19467,-2.61333 3.21067,-4.55467 2.09067,-2.016 4.85333,-3.21066 2.83734,-1.26934 6.12267,-1.49334 0,-1.86667 -0.37333,-3.65867 -0.37333,-1.792 -0.82133,-3.43467 -0.37334,-1.71733 -0.74667,-3.28533 -0.37333,-1.64267 -0.37333,-3.21067 0,-2.016 0.82133,-3.95733 0.82133,-2.016 2.16533,-3.65867 1.344,-1.71734 3.136,-2.912 1.79201,-1.19467 3.73334,-1.64267 0.82133,0.224 2.16533,1.344 1.41867,1.04533 2.76267,2.38933 1.344,1.344 2.38934,2.76267 1.04533,1.344 1.26933,2.24 z m -24.64001,34.04802 q 1.792,-0.74667 3.36,-2.16534 1.64267,-1.41866 2.83734,-3.21066 1.19466,-1.792 1.86666,-3.80801 0.74667,-2.016 0.74667,-3.95733 -1.49333,0.224 -3.28534,1.41867 -1.792,1.12 -3.36,2.76266 -1.568,1.56801 -2.61333,3.28534 -1.04534,1.71733 -1.04534,2.98667 0,1.64267 1.49334,2.688 z" /></g></svg>
