<?xml version="1.0" encoding="UTF-8" standalone="no"?>
<svg
   xmlns:dc="http://purl.org/dc/elements/1.1/"
   xmlns:cc="http://creativecommons.org/ns#"
   xmlns:rdf="http://www.w3.org/1999/02/22-rdf-syntax-ns#"
   xmlns:svg="http://www.w3.org/2000/svg"
   xmlns="http://www.w3.org/2000/svg"
   xmlns:sodipodi="http://sodipodi.sourceforge.net/DTD/sodipodi-0.dtd"
   xmlns:inkscape="http://www.inkscape.org/namespaces/inkscape"
   height="605.09265"
   width="1760.0862"
   version="1.1"
   id="Capa_1"
   x="0px"
   y="0px"
   viewBox="0 0 1760.0862 605.09265"
   xml:space="preserve"
   sodipodi:docname="logo.svg"
   inkscape:version="1.0 (4035a4f, 2020-05-01)"><metadata
   id="metadata353"><rdf:RDF><cc:Work
       rdf:about=""><dc:format>image/svg+xml</dc:format><dc:type
         rdf:resource="http://purl.org/dc/dcmitype/StillImage" /><dc:title /></cc:Work></rdf:RDF></metadata><defs
   id="defs351"><rect
     x="-742.95081"
     y="9.6705894"
     width="654.01123"
     height="424.23373"
     id="rect380" /></defs><sodipodi:namedview
   inkscape:document-rotation="0"
   pagecolor="#ffffff"
   bordercolor="#666666"
   borderopacity="1"
   objecttolerance="10"
   gridtolerance="10"
   guidetolerance="10"
   inkscape:pageopacity="0"
   inkscape:pageshadow="2"
   inkscape:window-width="2560"
   inkscape:window-height="1376"
   id="namedview349"
   showgrid="false"
   inkscape:zoom="0.40706978"
   inkscape:cx="637.71601"
   inkscape:cy="248.00057"
   inkscape:window-x="0"
   inkscape:window-y="27"
   inkscape:window-maximized="1"
   inkscape:current-layer="Capa_1" />
















<g
   transform="translate(-34.003881,21.584057)"
   id="g376"><g
     transform="translate(-80.437871,0.66041137)"
     id="g310">
	<g
   id="g308">
		<path
   id="path306"
   d="m 245.768,112.226 c -4.142,0 -7.5,3.358 -7.5,7.5 0,4.705 -3.828,8.532 -8.532,8.532 -4.704,0 -8.532,-3.827 -8.532,-8.532 0,-3.037 1.637,-5.871 4.271,-7.395 3.585,-2.074 4.811,-6.662 2.737,-10.248 -2.074,-3.585 -6.663,-4.811 -10.248,-2.737 -7.254,4.196 -11.76,12.005 -11.76,20.379 0,12.976 10.557,23.532 23.532,23.532 12.975,0 23.532,-10.556 23.532,-23.532 0,-4.141 -3.358,-7.499 -7.5,-7.499 z" />
	</g>
</g><g
     transform="translate(-80.437871,0.66041137)"
     id="g316">
	<g
   id="g314">
		<path
   id="path312"
   d="m 391.591,77.682 c -3.792,-2.961 -8.647,-3.99 -13.312,-2.823 l -34.547,8.637 c -2.668,-8.45 -6.128,-16.388 -10.311,-23.633 -4.729,-8.191 -10.681,-16.024 -17.689,-23.281 -1.382,-1.431 -3.277,-2.254 -5.267,-2.289 -1.978,-0.033 -3.911,0.724 -5.342,2.107 l -6.256,6.049 C 288.184,32.886 275.663,25.645 262.099,21.191 l 2.104,-8.416 c 0.483,-1.931 0.178,-3.974 -0.846,-5.68 C 262.333,5.389 260.672,4.16 258.741,3.678 248.951,1.238 239.191,0 229.735,0 c -9.456,0 -19.215,1.238 -29.007,3.679 -1.931,0.481 -3.591,1.71 -4.616,3.417 -1.024,1.706 -1.329,3.75 -0.846,5.68 l 2.105,8.419 c -13.558,4.452 -26.076,11.69 -36.764,21.258 l -6.26,-6.053 c -1.431,-1.383 -3.343,-2.142 -5.342,-2.107 -1.99,0.034 -3.884,0.857 -5.267,2.289 -7.01,7.259 -12.961,15.091 -17.689,23.281 -4.729,8.19 -8.537,17.261 -11.317,26.96 -0.548,1.913 -0.314,3.965 0.651,5.705 0.965,1.74 2.583,3.025 4.496,3.573 l 8.353,2.39 c -1.447,6.956 -2.19,14.074 -2.19,21.235 0,7.162 0.743,14.279 2.191,21.235 l -8.353,2.39 c -1.914,0.547 -3.531,1.832 -4.496,3.572 -0.965,1.74 -1.199,3.793 -0.651,5.706 2.781,9.7 6.589,18.77 11.317,26.96 4.728,8.189 10.68,16.022 17.689,23.281 1.382,1.431 3.277,2.255 5.267,2.289 0.043,0 0.085,0.001 0.128,0.001 1.944,0 3.813,-0.755 5.213,-2.108 l 6.258,-6.051 c 10.676,9.553 23.213,16.799 36.767,21.252 l -2.106,8.423 c -0.483,1.931 -0.178,3.974 0.846,5.68 0.959,1.597 2.48,2.768 4.254,3.307 l -6.916,36.885 h -11.812 c -4.142,0 -7.5,3.358 -7.5,7.5 0,4.142 3.358,7.5 7.5,7.5 h 8.999 L 151.366,497 h -25.84 c -4.142,0 -7.5,3.358 -7.5,7.5 0,4.142 3.358,7.5 7.5,7.5 h 208.419 c 4.142,0 7.5,-3.358 7.5,-7.5 0,-4.142 -3.358,-7.5 -7.5,-7.5 h -25.84 L 268.833,287.548 h 8.999 c 4.142,0 7.5,-3.358 7.5,-7.5 0,-4.142 -3.358,-7.5 -7.5,-7.5 H 266.02 l -6.916,-36.885 c 1.774,-0.539 3.295,-1.71 4.254,-3.307 1.024,-1.706 1.329,-3.749 0.846,-5.68 l -2.105,-8.421 c 13.561,-4.454 26.09,-11.693 36.77,-21.251 l 6.255,6.048 c 1.4,1.354 3.27,2.108 5.213,2.108 0.042,0 0.085,0 0.128,-0.001 1.99,-0.034 3.884,-0.857 5.267,-2.289 7.009,-7.258 12.96,-15.091 17.689,-23.281 4.183,-7.246 7.643,-15.183 10.311,-23.633 l 34.547,8.637 c 1.261,0.315 2.535,0.47 3.798,0.47 3.413,0 6.746,-1.132 9.514,-3.293 3.792,-2.961 5.967,-7.419 5.967,-12.23 V 89.912 c 0,-4.811 -2.175,-9.269 -5.967,-12.23 z M 258.449,35.793 c 10.86,3.715 20.917,9.528 29.601,17.115 L 264.097,76.069 C 259.954,72.8 255.339,70.11 250.368,68.116 Z m -28.714,188.659 c -5.886,0 -11.927,-0.556 -18.037,-1.657 l 11.953,-47.812 c 1.999,0.219 4.027,0.339 6.084,0.339 2.057,0 4.084,-0.121 6.084,-0.339 l 11.953,47.812 c -6.11,1.101 -12.151,1.657 -18.037,1.657 z m 21.024,48.096 h -13.524 v -33.357 c 2.367,-0.159 4.747,-0.392 7.138,-0.701 z m -28.523,-33.356 v 33.357 h -13.523 l 6.385,-34.058 c 2.391,0.309 4.771,0.542 7.138,0.701 z m 7.499,-78.87 c -22.385,0 -40.597,-18.211 -40.597,-40.597 0,-22.385 18.211,-40.597 40.597,-40.597 22.386,0 40.597,18.212 40.597,40.597 0,22.386 -18.211,40.597 -40.597,40.597 z m 0,-145.322 c 5.886,0 11.927,0.556 18.037,1.656 l -11.953,47.813 c -1.999,-0.219 -4.027,-0.34 -6.084,-0.34 -2.057,0 -4.084,0.121 -6.084,0.34 L 211.698,16.656 C 217.809,15.556 223.85,15 229.735,15 Z m -28.713,20.795 8.08,32.32 c -4.97,1.994 -9.585,4.685 -13.729,7.953 L 171.414,52.902 c 8.69,-7.591 18.752,-13.393 29.608,-17.107 z M 139.04,67.363 c 2.943,-5.097 6.445,-10.051 10.453,-14.792 l 35.447,34.274 c -2.396,3.256 -4.442,6.783 -6.091,10.523 L 131.456,83.811 c 2.102,-5.841 4.641,-11.351 7.584,-16.448 z m 35.675,60.302 -32.024,9.161 c -1.094,-5.608 -1.649,-11.337 -1.649,-17.1 0,-5.763 0.555,-11.492 1.649,-17.099 l 32.024,9.161 c -0.373,2.595 -0.576,5.243 -0.576,7.938 0,2.696 0.203,5.345 0.576,7.939 z m -25.222,59.215 c -4.008,-4.74 -7.51,-9.694 -10.453,-14.791 -2.943,-5.098 -5.482,-10.607 -7.584,-16.448 l 47.393,-13.558 c 1.65,3.741 3.695,7.268 6.091,10.523 z m 21.926,-0.335 23.955,-23.162 c 4.143,3.268 8.758,5.958 13.729,7.953 l -8.083,32.332 c -10.854,-3.715 -20.92,-9.542 -29.601,-17.123 z M 222.235,497 H 166.627 L 186.36,391.758 h 35.875 z m 70.608,0 H 237.235 V 391.758 H 273.11 Z M 270.298,376.758 h -33.063 v -48.613 c 0,-4.142 -3.358,-7.5 -7.5,-7.5 -4.142,0 -7.5,3.358 -7.5,7.5 v 48.613 h -33.063 l 16.727,-89.209 h 16.336 v 8.53 c 0,4.142 3.358,7.5 7.5,7.5 4.142,0 7.5,-3.358 7.5,-7.5 v -8.53 h 16.336 z m -11.847,-173.094 -8.082,-32.328 c 4.97,-1.994 9.585,-4.685 13.729,-7.953 l 23.953,23.16 c -8.684,7.584 -18.743,13.405 -29.6,17.121 z m 61.98,-31.575 c -2.943,5.098 -6.445,10.052 -10.453,14.792 l -35.447,-34.274 c 2.396,-3.256 4.442,-6.783 6.092,-10.523 l 47.392,13.558 c -2.102,5.839 -4.641,11.349 -7.584,16.447 z m -35.675,-60.302 32.019,-9.159 c 1.094,5.607 1.654,11.333 1.654,17.098 0,5.764 -0.554,11.493 -1.648,17.1 l -32.026,-9.161 c 0.373,-2.594 0.576,-5.243 0.576,-7.939 10e-4,-2.696 -0.202,-5.344 -0.575,-7.939 z m -4.133,-14.418 c -1.65,-3.74 -3.695,-7.267 -6.092,-10.523 l 35.447,-34.274 c 4.007,4.739 7.509,9.693 10.453,14.791 2.943,5.098 5.482,10.607 7.584,16.449 z m 101.936,52.171 v 0 c -0.001,0.076 -0.001,0.252 -0.2,0.407 -0.198,0.155 -0.369,0.113 -0.443,0.094 l -50.025,-12.506 c 1.014,-5.86 1.538,-11.819 1.538,-17.809 0,-5.991 -0.519,-11.949 -1.533,-17.809 l 50.021,-12.505 c 0.074,-0.019 0.245,-0.061 0.443,0.094 0.199,0.155 0.199,0.332 0.199,0.407 z" />
	</g>
</g><g
     transform="translate(-80.437871,0.66041137)"
     id="g318">
</g><g
     transform="translate(-80.437871,0.66041137)"
     id="g320">
</g><g
     transform="translate(-80.437871,0.66041137)"
     id="g322">
</g><g
     transform="translate(-80.437871,0.66041137)"
     id="g324">
</g><g
     transform="translate(-80.437871,0.66041137)"
     id="g326">
</g><g
     transform="translate(-80.437871,0.66041137)"
     id="g328">
</g><g
     transform="translate(-80.437871,0.66041137)"
     id="g330">
</g><g
     transform="translate(-80.437871,0.66041137)"
     id="g332">
</g><g
     transform="translate(-80.437871,0.66041137)"
     id="g334">
</g><g
     transform="translate(-80.437871,0.66041137)"
     id="g336">
</g><g
     transform="translate(-80.437871,0.66041137)"
     id="g338">
</g><g
     transform="translate(-80.437871,0.66041137)"
     id="g340">
</g><g
     transform="translate(-80.437871,0.66041137)"
     id="g342">
</g><g
     transform="translate(-80.437871,0.66041137)"
     id="g344">
</g><g
     transform="translate(-80.437871,0.66041137)"
     id="g346">
</g></g>
<text
   transform="matrix(3.3090715,0,0,3.3090715,2743.1918,-41.8991)"
   xml:space="preserve"
   id="text378"
   style="font-style:normal;font-weight:normal;font-size:40px;line-height:1.25;font-family:sans-serif;white-space:pre;shape-inside:url(#rect380);fill:#000000;fill-opacity:1;stroke:none;"><tspan
     x="-742.95117"
     y="74.784587"><tspan
       style="font-style:normal;font-variant:normal;font-weight:normal;font-stretch:normal;font-size:74.6667px;font-family:'Kaushan Script';-inkscape-font-specification:'Kaushan Script, Normal';font-variant-ligatures:normal;font-variant-caps:normal;font-variant-numeric:normal;font-variant-east-asian:normal">Brakdakkie
</tspan></tspan><tspan
     x="-742.95117"
     y="168.11796"><tspan
       style="font-style:normal;font-variant:normal;font-weight:normal;font-stretch:normal;font-size:74.6667px;font-family:'Kaushan Script';-inkscape-font-specification:'Kaushan Script, Normal';font-variant-ligatures:normal;font-variant-caps:normal;font-variant-numeric:normal;font-variant-east-asian:normal">Guest Cottages</tspan></tspan></text></svg>
